<svg id="Icon_-_UI_-_Download_Generic_-_16px" data-name="Icon - UI - Download Generic - 16px" xmlns="http://www.w3.org/2000/svg" width="16" height="16" viewBox="0 0 16 16">
  <rect id="Rectangle_3155" data-name="Rectangle 3155" width="16" height="16" fill="none"/>
  <path id="Path_60502" data-name="Path 60502" d="M-19.542,92.764" transform="translate(29 -84)" fill="none" stroke="#000" stroke-linecap="round" stroke-linejoin="round" stroke-width="2"/>
  <g id="Group_9532" data-name="Group 9532" transform="translate(29 -84)">
    <path id="Path_60503" data-name="Path 60503" d="M-21.708,95.706a1,1,0,0,0,.326.217A1.01,1.01,0,0,0-21,96a1.01,1.01,0,0,0,.382-.077,1,1,0,0,0,.326-.217l4-4a1,1,0,0,0,0-1.414,1,1,0,0,0-1.414,0L-20,92.586V86a1,1,0,0,0-1-1,1,1,0,0,0-1,1v6.586l-2.293-2.293a1,1,0,0,0-1.414,0,1,1,0,0,0,0,1.414Z" fill="#009aac"/>
    <path id="Path_60504" data-name="Path 60504" d="M-14,97H-28a1,1,0,0,0-1,1,1,1,0,0,0,1,1h14a1,1,0,0,0,1-1A1,1,0,0,0-14,97Z" fill="#009aac"/>
  </g>
</svg>
