<svg id="Icon_-_UI_-_Download_File_-_16px" data-name="Icon - UI - Download File - 16px" xmlns="http://www.w3.org/2000/svg" width="16" height="16" viewBox="0 0 16 16">
  <rect id="Rectangle_3104" data-name="Rectangle 3104" width="16" height="16" fill="none"/>
  <g id="Group_9465" data-name="Group 9465" transform="translate(-76 -66)">
    <path id="Path_60462" data-name="Path 60462" d="M90.707,70.293l-4-4A1,1,0,0,0,86,66H78a1,1,0,0,0-1,1V81a1,1,0,0,0,1,1H90a1,1,0,0,0,1-1V71A1,1,0,0,0,90.707,70.293ZM89,80H79V68h6.586L89,71.414Z"/>
    <path id="Path_60463" data-name="Path 60463" d="M85,70a1,1,0,0,0-1-1h0a1,1,0,0,0-1,1l-.007,5.58-1.286-1.286a1,1,0,0,0-1.414,1.414l3,3a1,1,0,0,0,1.414,0l3-3a1,1,0,0,0-1.414-1.414l-1.3,1.3Z"/>
  </g>
</svg>
