<svg id="Icon_-_UI_-_External_Link_-_16px" data-name="Icon - UI - External Link - 16px" xmlns="http://www.w3.org/2000/svg" width="16" height="16" viewBox="0 0 16 16">
  <g id="Group_9388" data-name="Group 9388" transform="translate(28.25 -21.75)">
    <rect id="Rectangle_2972" data-name="Rectangle 2972" width="16" height="16" transform="translate(-28.25 21.75)" fill="none"/>
    <g id="Group_9388-2" data-name="Group 9388">
      <path id="Path_60303" data-name="Path 60303" d="M-13.941,22.754a.983.983,0,0,0-.432-.067h-5.675a1,1,0,0,0-1,1,1,1,0,0,0,1,1h3.3L-21.7,29.636a1,1,0,0,0,0,1.414,1,1,0,0,0,.707.293,1,1,0,0,0,.707-.293l5.009-5.008v3.3a1,1,0,0,0,1,1,1,1,0,0,0,1-1V23.687A.991.991,0,0,0-13.941,22.754Z" fill="#fff"/>
      <path id="Path_60304" data-name="Path 60304" d="M-16.25,31.889a1,1,0,0,0-1,1V34.75h-8v-8h1.583a1,1,0,0,0,1-1,1,1,0,0,0-1-1H-26.25a1,1,0,0,0-1,1v10a1,1,0,0,0,1,1h10a1,1,0,0,0,1-1V32.889A1,1,0,0,0-16.25,31.889Z" fill="#fff"/>
    </g>
  </g>
</svg>
