<svg id="STA_-_Saudi_Expert_-_Inverted" data-name="STA - Saudi Expert - Inverted" xmlns="http://www.w3.org/2000/svg" width="118.93" height="60.149" viewBox="0 0 118.93 60.149">
  <g id="Group_131" data-name="Group 131">
    <path id="Path_2411" data-name="Path 2411" d="M270.821,464.027a6.954,6.954,0,0,0-1.183-.609h-.021a.078.078,0,0,0-.063.021c-.063.021-.127.021-.19.042s-.106.021-.169.042l-.19.063a.886.886,0,0,0-.211.084,1.134,1.134,0,0,0-.232.1c-.042.021-.106.042-.148.063-.063.042-.127.063-.19.1a1.19,1.19,0,0,0-.169.105,1.289,1.289,0,0,0-.211.147c-.042.021-.085.063-.127.084-.063.042-.127.1-.19.147-.063.063-.127.1-.19.168-.042.042-.085.063-.127.1l-.127.126a.908.908,0,0,1-.148.126l-.127.126a2.08,2.08,0,0,0-.211.231,1.191,1.191,0,0,1-.148.168,3.7,3.7,0,0,1-.253.294c-.042.063-.085.1-.106.147a1.424,1.424,0,0,0-.127.189.513.513,0,0,1-.085.126.159.159,0,0,0-.042.084,1.832,1.832,0,0,0-.127.21c-.021.042-.042.063-.063.1-.042.063-.084.147-.127.21a.438.438,0,0,1-.085.126.91.91,0,0,0-.084.147.159.159,0,0,0-.042.084c-.021.021-.021.063-.042.084,0,.021-.021.021-.021.042v.021a.021.021,0,0,1-.021.021,3.811,3.811,0,0,1,1.584,1.113,9.869,9.869,0,0,0,.718.923,1.182,1.182,0,0,1,.275.5c.169.42.021.882.106,1.322a3.409,3.409,0,0,1,.042.462.258.258,0,0,1,.084.4c.084.168.338,1.679.507,2.414a.073.073,0,0,1,.021-.042c0-.021.021-.021.021-.042a.073.073,0,0,1,.021-.042.522.522,0,0,1,.084-.147c.042-.084.085-.168.127-.273.021-.063.063-.126.084-.189.063-.1.106-.231.169-.357a1.278,1.278,0,0,0,.106-.252c.042-.1.084-.189.127-.294.042-.126.106-.231.148-.357.021-.084.063-.147.085-.231.063-.189.148-.357.211-.546,0-.021.021-.042.021-.063.021-.021.021-.063.042-.1.063-.189.148-.4.211-.609,0-.021.021-.042.021-.063.063-.168.106-.336.169-.5,0-.042.021-.063.021-.105,0-.021.021-.063.021-.084.063-.231.127-.441.211-.672,0-.021.021-.063.021-.084.021-.042.021-.084.042-.126a.9.9,0,0,1,.021-.1c.042-.147.084-.315.127-.483,0-.042.021-.063.021-.1s.021-.063.021-.105c0-.021.021-.063.021-.084,0-.042.021-.084.021-.126.042-.21.105-.42.148-.609.042-.147.063-.294.106-.441,0-.042.021-.063.021-.105.063-.273.105-.546.169-.818.021-.063.021-.1.042-.168,0-.042.021-.063.021-.1.021-.063.021-.126.042-.189a6.107,6.107,0,0,0,.106-.608c0-.042.021-.105.021-.168.021-.063.021-.126.042-.21a.126.126,0,0,1,.021-.084v-.042a2.014,2.014,0,0,0-.676-.735ZM253,474.185c0-.063-.021-.126-.021-.189,0-.084-.021-.147-.021-.231s-.021-.168-.021-.252c0-.042-.021-.1-.021-.147,0-.063-.021-.147-.021-.21s-.021-.126-.021-.189a.264.264,0,0,0-.021-.126c0-.063-.021-.147-.021-.21s-.021-.105-.021-.168-.021-.126-.021-.189-.021-.1-.021-.168a.265.265,0,0,0-.021-.126c0-.063-.021-.126-.021-.189s-.021-.126-.021-.189a.266.266,0,0,0-.021-.126c0-.063-.021-.1-.021-.168s-.021-.147-.021-.21a.265.265,0,0,0-.021-.126c0-.063-.021-.126-.021-.189a.264.264,0,0,0-.021-.126v-.105a.157.157,0,0,0-.021-.1.408.408,0,0,0-.021-.147.264.264,0,0,0-.021-.126v-.1c0-.063-.021-.126-.021-.189,0-.084-.021-.168-.021-.231,0-.1-.021-.21-.021-.315a.407.407,0,0,0-.021-.147.459.459,0,0,0-.021-.168c0-.1-.021-.189-.021-.273,0-.126-.021-.252-.021-.378v-.147a.858.858,0,0,0-.021-.252V467.7a.406.406,0,0,0,.021-.168v-.21a2.141,2.141,0,0,0-.021-.357,2.084,2.084,0,0,0-.042-.336c0-.063-.021-.126-.021-.189,0-.042-.021-.084-.021-.126,0-.084-.021-.147-.021-.21a.9.9,0,0,0-.021-.1c0-.063-.021-.105-.021-.147-.021-.084-.021-.168-.042-.231V465.5c-.19.777-.3,4.009-.57,4.785-.274.735-.211,1.091-.507,1.826a6.622,6.622,0,0,1-.444,2.749,7.992,7.992,0,0,1-1.1,3.022h.063c.021,0,.021,0,.042.021h.486c.021,0,.042-.021.084-.021h.021c.021,0,.021,0,.042-.021.021,0,.021,0,.042-.021.021,0,.021,0,.043-.021h.042c.021,0,.021,0,.042-.021h.021c.021,0,.021,0,.042-.021h.042a3.454,3.454,0,0,0,.4-.525,20.759,20.759,0,0,0,2.006-2.917v-.063c.042.021.042-.021.042-.084Zm-14.91-12.047a4.953,4.953,0,0,0-2.239-.8c-.148-.021-.845-.084-.993-.084l-.106.1c-.042.042-.063.084-.106.1l-.169.168c-.021.042-.063.063-.084.1-.042.042-.085.1-.127.147-.063.063-.106.126-.169.189-.042.063-.106.126-.148.189-.063.063-.127.147-.19.21a.913.913,0,0,0-.127.147,1.057,1.057,0,0,1-.148.168c-.042.063-.106.126-.148.189a1.836,1.836,0,0,0-.169.21.752.752,0,0,0-.148.21,1.157,1.157,0,0,1-.127.168c-.042.042-.084.105-.127.147-.063.084-.148.189-.211.273-.042.063-.084.1-.127.168l-.19.252c-.084.1-.169.21-.253.336-.063.063-.106.147-.169.21-.042.063-.106.147-.148.21-.021.021-.042.042-.042.063s-.021.021-.021.042a3.972,3.972,0,0,1,2.45,1.343,9.827,9.827,0,0,0,.718.924,1.183,1.183,0,0,1,.274.5c.169.42.021.882.106,1.322a3.416,3.416,0,0,1,.042.462.258.258,0,0,1,.084.4c.127.231.253.315.38.273.084-.063.148-.1.232-.168s.19-.126.275-.189c.169-.126.359-.252.528-.378.718-.462,1.478-.882,2.2-1.3a.073.073,0,0,1,.021-.042,2.863,2.863,0,0,1,.042-.735c.106-.672.169-1.364.317-2.036a3.975,3.975,0,0,0-.106-1.805,2.254,2.254,0,0,0-1.077-1.7Zm5.639,13.013c0-.063-.021-.105-.021-.168-.021-.147-.042-.336-.063-.5-.021-.189-.042-.4-.063-.609-.021-.168-.042-.357-.063-.546-.021-.126-.021-.231-.042-.357l-.063-.567c-.021-.126-.021-.273-.042-.4-.021-.168-.042-.315-.063-.483-.021-.21-.042-.4-.063-.588-.021-.252-.063-.525-.084-.756s-.042-.441-.063-.63c-.021-.21-.042-.42-.042-.588a2.664,2.664,0,0,1-.021-.4,5.107,5.107,0,0,1-.021-.525V467.8a24.437,24.437,0,0,0-.317,2.98,6.9,6.9,0,0,1-.3,1.868c-.211.588-.169.882-.4,1.448a18.486,18.486,0,0,1-.655,2.2,8.724,8.724,0,0,1-1.309,2.624h.57a.127.127,0,0,0,.084-.021h.063a.127.127,0,0,0,.084-.021.16.16,0,0,0,.084-.021.078.078,0,0,0,.063-.021c.021,0,.042-.021.063-.021s.042-.021.063-.021c.042,0,.063-.021.106-.021.021,0,.042-.021.063-.021s.042,0,.042-.021c.021,0,.042-.021.063-.021s.042-.021.063-.021.021,0,.042-.021h.021a4.194,4.194,0,0,0,.4-.462c.7-1.028,1.225-1.7,1.88-2.791v-.042a2.025,2.025,0,0,1-.063-.231Zm-20.654-9.34c-.19-.084-.3-.315-.443-.462a1.447,1.447,0,0,1-.422-.819c-.232.042-.232.042-.443-.126a.677.677,0,0,1-.232-.651c-.127.294-.232.273-.338.189-.4-.336-.8-.672-1.2-.986a6.3,6.3,0,0,0-.76-.546,11.257,11.257,0,0,1-1.394-.777c-.422-.315-.908-.294-1.33-.63-.042-.042-.106,0-.148-.021l-.317-.126a2.612,2.612,0,0,1-.359-.147,5.285,5.285,0,0,1-.739-.273.473.473,0,0,0-.3-.063,1.835,1.835,0,0,1-.591-.084,3.232,3.232,0,0,0-.76-.252c-.7-.147-1.394-.357-2.112-.441-.127-.021-.232-.084-.38.063-.042.042-.148,0-.169-.063-.063-.273-.19-.252-.338-.252a3.541,3.541,0,0,1-.824-.063,5.855,5.855,0,0,0-.591-.1c-.507-.063-.993-.168-1.5-.273-.021,0-.422-.063-.781-.126-.106.042-.19.084-.3.126-.127.063-.275.126-.4.189l-.57.252c-.211.1-.443.189-.634.273-.169.084-.338.147-.465.21s-.253.1-.338.147-.148.063-.232.1c-.465.189-.929.4-1.394.609-.169.084-.338.147-.507.231-.4.189-.8.378-1.183.588-.127.063-.232.126-.359.189a3.178,3.178,0,0,1-.38.189q-.317.157-.7.315c-.3.126-.591.273-.929.42l-.7.315c-.232.1-.443.21-.676.294-.211.084-.4.189-.612.273-.3.126-.591.273-.866.378-.211.1-.422.189-.612.273-.169.084-.317.147-.465.21a2.173,2.173,0,0,0-.317.168l-.021.021v.021a.269.269,0,0,1-.127.021c1.035-.126,3.189-.441,3.442-.4a1.957,1.957,0,0,0,.781,0,.78.78,0,0,1,.38.021c.338.126.718-.084,1.035.147.021.021.063,0,.084-.021a.4.4,0,0,1,.528-.042,1.7,1.7,0,0,0,1.2.084.591.591,0,0,1,.38.021.584.584,0,0,0,.528.021.358.358,0,0,1,.359.042.241.241,0,0,0,.169.063c.211,0,.4-.021.612-.021s.422.084.634.063a1.261,1.261,0,0,1,.739.126.53.53,0,0,0,.528-.021.519.519,0,0,1,.465-.021,3.293,3.293,0,0,0,.634.084.574.574,0,0,1,.19,0,.523.523,0,0,0,.591-.084c.19.126.338.336.57.231.211.189.486.126.718.21a4.393,4.393,0,0,0,1.056.084c.443.063.908-.021,1.288.273.19.147.4.126.612.231.084.042.211-.042.3.021.169.084.3.273.486.21.211-.084.317.168.486.21a3.588,3.588,0,0,0,1.14.252.309.309,0,0,1,.253.1,1.325,1.325,0,0,0,.57.336,1.277,1.277,0,0,0,.4.126,1,1,0,0,1,.676.21c.19.189.444.21.634.4.232.252.507.441.739.672.042.042.106.084.169.147a2.72,2.72,0,0,1,.063-.315.5.5,0,0,1,.106-.189c.042-.021.106.021.127.084a5.105,5.105,0,0,1,.042.567,6.4,6.4,0,0,0,.655.84c.148-.147.3-.378.465-.294.042.126.084.252.127.4a1.374,1.374,0,0,0-.169.147.859.859,0,0,0,.211.462,2.551,2.551,0,0,1,.486.923c.169.441.317.923.507,1.322a1.983,1.983,0,0,1,.127.651,5.3,5.3,0,0,1-.021.818,10.72,10.72,0,0,1-.444,1.7c.042-.042.084-.063.127-.1.085-.084.169-.147.253-.231.169-.168.338-.336.507-.483a7.056,7.056,0,0,0,.57-.588c.063-.063.106-.126.169-.189.169-.168.338-.357.507-.525l.19-.189a1.271,1.271,0,0,1,.169-.168,23.409,23.409,0,0,0,1.436-4.03,6.249,6.249,0,0,0-.042-2.665c-.106-.21-.19-.441-.3-.5Zm60.1,8.647c0-.021,0-.021-.021-.042,0-.021-.021-.063-.021-.084a1.311,1.311,0,0,1-.042-.147.61.61,0,0,1-.042-.189c-.021-.042-.021-.1-.042-.147a.611.611,0,0,1-.042-.189c-.021-.063-.042-.147-.063-.21a3867.839,3867.839,0,0,0-.085-.42.892.892,0,0,1-.042-.231c-.021-.063-.021-.126-.042-.189s-.021-.126-.042-.168c-.021-.063-.021-.147-.042-.21s-.021-.1-.042-.168-.021-.126-.042-.21c-.021-.063-.021-.147-.042-.21,0-.063-.021-.126-.021-.168,0-.063-.021-.1-.021-.168s-.021-.126-.021-.168-.021-.1-.021-.147c0-.063-.021-.126-.021-.189,0-.084-.021-.168-.021-.252,0-.063-.021-.147-.021-.21s-.021-.147-.021-.21a.356.356,0,0,0-.021-.147v-.147c-.042.21-.422.777-.38.882l-.253,1.007c-.084.294-.169.588-.232.9-.063.273-.127.567-.19.84h.021a.021.021,0,0,1-.021.021c-.148.588-.338,1.2-.465,1.784-.084.4-.148.609-.211.986a6,6,0,0,1-.465,1.364h.718a.269.269,0,0,0,.127-.021c.021,0,.063-.021.084-.021a30.762,30.762,0,0,1,.127-.042h.042c.254-.231.507-.483.739-.714a.337.337,0,0,0,.127-.273.584.584,0,0,1,.148-.273c.232-.21.866-1.931.929-1.826Zm-1.563,1.175v-.042h.232v.063A.949.949,0,0,0,281.612,475.633Zm.232,1.154c-.021,0-.021,0-.042-.021v-.042c.021,0,.042,0,.042.021A.029.029,0,0,1,281.845,476.788Zm.4-.8-.042-.021.042-.021v.042Z" transform="translate(-174.929 -444.172)" fill="#fff" opacity="0.7" style="isolation: isolate"/>
    <path id="Path_2412" data-name="Path 2412" d="M170.9,423.664c-.021,0-.021,0-.042.021-.021,0-.042.021-.063.021s-.042.021-.063.021-.042,0-.042.021c-.021,0-.042.021-.063.021a.92.92,0,0,1-.106.021c-.021,0-.042.021-.063.021s-.042.021-.063.021a.078.078,0,0,0-.063.021.161.161,0,0,0-.084.021.126.126,0,0,0-.084.021H170.1a.128.128,0,0,0-.084.021h-.591a.657.657,0,0,1-.443-.126,2.805,2.805,0,0,1-.676-1.6c-.021-.294-.232-1.616-.232-1.637A6.011,6.011,0,0,1,168,419.55c.106-.986.063-1.658.211-2.665.042-.273.063-1.28.085-1.553a.255.255,0,0,0-.169.042c-.422.252-.866.483-1.267.756-.443.315-.887.63-1.309.986a12.421,12.421,0,0,0-1.647,1.511,5.99,5.99,0,0,1-.486.546c-1.563,1.448-2.661,2.393-4.118,2.812-.718.21,0,.273-.739.252-.4-.021-.718.168-.993-.063a1.707,1.707,0,0,1-.507-.651,5.83,5.83,0,0,1-.443-1.574,6.671,6.671,0,0,1,.317-2.791,17.56,17.56,0,0,1,1.288-3.043,26.548,26.548,0,0,1,1.985-2.854,7.835,7.835,0,0,1,.549-.63c.084-.126.169-.252.253-.357,0-.021.021-.021.021-.042.021-.021.042-.042.042-.063.042-.063.106-.147.148-.21.063-.063.106-.147.169-.21.084-.105.169-.231.253-.336l.19-.252c.042-.063.084-.1.127-.168.063-.084.148-.189.211-.273.042-.042.084-.1.127-.147a1.172,1.172,0,0,1,.127-.168,4.067,4.067,0,0,1,.317-.42c.042-.063.106-.126.148-.189a1.057,1.057,0,0,1,.148-.168.916.916,0,0,0,.127-.147c.063-.063.127-.147.19-.21.042-.063.106-.126.148-.189a1.37,1.37,0,0,1,.169-.189c.042-.042.084-.1.127-.147.021-.042.063-.063.084-.1l.169-.168c.042-.042.063-.084.106-.1l.106-.1a1.526,1.526,0,0,0-.866.252,7.834,7.834,0,0,0-2.893,1.532,35.055,35.055,0,0,0-3.463,2.9,13.086,13.086,0,0,0-3.189,4.47c-.084.21-.211.42-.3.63a11.968,11.968,0,0,0-1.014,2.414c-.084.315-.106.651-.169.966-.106.5-.232,1.007-.359,1.511a.678.678,0,0,0,.211.756.611.611,0,0,1,.232.441,3.244,3.244,0,0,0,1.162,2.12c.084.063.19.1.232.189.211.378.57.378.95.294.042-.21.063-.42.106-.651a7.222,7.222,0,0,1,.993.042,1.383,1.383,0,0,0,1.14-.168c.084-.063.253-.042.38-.042a12.73,12.73,0,0,0,2.661-.987,2.825,2.825,0,0,0,.486-.273c.507-.273.95-.944,1.457-1.2a4.564,4.564,0,0,0,.845-.567c.148-.126.3-.252.422-.378a2.616,2.616,0,0,1,.781-.252.374.374,0,0,0,.106-.084h.021a16.622,16.622,0,0,1,.275,1.868c.021-.021.063-.042.085-.063.042.336.106.672.148.9a.958.958,0,0,0,.253.5,1.99,1.99,0,0,1,.612.944,1.006,1.006,0,0,0,.95.63,3.74,3.74,0,0,0,1.816.021,4.656,4.656,0,0,0,2.513-1.364c.063.042.042.042.042.042Zm9.1-.8a.065.065,0,0,1-.042.021h-.021c-.021,0-.021,0-.042.021h-.042c-.021,0-.021,0-.042.021-.021,0-.021,0-.042.021-.021,0-.021,0-.042.021H179.7c-.021,0-.042.021-.084.021h-.486c-.021,0-.021,0-.042-.021h-.063a2.6,2.6,0,0,1-.507-.294c-.021-.063-.8-.336-.845-2.246-.063-.252-.106-.5-.169-.756-.169-.756-.359-1.49-.549-2.246a3.077,3.077,0,0,1-.169-.588,24.1,24.1,0,0,0-.253-3.253,12.793,12.793,0,0,1-.106-1.553c0-.546,0-1.091-.021-1.658a.859.859,0,0,0-.338.021c-.317.1-.612.252-.929.378-.739.315-.317.231-.993.63-.211.126-1.668,1.091-1.732,1.385v.231a5.112,5.112,0,0,0,.021.525c0,.126.021.252.021.4a5.118,5.118,0,0,1,.042.588l.063.63c.021.252.042.5.084.756.021.189.042.4.063.588.021.168.042.315.063.483.021.126.021.273.042.4l.063.567c.021.126.021.231.042.357.021.189.042.378.063.546.021.21.042.42.063.609s.042.357.063.5c0,.063.021.126.021.168,0,.063.021.126.021.168v.084c.021.189.042.315.042.336a2.368,2.368,0,0,0,.338,1.133,5.167,5.167,0,0,1,.7,1.6,4.167,4.167,0,0,0,.106.546.234.234,0,0,0,.338.168c.021,0,.042.042.063.042a2.224,2.224,0,0,1-.148.231.837.837,0,0,0,1.1.378,5.656,5.656,0,0,1,.634-.1,2.255,2.255,0,0,0,.4-.126A5.621,5.621,0,0,0,180,422.866Zm10.918-.294a10.551,10.551,0,0,1-1.816-.294,2.711,2.711,0,0,1-1.056-.651,3.87,3.87,0,0,1-.866-1.49c-.19-.944-.528-1.616-.655-2.561-.106-.755-.148-1.175-.275-1.931-.063-.378-.106-.483-.169-1.007-.063-.546-.127-.84-.275-1.742,0-.063-.106-.609-.106-.672a8.514,8.514,0,0,1-.19-1.448c0-.567.021-1.406-.042-1.952-.422-.189-.971.252-1.288.462a16.4,16.4,0,0,1-1.711.882c-.127.063-.676.315-.781.378v.126a1.079,1.079,0,0,0,.042.231c0,.042.021.105.021.147s.021.063.021.1c0,.063.021.147.021.21,0,.042.021.084.021.126,0,.063.021.126.021.189.021.1.021.231.042.336,0,.126.021.231.021.357v.21c0,.063-.021.1-.021.168v.273a1.2,1.2,0,0,0,.021.252v.147c0,.1.021.231.021.378,0,.084.021.168.021.273a.519.519,0,0,0,.021.168.409.409,0,0,0,.021.147c0,.1.021.21.021.315,0,.084.021.147.021.231,0,.063.021.126.021.189v.105a.265.265,0,0,0,.021.126.406.406,0,0,0,.021.147.156.156,0,0,0,.021.1v.105a.265.265,0,0,0,.021.126c0,.063.021.126.021.189a.264.264,0,0,0,.021.126c0,.063.021.147.021.21s.021.105.021.168a.265.265,0,0,0,.021.126c0,.063.021.126.021.189s.021.126.021.189a.265.265,0,0,0,.021.126c0,.063.021.1.021.168s.021.126.021.189.021.1.021.168.021.147.021.21a.265.265,0,0,0,.021.126c0,.063.021.126.021.189s.021.147.021.21c0,.042.021.1.021.147,0,.084.021.168.021.252s.021.168.021.231.021.126.021.189.021.1.021.168v.1c.084.651.127,1.092.148,1.112.106.147.19.315.3.462a1.489,1.489,0,0,0,.8.8.372.372,0,0,1,.19.168c.254.441.486.881.718,1.322a3.454,3.454,0,0,0,1.077,1.2.52.52,0,0,0,.253.084,4.453,4.453,0,0,1,.528-.021c.169.042.3.21.465.21a10.262,10.262,0,0,0,1.394,0,2.564,2.564,0,0,0,1.33-.651,11.753,11.753,0,0,1,1.183-.9c.169-.147.38-.231.57-.378a1.012,1.012,0,0,0,.211-.315,2.653,2.653,0,0,0-.8-.021Zm-5.406,1.028c-.021,0-.063-.084-.106-.126a.865.865,0,0,1,.169-.063c.021,0,.042.042.084.084-.042.042-.084.1-.148.1Zm-34.529-5.247c-.169.168-.338.336-.507.525-.063.063-.106.126-.169.189-.148.168-.359.378-.57.588-.169.147-.338.315-.507.483-.085.084-.169.147-.253.231a.559.559,0,0,1-.127.1c-.549.525-1.035.965-1.077,1.028a.164.164,0,0,1-.085.084c-.275.231-.528.483-.8.692-.422.336-.845.672-1.267.945a3.3,3.3,0,0,1-.443.357,4.1,4.1,0,0,0-.7.42c-.486.315-.993.651-1.478.945a.875.875,0,0,0-.338.294.79.79,0,0,1-.4.357.654.654,0,0,0-.338.21.626.626,0,0,1-.338.252c-.38.189-.781.42-1.162.609a1.8,1.8,0,0,1-.359.1c-.063.021-.127-.021-.19.042a1.439,1.439,0,0,1-.634.294,3.433,3.433,0,0,0-.38.21,2.2,2.2,0,0,1-.929.441c-.3.021-.591.273-.887.357-.275.063-.57.294-.866.357a6.146,6.146,0,0,0-1.288.42c-.211.1-.422-.021-.612.273a.021.021,0,0,1-.021-.021c-.106-.21-.253-.021-.359.063-.127.1-.232.168-.338.126a.231.231,0,0,0-.106-.021c-.3.1-.57.21-.866.315a1.946,1.946,0,0,1-.7.231c-.338-.021-.676.252-1.014.189-.106-.021-.19.1-.253.336a2.482,2.482,0,0,1-.169.462,4.282,4.282,0,0,0-.38-.273l-.105.588c.232-.042.422-.1.634-.126.127-.021.232-.147.338-.357a.346.346,0,0,0,.486.231,1.9,1.9,0,0,0,.549-.189c.042-.021.084.021.148.042a4.587,4.587,0,0,1-1.14,1.448c-.232-.189-.486-.063-.76.063-.338.189-.676.441-.993.252-.085-.042-.232.063-.338.084a3.809,3.809,0,0,1-.465.126,2.7,2.7,0,0,0-.7.126,11.123,11.123,0,0,1-1.33.462,2.39,2.39,0,0,0-.507.168.583.583,0,0,1-.253.042c-.148-.084-.3,0-.443.126a.545.545,0,0,1-.676.147.92.92,0,0,0-.95.063,1.167,1.167,0,0,1-.528.084c-.084,0-.148-.042-.232,0a.941.941,0,0,1-.824-.042.525.525,0,0,0-.634.126c-.148-.042-.232-.126-.338-.1a1.356,1.356,0,0,0-.38.126,1.074,1.074,0,0,1-.908.063.344.344,0,0,0-.38.084c-.063.063-.169.105-.232.063a.456.456,0,0,0-.4-.042c-.211.021-.422.042-.612.042-.528-.021-1.035-.084-1.563-.105-.317-.021-.634-.21-.971-.084-.148-.147-.338-.063-.528-.063a1.85,1.85,0,0,1-.338-.042c-.317-.063-.591-.336-.95-.231-.042.021-.084-.063-.127-.063-.232-.063-.443-.231-.7-.189-.359.042-.634-.252-.971-.336-.148-.231-.38-.252-.57-.357-.127-.063-.275-.084-.4-.147a6.9,6.9,0,0,0-.845-.5,2.214,2.214,0,0,1-.486-.273c-.359-.336-.7-.651-1.056-.965-.106-.084-.211-.231-.317-.231-.169,0-.275-.147-.38-.315-.19-.273-.317-.651-.591-.735a.21.21,0,0,1-.084-.1,6.719,6.719,0,0,1-.4-.651,5.031,5.031,0,0,1-.359-.672c-.232-.651-.443-1.322-.634-1.994a2.821,2.821,0,0,1-.106-.609c-.085-.42-.085-.924-.148-1.343a10.105,10.105,0,0,1-.063-1.8c.021-.5.063-1.028.127-1.532a5.832,5.832,0,0,1,.148-.84c.042-.21.084-.42.148-.63.085-.336.148-.714.253-1.028a8.947,8.947,0,0,1,1.077-2.2,3.59,3.59,0,0,0,.359-.756,6.249,6.249,0,0,0,.19-.672c.021-.084.021-.168.042-.315a4.333,4.333,0,0,0-1.014,1.49,2.018,2.018,0,0,1-.148.378c-.4.713-.655,1.574-1.014,2.33-.253.567-.443,1.238-.655,1.868a11.437,11.437,0,0,0-.317,1.217,10.3,10.3,0,0,0-.211,1.112c-.063.776-.106,1.532-.127,2.288a13.642,13.642,0,0,0,.169,2.833,11.878,11.878,0,0,0,.887,2.959,19.26,19.26,0,0,0,1.267,1.784c0,.021.021.021.042.021.317.336.634.672.971,1.007a.461.461,0,0,0,.106.084c.106.042.19.084.38.168a3,3,0,0,0-.211-.4,3.6,3.6,0,0,0-.4-.4c-.19-.189-.359-.42-.57-.609-.19-.168-.3-.525-.507-.672a3.307,3.307,0,0,1-.443-.588.761.761,0,0,1-.169-.462.2.2,0,0,1,.084-.231c.084.126.169.273.253.4a5.357,5.357,0,0,0,1.014,1.364c.317.252.634.483.95.714a3.639,3.639,0,0,1,.591.4,6.2,6.2,0,0,0,1.584.944c.3.147.612.189.908.315a9.205,9.205,0,0,0,1.922.588,5.139,5.139,0,0,0,1.88.21c.084-.021.148.042.211.042a1.865,1.865,0,0,0,.676.084,12.95,12.95,0,0,1,1.8-.063,2.284,2.284,0,0,0,.845,0c.021,0,.042.021.084,0,.528-.042,1.056-.1,1.584-.168a.128.128,0,0,0,.084-.021c.127-.1.232-.021.338-.021a2.641,2.641,0,0,0,.993-.021,3.485,3.485,0,0,1,.739-.189,6.323,6.323,0,0,0,1.077-.147,3.643,3.643,0,0,0,.591-.168c.317-.147.655-.315.95-.168.042.021.084,0,.106,0a6.4,6.4,0,0,1,1.394-.21c.042,0,.106-.042.148-.042.148-.042.275-.063.422-.1.084-.021.148,0,.232-.021.338-.084.676-.315,1.014-.378a.449.449,0,0,0,.211-.189.39.39,0,0,1,.275-.315c.211-.084.38-.147.549.084.084.126.211.084.338,0a.728.728,0,0,0,.148-.231c.106.063.169.252.338.189a.593.593,0,0,0,.38-.42c.021-.021.042-.042.063-.042.084.1.169.189.211.252.317-.084.591-.126.866-.21.443-.126.887-.315,1.33-.42.275-.063.549-.294.824-.315a2.568,2.568,0,0,0,.38-.1,1.434,1.434,0,0,1,.3-.042c-.021.168-.021.273-.042.4.042,0,.084.021.106,0,.359-.063.7-.357,1.056-.462a16.971,16.971,0,0,0,1.837-.756c.4-.168.824-.378,1.225-.567.359-.168.7-.4,1.056-.546s.7-.483,1.056-.525a.183.183,0,0,0,.148-.084c.275-.294.549-.21.824-.441.317.042.591-.315.887-.525.063-.042.106-.189.19-.357.084,0,.19.063.275-.021.148-.126.275-.189.422-.294a21.285,21.285,0,0,0,3.463-3.211,13.818,13.818,0,0,0,1.288-1.7,21.656,21.656,0,0,0,1.668-2.749c.169-.378.359-.735.549-1.091.232-.42.465-.861.7-1.3a1.273,1.273,0,0,1-.169.168c0,.063-.063.126-.127.189Zm-30.918-8.689c.042.042.085.042.148.063a1.84,1.84,0,0,0,.676.042,13.232,13.232,0,0,1,1.816-.147c.063,0,.127-.021.19-.021a.191.191,0,0,0,.106-.021.8.8,0,0,0,.211-.021c.042,0,.084-.021.127-.021v-.021l.021-.021c.084-.042.19-.1.317-.168a4.963,4.963,0,0,1,.465-.21c.19-.084.4-.189.612-.273.275-.126.549-.252.866-.378.19-.084.4-.189.612-.273.232-.1.443-.21.676-.294l.7-.315c.338-.147.634-.294.929-.42q.38-.189.7-.315a3.186,3.186,0,0,0,.38-.189c.127-.063.232-.126.359-.189.4-.21.8-.4,1.183-.588a5.411,5.411,0,0,1,.507-.231c.465-.21.929-.42,1.394-.609.084-.042.148-.063.232-.1.106-.042.211-.084.338-.147.148-.063.3-.126.465-.21.211-.084.422-.189.634-.273l.57-.252c.148-.063.275-.126.4-.189.106-.042.211-.084.3-.126a6.286,6.286,0,0,1,1.2-.462c.19-.042.38-.1.57-.147a2.978,2.978,0,0,0,.781-.231c.465-.273.929-.252,1.415-.483.718-.315,1.415-.609,2.133-.861a25.214,25.214,0,0,1,3.126-1.217.448.448,0,0,0,.148-.063c.169-.1.211.147.338.273s.169,1.028.317.965a1.918,1.918,0,0,1,.845-.986c.148-.084.38-1.2.507-1.364.359-.462.612-2.1.993-2.477a.421.421,0,0,0,.085-.168,15.363,15.363,0,0,0,.676-2.036c.063-.231.317-.609.253-.756-.084-.21.275-1.238.127-1.175a9.781,9.781,0,0,0-.993.714c-.211.168-.422.42-.591.315-.148-.084-.507.357-.655.4l-.95.315a1.52,1.52,0,0,0-.465.21,1.128,1.128,0,0,1-.549.273c-.169.021-1.816.713-1.985.734-.4.084-.8.189-1.2.252a1.253,1.253,0,0,0-1.035.525c-.084-.042-.148-.126-.211-.1-.253.126-.507-.126-.76.189-.021.021-.042.021-.085.021-.338-.021-.676.252-1.014.273-.063,0-.127.063-.19.126a.22.22,0,0,1-.275.084c-.232-.126-.465,0-.718.105a1.872,1.872,0,0,1-.7.252.942.942,0,0,0-.422.189,2.713,2.713,0,0,0-.422.231c-.211.126-.422.336-.634.252-.274.252-.528.147-.76.147-.169,0-.338-.126-.528.189-.021.042-.085.042-.106.042a2.875,2.875,0,0,0-.422.042.678.678,0,0,0-.422.21c-.148.21-.275.042-.422.189a.307.307,0,0,1-.38.084c-.106-.042-.211,0-.3.168-.106.189-.19.168-.3.168-.338.042-.676.063-1.014.1a.34.34,0,0,0-.232.1.723.723,0,0,1-.7.42c-.063.021-.127.1-.19.147a2.692,2.692,0,0,1-.57.336,1.583,1.583,0,0,0-.507.294c-.084.063-.211.168-.275.126-.338-.252-.781.147-1.119-.021-.042-.021-.106.042-.148.063-.106.084-.253.273-.338.231-.127-.042-.253.042-.38.063a5.172,5.172,0,0,0-.549.126,3.289,3.289,0,0,1-.739.147,1.011,1.011,0,0,0-.422.084,3.946,3.946,0,0,1-.824.21,2.93,2.93,0,0,1-.591.021c-.19.21-.317.357-.443.5a10.4,10.4,0,0,0-.465,1.658,2.893,2.893,0,0,1-.3.567,1.567,1.567,0,0,0-.19.315c-.4.945-.929,1.7-1.309,2.686-.021.084-.084.126-.127.189a6.768,6.768,0,0,0-.612,1.3c-.127.441-.063.714.084.84Zm18.859-20.484c-2.027.776-9.018,3.211-11.531,4.051l-.19.9c2.64-.861,9.208-3.19,11.214-3.988l.507-.965Zm73.937,20.128a5.608,5.608,0,0,0,1.309.692.888.888,0,0,1,.3.189c.38.315.465.315.76-.084a1.013,1.013,0,0,0,.148-.546c.021-.483.127-.588.549-.651.486-.063.634-.273.591-.861,0-.063,0-.147.021-.168.232-.21.106-.357-.042-.546-.127-.147-.211-.357-.338-.525-.148-.084-.359-.126-.444-.252a2.25,2.25,0,0,0-.718-.546.55.55,0,0,1-.338-.4.824.824,0,0,0-.317-.441,6.85,6.85,0,0,0-1.267-.945.667.667,0,0,1-.253-.168,1.44,1.44,0,0,1-.148-.315,1.89,1.89,0,0,0-.739.609c-.507.651-.824,1.448-1.309,2.12-.148.231-.274.5-.422.714-.169.21-.148.525-.422.693a.5.5,0,0,0-.106.525c.57.147.57.147.929-.21a.966.966,0,0,1,.676.168c.57.315,1.1.609,1.584.945ZM181.626,405.3l-.232-.042.063-.21a2.112,2.112,0,0,0,.084-.651c0-1.6-.676-2.162-1.246-2.162a2.19,2.19,0,0,0-2.091,2.078c0,.819.549,1.28,1.858,1.511l.444.084-.359.273a18.045,18.045,0,0,1-3.886,1.868,6.494,6.494,0,0,0,1.246.147,8.167,8.167,0,0,0,3.379-2.078l.085-.105.127.042a2.564,2.564,0,0,1,.3.1l.549-.756a.626.626,0,0,0-.317-.1Zm-.528-.231-.063.168-.169-.042c-1.858-.378-2.239-.986-2.239-1.427s.57-.882,1.162-.882a1.735,1.735,0,0,1,1.373,1.826,1.061,1.061,0,0,1-.063.357ZM192.566,430.3c2.239-.714,7.835-2.728,9.546-3.4l.444-.8c-1.732.651-7.666,2.728-9.82,3.442l-.169.756Zm18.162-7.766h-.042a.078.078,0,0,0-.063.021c-.021,0-.042.021-.063.021s-.063.021-.085.021c-.042,0-.084.021-.127.021h-.718a1.522,1.522,0,0,1-.866-.441,1.553,1.553,0,0,1-.211-.546c-.19-.588-.4-1.175-.549-1.8-.19-.839-.338-1.7-.486-2.561-.211-1.133-.443-2.267-.549-3.442a1.778,1.778,0,0,0-.084-.462,2.762,2.762,0,0,1-.169-.693c-.063-.525-.169-1.049-.211-1.574-.042-.546-.38-2.539-.422-2.959a3.221,3.221,0,0,0-.106-.651,2.493,2.493,0,0,1-.148-.881c-.063-.8-.084-1.6-.148-2.393-.063-.672.169-4.429.148-5.121a3.611,3.611,0,0,0-.063-.672,1.616,1.616,0,0,0-.148-.336c-.486.042-1.352.861-1.753,1.028-.465.21-1.626,1.091-2.112,1.259-.38.126.38.462.338.819-.042.378-.063,1.049-.063,1.763.021.4.042.819.084,1.28-.275,1.385-.845,4.114-.993,5.037a3.53,3.53,0,0,1-.084.462v.063a.125.125,0,0,1-.021.084c-.021.063-.021.126-.042.21,0,.063-.021.105-.021.168-.042.21-.063.4-.106.609-.021.063-.021.126-.042.189,0,.042-.021.063-.021.1-.021.063-.021.1-.042.168-.063.294-.106.567-.169.819a.908.908,0,0,1-.021.1c-.042.147-.063.294-.106.441-.042.21-.106.42-.148.609,0,.042-.021.084-.021.126,0,.021-.021.063-.021.084,0,.042-.021.063-.021.105s-.021.063-.021.1c-.042.168-.084.315-.127.483a.9.9,0,0,1-.021.1c-.021.042-.021.084-.042.126,0,.021-.021.063-.021.084-.063.231-.127.441-.211.672,0,.021-.021.063-.021.084,0,.042-.021.063-.021.1a4.717,4.717,0,0,1-.169.5c0,.021-.021.042-.021.063-.063.21-.148.4-.211.609-.021.042-.021.063-.042.105,0,.021-.021.042-.021.063a5.832,5.832,0,0,1-.211.546c-.021.084-.063.168-.084.231-.042.126-.106.252-.148.357s-.084.189-.127.294a1.269,1.269,0,0,0-.106.252c-.063.126-.106.231-.169.357-.021.063-.063.126-.084.189-.042.084-.084.189-.127.273a.528.528,0,0,1-.084.147.073.073,0,0,1-.021.042c0,.021-.021.021-.021.042a.073.073,0,0,1-.021.042,12.7,12.7,0,0,1-2.365,3.3l-.042.042c-.021.021-.042.042-.063.042-.908.776-1.563-.336-1.9-.735a1.74,1.74,0,0,1-.486-.756,5.81,5.81,0,0,1-.38-2.477,14.427,14.427,0,0,1,.95-4.3c.274-.714.549-1.406.866-2.1.021-.042.042-.1.063-.147v-.021a.021.021,0,0,1,.021-.021v-.021c0-.021.021-.021.021-.042.021-.021.021-.063.042-.084a.159.159,0,0,0,.042-.084.914.914,0,0,0,.084-.147.441.441,0,0,1,.085-.126c.042-.063.084-.147.127-.21.021-.042.042-.063.063-.105a1.853,1.853,0,0,0,.127-.21.159.159,0,0,0,.042-.084l.084-.126a1.465,1.465,0,0,0,.127-.189c.042-.042.063-.1.106-.147a2.734,2.734,0,0,1,.253-.294c.042-.063.106-.1.148-.168.063-.084.148-.147.211-.231l.127-.126a.913.913,0,0,1,.148-.126l.127-.126c.042-.042.084-.063.127-.1.063-.063.127-.1.19-.168.063-.042.127-.1.19-.147.042-.021.084-.063.127-.084a1.287,1.287,0,0,0,.211-.147,1.187,1.187,0,0,0,.169-.1c.063-.042.127-.063.19-.1.042-.021.106-.042.148-.063a2.508,2.508,0,0,1,.232-.1c.063-.021.148-.063.211-.084l.19-.063a.5.5,0,0,1,.169-.042.619.619,0,0,1,.19-.042.078.078,0,0,0,.063-.021h.021a3.637,3.637,0,0,0-1.162-.294,2.2,2.2,0,0,0-1.014.21,20.643,20.643,0,0,0-2.534.735c-.528.357-1.1.693-1.647,1.028a4.538,4.538,0,0,0-1.521,1.511,3,3,0,0,0-.57,1.847,2.412,2.412,0,0,1-.106.756c-.232.777-.486,1.553-.7,2.33a5.089,5.089,0,0,0-.127.819c.275.4.063.819-.021,1.238a.7.7,0,0,0,.021.546.133.133,0,0,1,0,.126c-.3.294-.127.525.021.777,0,.021.021.021.021.042h-.042c.127.378.063.819.211,1.2.084.273.19.441.465.483a.805.805,0,0,1,.359.252c.274.273,1.33.714,1.457,1.091a1.043,1.043,0,0,0,.507.567,5.082,5.082,0,0,0,.845.357,4.132,4.132,0,0,0,1.246-.021l.106-.021a4.718,4.718,0,0,0,1.14-.357,11.319,11.319,0,0,0,2.936-2.309,2.391,2.391,0,0,0,.232-.231,19.136,19.136,0,0,0,2.006-2.707,2.111,2.111,0,0,0,.443-1.154c.148,0,.275-.063.3-.21.042-.252.042-.483.085-.735,0-.021.781-2.456.824-2.519,0-.147.021-.315.021-.462.021.273.042.441.042.462a4.521,4.521,0,0,0,.317.986.836.836,0,0,1,.063.4,3.029,3.029,0,0,0,.127.63c.021.231.021.483.042.755a4.558,4.558,0,0,0,.486.042,7.979,7.979,0,0,0,.232,1.07c.021.042.063.1.084.147.127.273.106.651.422.839a.3.3,0,0,1-.042.084c-.106.1-.042.21,0,.315.148.5.3,1.008.443,1.49a7.218,7.218,0,0,1,.3,1.112,6.5,6.5,0,0,0,.95,2.519c.042.063.127.147.19.147a1.58,1.58,0,0,0,1.5-.021,8.238,8.238,0,0,0,.887-.4,13.2,13.2,0,0,0,1.753-1.322ZM190.243,417.2c0,.021-.021.021-.042.021,0-.021-.021-.021-.021-.042.021-.021.042-.021.063-.042v.063Zm1.478,4.114-.042-.042a.3.3,0,0,1,.042-.126c.021.021.063.042.063.063C191.763,421.25,191.742,421.271,191.721,421.313Zm9.926-9.466c-.042-.021-.063-.084-.084-.126a.351.351,0,0,1,.042-.1c.063.042.127.063.211.126-.084.063-.148.126-.169.105Zm2.07,2.519.232-.126v.231Zm.8,2.875c-.021,0-.042-.063-.042-.084.042-.021.063-.042.106-.021.021,0,.021.063.042.084A.914.914,0,0,0,204.519,417.241Zm.845,2.456a.042.042,0,1,1,0-.084c.042,0,.063.021.106.042C205.427,419.676,205.406,419.7,205.364,419.7Zm.3-4.24-.042-.042c.021-.042.042-.063.042-.105l.042.042C205.7,415.394,205.66,415.415,205.66,415.457Zm.591,7.409-.063-.063c.021-.021.021-.042.042-.042s.021.021.042.042c-.021.042-.021.042-.021.063Zm.486-4.617v-.042l.042.021-.042.021Zm.422,4.89c-.063-.042-.106-.084-.169-.126v-.042a.359.359,0,0,1,.106-.042,1.173,1.173,0,0,1,.127.168c-.021,0-.063.042-.063.042Zm.275-4.911c-.021-.021-.042-.063-.063-.084,0-.021.021-.042.021-.063.021.021.063.042.085.063A.159.159,0,0,1,207.433,418.228Zm.634,5.814a1.673,1.673,0,0,1-.169-.336.8.8,0,0,1,.148-.168c.021.042.084.063.084.105-.021.126-.042.273-.063.4Zm14.086-1.322a3.1,3.1,0,0,1-.4.147,2.53,2.53,0,0,0-1.119.546,5.723,5.723,0,0,1-.655.42c-.38.21-.465.21-.781-.105a1.014,1.014,0,0,1-.19-.231,2.005,2.005,0,0,0-.253-.336,1.371,1.371,0,0,0-.317-.189c0-.189.042-.336-.021-.42a9.1,9.1,0,0,1-.591-1.3c-.042-.1-.063-.231-.127-.273a1.8,1.8,0,0,1-.465-.861c-.148-.336-.275-.693-.443-1.028-.106-.231-.3-.4-.38-.63-.127-.4-.507-.63-.57-1.091-.021-.1-.148-.21-.232-.273a.824.824,0,0,1-.3-.546c-.063-.357-.148-.714-.211-1.07a15.4,15.4,0,0,1-.3-1.721c-.063-.672-.275-1.3-.38-1.952a1.924,1.924,0,0,0-.063-.588c-.148.021-1.119.756-1.288.819a20.1,20.1,0,0,0-1.858,1.049c-.169.609.317.21.38.693a.19.19,0,0,1,.127.189c0,.273.021.546.021.8v.189a.355.355,0,0,0,.021.147c0,.063.021.147.021.21s.021.147.021.21c0,.084.021.168.021.252,0,.063.021.126.021.189,0,.042.021.1.021.147,0,.063.021.126.021.168,0,.063.021.1.021.168s.021.126.021.168c.021.063.021.147.042.21s.021.126.042.21a.49.49,0,0,0,.042.168c.021.063.021.147.042.21s.021.126.042.168c.021.063.021.126.042.189a.886.886,0,0,1,.042.231,2563.467,2563.467,0,0,1,.084.42c.021.063.042.147.063.21a.609.609,0,0,1,.042.189c.021.042.021.1.042.147a.61.61,0,0,1,.042.189,1.315,1.315,0,0,1,.042.147c0,.021.021.063.021.084s0,.021.021.042v.042a50.48,50.48,0,0,0,2.175,5.877l.063.126c.063.168.106.315.3.4a.359.359,0,0,1,.444-.168c-.148.294,0,.546.021.8a4.414,4.414,0,0,1,.443.21.522.522,0,0,0,.549.042,4.983,4.983,0,0,0,.781-.294c.253-.168.549-.126.8-.315a5.126,5.126,0,0,1,.76-.378,3.232,3.232,0,0,0,.57-.357,14.68,14.68,0,0,1,1.478-1.07,4.334,4.334,0,0,0,1.119-1.2.274.274,0,0,0,.063-.42Zm-6.547,2.98c-.021-.042-.021-.1-.042-.147.021,0,.063-.021.084-.021s.021.021.042.021l-.063.063c0,.021-.021.063-.021.084Zm.274.714c-.148-.063-.169-.147-.232-.609.253.21.4.357.549.483a.214.214,0,0,1-.317.126Zm.57.084a.074.074,0,0,1-.042-.021c0-.042.021-.084.021-.126a.074.074,0,0,1,.042.021A.264.264,0,0,0,216.451,426.5Zm.549-1.511-.042-.042a.161.161,0,0,1,.085-.042l.042.042C217.064,424.944,217.042,424.965,217,424.986Zm.591-3.19-.063-.063c0-.021.021-.042.021-.063a.293.293,0,0,0,.085.063A.261.261,0,0,1,217.592,421.8Z" transform="translate(-104.361 -389.18)" fill="#fff"/>
  </g>
  <path id="Path_2553" data-name="Path 2553" d="M6.17-5.766l1.378-.948H3.08v-3.537h3.7L8.154-11.2H2.9l-1.378.948V-.664H6.775l1.378-.948H3.08V-5.766Zm7,.9L15.772-8.19H14.515l-1.939,2.6L10.183-8.461l-1.257.873,2.7,3.251L8.76-.679l1.257.015,2.2-2.95L14.893-.393l1.257-.888Zm8.678-3.522A3.2,3.2,0,0,0,19.27-7.151a2.766,2.766,0,0,1,1.424-.331A2.578,2.578,0,0,1,22.83-6.459a3.754,3.754,0,0,1,.818,2.423A3.506,3.506,0,0,1,22.8-1.552a3.675,3.675,0,0,0,1.484-1.37,3.511,3.511,0,0,0,.606-1.972A3.6,3.6,0,0,0,24-7.407,2.8,2.8,0,0,0,21.845-8.385Zm-2.575.2H17.816V3.1H19.27V-.664l2.272-.015L22.8-1.552H19.27ZM33.265-5.059a2.6,2.6,0,0,0-.53-2.363,2.622,2.622,0,0,0-2.045-.933A2.8,2.8,0,0,0,28.449-7.2a2.551,2.551,0,0,1,2.423.09,2.4,2.4,0,0,1,1.212,2.047H28.842l-1.257.873a3.043,3.043,0,0,1-.061-.677A3.152,3.152,0,0,1,28.449-7.2a3.54,3.54,0,0,0-2.2,3.191,3.131,3.131,0,0,0,1.09,2.529,3.812,3.812,0,0,0,2.59.963A3.715,3.715,0,0,0,32.81-1.808a3.579,3.579,0,0,1-1.545.406,3.793,3.793,0,0,1-2.378-.753,3.241,3.241,0,0,1-1.3-2.032l4.422.015Zm6.846-2.529a1.837,1.837,0,0,0-1.53-.753,2.282,2.282,0,0,0-1.984,1.2,1.639,1.639,0,0,1,2.166.5Zm-4.968-.6H36.6V-.664H35.143Zm10.026,6.8c-1.2,0-1.969-1.054-1.969-2.679V-7.3h1.787l1.257-.888H43.2V-9.2L40.489-7.317h1.257v4.109a2.785,2.785,0,0,0,.727,1.972,2.363,2.363,0,0,0,1.757.768,2.645,2.645,0,0,0,1.848-.783A3.143,3.143,0,0,0,46.4-1.7,2.855,2.855,0,0,1,45.169-1.386Z" transform="translate(72.534 57.05)" fill="#fff"/>
</svg>
