<svg id="general-preferences" xmlns="http://www.w3.org/2000/svg" width="48" height="48" viewBox="0 0 48 48">
  <g id="Group_9641" data-name="Group 9641" transform="translate(-1713 140)">
    <rect id="Rectangle_866" data-name="Rectangle 866" width="48" height="48" transform="translate(1713 -140)" fill="none" opacity="0.46"/>
    <g id="Group_9641-2" data-name="Group 9641">
      <path id="Path_60586" data-name="Path 60586" d="M1748-110a6.006,6.006,0,0,1-6-6,6.006,6.006,0,0,1,6-6,6.006,6.006,0,0,1,6,6A6.006,6.006,0,0,1,1748-110Zm0-10a4,4,0,0,0-4,4,4,4,0,0,0,4,4,4,4,0,0,0,4-4A4,4,0,0,0,1748-120Z" fill="#be008d"/>
    </g>
    <g id="Group_9642" data-name="Group 9642">
      <path id="Path_60587" data-name="Path 60587" d="M1721-98h-2.5a2.787,2.787,0,0,1-2.5-3,2.787,2.787,0,0,1,2.5-3h2.5a1,1,0,0,1,1,1,1,1,0,0,1-1,1h-2.5c-.172,0-.5.39-.5,1s.328,1,.5,1h2.5a1,1,0,0,1,1,1A1,1,0,0,1,1721-98Z" fill="#78006e"/>
    </g>
    <g id="Group_9643" data-name="Group 9643">
      <path id="Path_60588" data-name="Path 60588" d="M1755.5-98H1737a1,1,0,0,1-1-1,1,1,0,0,1,1-1h18.5c.172,0,.5-.39.5-1s-.328-1-.5-1H1737a1,1,0,0,1-1-1,1,1,0,0,1,1-1h18.5a2.787,2.787,0,0,1,2.5,3A2.787,2.787,0,0,1,1755.5-98Z" fill="#78006e"/>
    </g>
    <g id="Group_9644" data-name="Group 9644">
      <path id="Path_60589" data-name="Path 60589" d="M1740-113h-21.5a2.787,2.787,0,0,1-2.5-3,2.787,2.787,0,0,1,2.5-3H1740a1,1,0,0,1,1,1,1,1,0,0,1-1,1h-21.5c-.172,0-.5.39-.5,1s.328,1,.5,1H1740a1,1,0,0,1,1,1A1,1,0,0,1,1740-113Z" fill="#78006e"/>
    </g>
    <g id="Group_9645" data-name="Group 9645">
      <path id="Path_60590" data-name="Path 60590" d="M1755.5-113a1,1,0,0,1-1-1,1,1,0,0,1,1-1c.172,0,.5-.39.5-1s-.328-1-.5-1a1,1,0,0,1-1-1,1,1,0,0,1,1-1,2.787,2.787,0,0,1,2.5,3A2.787,2.787,0,0,1,1755.5-113Z" fill="#78006e"/>
    </g>
    <g id="Group_9646" data-name="Group 9646">
      <path id="Path_60591" data-name="Path 60591" d="M1721-128h-2.5a2.787,2.787,0,0,1-2.5-3,2.787,2.787,0,0,1,2.5-3h2.5a1,1,0,0,1,1,1,1,1,0,0,1-1,1h-2.5c-.172,0-.5.39-.5,1s.328,1,.5,1h2.5a1,1,0,0,1,1,1A1,1,0,0,1,1721-128Z" fill="#78006e"/>
    </g>
    <g id="Group_9647" data-name="Group 9647">
      <path id="Path_60592" data-name="Path 60592" d="M1755.5-128H1737a1,1,0,0,1-1-1,1,1,0,0,1,1-1h18.5c.172,0,.5-.39.5-1s-.328-1-.5-1H1737a1,1,0,0,1-1-1,1,1,0,0,1,1-1h18.5a2.787,2.787,0,0,1,2.5,3A2.787,2.787,0,0,1,1755.5-128Z" fill="#78006e"/>
    </g>
    <g id="Group_9648" data-name="Group 9648">
      <path id="Path_60593" data-name="Path 60593" d="M1729-125a6.006,6.006,0,0,1-6-6,6.006,6.006,0,0,1,6-6,6.006,6.006,0,0,1,6,6A6.006,6.006,0,0,1,1729-125Zm0-10a4,4,0,0,0-4,4,4,4,0,0,0,4,4,4,4,0,0,0,4-4A4,4,0,0,0,1729-135Z" fill="#be008d"/>
    </g>
    <g id="Group_9649" data-name="Group 9649">
      <path id="Path_60594" data-name="Path 60594" d="M1729-95a6.006,6.006,0,0,1-6-6,6.006,6.006,0,0,1,6-6,6.006,6.006,0,0,1,6,6A6.006,6.006,0,0,1,1729-95Zm0-10a4,4,0,0,0-4,4,4,4,0,0,0,4,4,4,4,0,0,0,4-4A4,4,0,0,0,1729-105Z" fill="#be008d"/>
    </g>
  </g>
</svg>
