<svg xmlns="http://www.w3.org/2000/svg" width="16" height="16" viewBox="0 0 16 16">
  <g id="Icon_-_UI_-_Globe_-_16px" data-name="Icon - UI - Globe - 16px" opacity="0.8">
    <path id="Path_3343" data-name="Path 3343" d="M922.289,371.047h1.75a6.112,6.112,0,0,1-2.73,2.03,3.966,3.966,0,0,0,.56-.91C922.009,371.817,922.149,371.467,922.289,371.047Zm-2.73,0h1.82a7.3,7.3,0,0,1-.28.7,3.35,3.35,0,0,1-1.47,1.61Zm-2.66,0h1.82v2.31a3.054,3.054,0,0,1-1.47-1.61A2.189,2.189,0,0,1,916.9,371.047Zm-2.66,0h1.68c.14.42.28.77.42,1.12a3.971,3.971,0,0,0,.56.91A6.775,6.775,0,0,1,914.239,371.047Zm8.61-3.29h2.38a5.535,5.535,0,0,1-.7,2.38H922.5A8.49,8.49,0,0,0,922.849,367.757Zm-3.29,0h2.38a8.486,8.486,0,0,1-.35,2.38h-2.03Zm-3.29,0h2.38v2.38h-2.03A19.259,19.259,0,0,1,916.269,367.757Zm-3.22,0h2.38a12.338,12.338,0,0,0,.28,2.38h-2.03A6.278,6.278,0,0,1,913.049,367.757Zm9.52-3.29h2.03a6.716,6.716,0,0,1,.7,2.38h-2.38C922.849,366.077,922.709,365.237,922.569,364.467Zm-3.01,0h2.03a12.153,12.153,0,0,1,.35,2.38h-2.38Zm-2.94,0h2.03v2.38h-2.38C916.339,366.007,916.479,365.237,916.619,364.467Zm-2.94,0h2.03a13.819,13.819,0,0,0-.28,2.45h-2.38A7.024,7.024,0,0,1,913.679,364.467Zm7.63-2.87a6.521,6.521,0,0,1,2.73,2.03h-1.68c-.14-.42-.28-.77-.42-1.12C921.659,362.157,921.519,361.877,921.309,361.6Zm-4.34,0a10.367,10.367,0,0,0-.56.91,5.3,5.3,0,0,0-.42,1.12h-1.75A6.522,6.522,0,0,1,916.969,361.6Zm2.59-.28a2.808,2.808,0,0,1,1.47,1.61,2.922,2.922,0,0,1,.28.7h-1.82Zm-.84,0v2.31H916.9a7.227,7.227,0,0,1,.28-.7C917.669,362.017,918.159,361.457,918.719,361.317Zm.42-.98a7,7,0,0,0-.21,14h.42a7,7,0,0,0-.21-14Z" transform="translate(-911.139 -359.337)" fill="#fff"/>
    <g id="Layer_1" data-name="Layer 1">
      <rect id="Rectangle_2867" data-name="Rectangle 2867" width="16" height="16" fill="none"/>
    </g>
  </g>
</svg>
