<svg xmlns="http://www.w3.org/2000/svg" width="120" height="56.001" viewBox="0 0 120 56.001">
  <path id="Path_3339" data-name="Path 3339" d="M625.536,499.84c-6-.11-12.12-.12-18.17-.069-4.79,0-9.57,0-14.35.069-14,.251-28.93-.24-43.71.39v6.411c20-1,40.76-1.351,60.45-1.42s39.61.42,59.55,1.42V500.23c-14.771-.589-29.76-.139-43.771-.39Zm25.83-19.31a18.392,18.392,0,0,1-1.84,2.73l-1.65,1.73-2.39,1.85,2.24,1.55-8-.1.09-.09a13.4,13.4,0,0,0,1.26-1.56,50.535,50.535,0,0,0,4.23-6.411c.779-1.52,1.41-3.13,2.15-4.68a44.588,44.588,0,0,1,3.36-5.8c1-1.52,2.11-3,3.15-4.47a86.907,86.907,0,0,0,4.61-7.5l-.44-.4h7c-.21.27-.59,1-.3,1.23l-.22-.07-.4.25a1.31,1.31,0,0,0,.53.69,1.155,1.155,0,0,0-.63-.18c0,.16-1.76,3.06-2.451,4.26a3.51,3.51,0,0,0-.61.73c-.57.86-7.45,12.45-9.69,16.25Zm-14.72,2.75-1.59,1.73-2.24,1.93,1.83,1.33a3.575,3.575,0,0,0-.8.06h-1.4c-1.41,0-2.83-.09-4.23-.14h-1.329a14,14,0,0,0,1.24-1.549,49.439,49.439,0,0,0,4.18-6.42c.79-1.53,1.42-3.13,2.16-4.68a43.439,43.439,0,0,1,3.36-5.81c1-1.51,2.1-3,3.14-4.46a84.732,84.732,0,0,0,4.62-7.5l-.43-.321h7c-.19.29-.62,1.12-.21,1.27l-.24-.08-.41.25c.08.28.12.51-.1.51,0,.16-2.63,4.4-2.61,4.52a1.2,1.2,0,0,0-.46.47,11.67,11.67,0,0,1-1.93,2.25c.21.19-.79,1.12-.73,1.48a5.962,5.962,0,0,0-.671.86c-2.49,3.66-4.15,7.78-6.39,11.66a17.143,17.143,0,0,1-1.76,2.649Zm-12.82,0-1.59,1.73-1.64,1.3,1.42,2H614.1v-.06a12.392,12.392,0,0,0,1.21-1.61,50.184,50.184,0,0,0,4.19-6.42c.79-1.53,1.41-3.14,2.15-4.69a46.4,46.4,0,0,1,3.36-5.8c1-1.52,2.11-3,3.15-4.47a84.531,84.531,0,0,0,4.61-7.489l-.42-.33h7c-.2.29-.63,1.12-.21,1.28l-.21-.08-.41.24a1.32,1.32,0,0,0,.53.69,1.156,1.156,0,0,0-.63-.18.875.875,0,0,0,.24.42c-.14-.23-.47,0-.6.24l-2,3.51-.22-.1.06.35a1.254,1.254,0,0,0-.45.47c-.55.84-2,2.89-2.24,2.79a1,1,0,0,0-.43,1,7.847,7.847,0,0,0-.659.86c-2.49,3.66-4.14,7.809-6.4,11.64a16.578,16.578,0,0,1-1.89,2.72Zm-9.89-4.64-1.08,1.9c-.34.55-.68,1.11-1,1.68l-2.55,4.259-3.11-5.2-.13-.22v-.08l-.27-.44c-2.24-3.82-3.9-8-6.389-11.641a5.668,5.668,0,0,0-.67-.86,1.05,1.05,0,0,0-.42-1c-.27.1-.52-.34-.31-.53-.74-.67-2.24-2.64-2.39-2.73l-.16-.26c-.7-1.2-2.49-4.1-2.45-4.26-.22,0-.2-.23-.11-.51l-.4-.25-.27.09c.41-.13,0-1-.21-1.25h34.62c-.21.29-.62,1.12-.21,1.25l-.28-.09-.4.25c.09.28.12.51-.1.51,0,.16-1.76,3.06-2.45,4.26l-.16.26c-.2.09-1.66,2.06-2.4,2.73.21.19,0,.63-.3.53a1,1,0,0,0-.43,1,7.056,7.056,0,0,0-.66.86,104.423,104.423,0,0,0-5.31,9.68Zm-17.36,9.619,1.42-2-1.64-1.25-1.6-1.68a17.519,17.519,0,0,1-1.84-2.78c-2.24-3.82-3.91-8-6.4-11.64a6.125,6.125,0,0,0-.66-.86,1,1,0,0,0-.43-1c-.26.1-1.7-2-2.24-2.79a1.221,1.221,0,0,0-.44-.47v-.36l-.22.1-2.08-3.6c-.14-.23-.47-.47-.61-.25a.8.8,0,0,0,.24-.41,1.162,1.162,0,0,0-.63.18,1.354,1.354,0,0,0,.53-.69l-.34-.22-.28.08c.42-.13,0-1-.21-1.27h7l-.41.33a78.81,78.81,0,0,0,4.62,7.49c1,1.51,2.11,3,3.14,4.47a47.766,47.766,0,0,1,3.37,5.8c.22.48.43,1,.64,1.44a2.291,2.291,0,0,1,.061,1.11c0,.23-.1.48,0,.66s.38.19.55.3a1.132,1.132,0,0,1,.3.39,7.218,7.218,0,0,0,.56.77,50.017,50.017,0,0,0,4.22,6.53,13.117,13.117,0,0,0,1.24,1.549l.06.05s-7.46.03-7.89.02Zm-6-.07h-.2c-1.4,0-2.82.14-4.229.14h-1.4l-.8-.06,1.83-1.33-2.24-1.93-1.6-1.68a16.29,16.29,0,0,1-1.81-2.77c-2.24-3.82-3.91-8-6.4-11.64a5.064,5.064,0,0,0-.67-.86c0-.37-.939-1.3-.71-1.49a10.877,10.877,0,0,1-1.95-2.23,1.2,1.2,0,0,0-.46-.47c0-.12-2.65-4.359-2.61-4.51-.22,0-.18-.24-.1-.52l-.4-.24-.28.09c.42-.14,0-1-.21-1.28h7l-.43.33a86.168,86.168,0,0,0,4.62,7.5c1,1.5,2.12,3,3.14,4.46a45.261,45.261,0,0,1,3.37,5.8c.73,1.55,1.36,3.16,2.15,4.69a51,51,0,0,0,4.21,6.451,13.986,13.986,0,0,0,1.24,1.53,6.127,6.127,0,0,1-1.06.02Zm-19.63.161,2.18-1.56-2.42-1.79-1.59-1.68a17.11,17.11,0,0,1-1.81-2.779c-2.2-3.8-9.18-15.39-9.73-16.23-.12-.18-.55-.76-.62-.72-.65-1.21-2.48-4.11-2.451-4.25a1.059,1.059,0,0,0-.63.17,1.268,1.268,0,0,0,.53-.69l-.4-.24-.28.061c.41-.14,0-1-.221-1.28h7l-.42.33a84.941,84.941,0,0,0,4.62,7.5c1,1.5,2.13,3,3.15,4.46a45.216,45.216,0,0,1,3.45,5.831c.74,1.549,1.37,3.16,2.15,4.69a50.028,50.028,0,0,0,4.13,6.47,13.414,13.414,0,0,0,1.24,1.549l.091.091Zm82.92-1.71a52.012,52.012,0,0,0,4.18-6.43c.779-1.53,1.41-3.13,2.15-4.69a45.237,45.237,0,0,1,3.36-5.8c1-1.52,2.11-3,3.15-4.46.81-1.18,1.81-2.49,2.6-3.74V451.18l-.84-.07q-7.014-.34-14.07-.34h-10.09c-4.31,0-8.47,0-12.32-.061-4,.17-7.34-.39-11.09.23-.81-.15-6.2-.23-11.58-.23s-10.79.08-11.59.23c-3.76-.62-7.11-.06-11.1-.23-3.8.08-7.95.08-12.26.061h-10.15c-4.78,0-9.56.1-14.069.34h-.84v10.16c.81,1.37,1.74,2.66,2.619,3.93,1,1.51,2.12,3,3.15,4.47a46.429,46.429,0,0,1,3.36,5.8c.74,1.55,1.36,3.16,2.14,4.69a52.366,52.366,0,0,0,4.19,6.42,12.438,12.438,0,0,0,1.251,1.55l.21.24-15.11.18-1.81.091v6.4c19.38-.9,39.069-1.37,58.49-1.7h3.061c19.359.33,39.13.79,58.45,1.69v-6.389h-1.79l-15.11-.18.21-.23A15.412,15.412,0,0,0,653.867,486.641Z" transform="translate(-549.307 -450.64)" fill="#3e6e2d"/>
</svg>
