<svg id="STA_-_Saudi_Expert_-_Inverted" data-name="STA - Saudi Expert - Inverted" xmlns="http://www.w3.org/2000/svg" width="120" height="60.732" viewBox="0 0 120 60.732">
  <g id="Group_131" data-name="Group 131">
    <path id="Path_2411" data-name="Path 2411" d="M271.514,464.078a7.011,7.011,0,0,0-1.193-.615H270.3a.078.078,0,0,0-.064.021c-.064.021-.128.021-.192.042s-.107.021-.171.042l-.192.064a.9.9,0,0,0-.213.085,1.146,1.146,0,0,0-.234.106c-.043.021-.106.042-.149.064-.064.042-.128.064-.192.106a1.2,1.2,0,0,0-.171.106,1.3,1.3,0,0,0-.213.148c-.043.021-.085.064-.128.085-.064.042-.128.106-.192.148-.064.064-.128.106-.192.169-.043.042-.085.064-.128.106l-.128.127a.918.918,0,0,1-.149.127l-.128.127a2.107,2.107,0,0,0-.213.233,1.2,1.2,0,0,1-.149.17,3.735,3.735,0,0,1-.256.3c-.043.064-.085.106-.107.148a1.433,1.433,0,0,0-.128.191.517.517,0,0,1-.085.127.161.161,0,0,0-.043.085,1.857,1.857,0,0,0-.128.212c-.021.042-.043.064-.064.106-.043.064-.085.148-.128.212a.443.443,0,0,1-.085.127.922.922,0,0,0-.085.148.16.16,0,0,0-.043.085c-.021.021-.021.064-.043.085,0,.021-.021.021-.021.042v.021a.021.021,0,0,1-.021.021,3.844,3.844,0,0,1,1.6,1.123,9.97,9.97,0,0,0,.724.932,1.194,1.194,0,0,1,.277.509c.17.424.021.89.107,1.335a3.45,3.45,0,0,1,.043.466.261.261,0,0,1,.085.4c.085.169.341,1.7.511,2.437a.074.074,0,0,1,.021-.042c0-.021.021-.021.021-.042a.074.074,0,0,1,.021-.042.529.529,0,0,1,.085-.148c.043-.085.085-.17.128-.275.021-.064.064-.127.085-.191.064-.106.107-.233.17-.36a1.29,1.29,0,0,0,.107-.254c.043-.106.085-.191.128-.3.043-.127.107-.233.149-.36.021-.085.064-.148.085-.233.064-.191.149-.36.213-.551,0-.021.021-.042.021-.063.021-.021.021-.064.043-.106.064-.191.149-.4.213-.615,0-.021.021-.042.021-.064.064-.17.107-.339.171-.509,0-.042.021-.064.021-.106,0-.021.021-.063.021-.085.064-.233.128-.445.213-.678,0-.021.021-.064.021-.085.021-.042.021-.085.043-.127a.91.91,0,0,1,.021-.106c.043-.148.085-.318.128-.487,0-.042.021-.064.021-.106s.021-.064.021-.106c0-.021.021-.064.021-.085,0-.042.021-.085.021-.127.043-.212.106-.424.149-.615.043-.148.064-.3.107-.445,0-.043.021-.064.021-.106.064-.275.106-.551.17-.826.021-.064.021-.106.043-.17,0-.042.021-.064.021-.106.021-.064.021-.127.043-.191a6.151,6.151,0,0,0,.107-.614c0-.042.021-.106.021-.17.021-.064.021-.127.043-.212a.127.127,0,0,1,.021-.085v-.042a2.033,2.033,0,0,0-.682-.742Zm-17.985,10.257c0-.064-.021-.127-.021-.191,0-.085-.021-.148-.021-.233s-.021-.17-.021-.254c0-.042-.021-.106-.021-.148,0-.064-.021-.148-.021-.212s-.021-.127-.021-.191a.267.267,0,0,0-.021-.127c0-.064-.021-.148-.021-.212s-.021-.106-.021-.17-.021-.127-.021-.191-.021-.106-.021-.169a.267.267,0,0,0-.021-.127c0-.064-.021-.127-.021-.191s-.021-.127-.021-.191a.268.268,0,0,0-.021-.127c0-.064-.021-.106-.021-.169s-.021-.148-.021-.212a.267.267,0,0,0-.021-.127c0-.064-.021-.127-.021-.191a.266.266,0,0,0-.021-.127v-.106a.158.158,0,0,0-.021-.106.412.412,0,0,0-.021-.148.267.267,0,0,0-.021-.127v-.106c0-.064-.021-.127-.021-.191,0-.085-.021-.169-.021-.233,0-.106-.021-.212-.021-.318a.412.412,0,0,0-.021-.148.463.463,0,0,0-.021-.169c0-.106-.021-.191-.021-.276,0-.127-.021-.254-.021-.382v-.148a.867.867,0,0,0-.021-.254v-.276a.411.411,0,0,0,.021-.169V467.4a2.166,2.166,0,0,0-.021-.36,2.112,2.112,0,0,0-.043-.339c0-.064-.021-.127-.021-.191,0-.042-.021-.085-.021-.127,0-.085-.021-.148-.021-.212a.91.91,0,0,0-.021-.106c0-.064-.021-.106-.021-.148-.021-.085-.021-.17-.043-.233v-.127c-.192.784-.3,4.048-.576,4.832-.277.742-.213,1.1-.511,1.844a6.691,6.691,0,0,1-.448,2.776,8.073,8.073,0,0,1-1.108,3.052h.064c.021,0,.021,0,.043.021h.49c.021,0,.043-.021.085-.021h.021c.021,0,.021,0,.043-.021.021,0,.021,0,.043-.021.022,0,.022,0,.043-.021h.043c.021,0,.021,0,.043-.021h.021c.021,0,.021,0,.043-.021h.043a3.488,3.488,0,0,0,.4-.53,20.957,20.957,0,0,0,2.024-2.946v-.064c.043.021.043-.021.043-.085Zm-15.044-12.164a5,5,0,0,0-2.259-.805c-.149-.021-.852-.085-1-.085l-.107.106c-.043.042-.064.085-.107.106l-.171.17c-.021.042-.064.064-.085.106-.043.042-.085.106-.128.148-.064.064-.107.127-.17.191-.043.064-.107.127-.149.191-.064.063-.128.148-.192.212a.917.917,0,0,0-.128.148,1.073,1.073,0,0,1-.149.17c-.043.063-.107.127-.149.191a1.861,1.861,0,0,0-.17.212.76.76,0,0,0-.149.212,1.169,1.169,0,0,1-.128.17c-.043.042-.085.106-.128.148-.064.085-.149.191-.213.275-.043.064-.085.106-.128.169l-.192.254c-.085.106-.17.212-.256.339-.064.063-.107.148-.171.212-.043.064-.107.148-.149.212-.021.021-.043.042-.043.064s-.021.021-.021.042a4.007,4.007,0,0,1,2.472,1.356,9.92,9.92,0,0,0,.725.933,1.194,1.194,0,0,1,.277.509c.17.424.021.89.107,1.335a3.45,3.45,0,0,1,.043.466.261.261,0,0,1,.085.4c.128.233.256.318.384.275.085-.064.149-.106.234-.17s.192-.127.277-.191c.17-.127.362-.254.533-.381.724-.466,1.492-.89,2.216-1.314a.074.074,0,0,1,.021-.042,2.893,2.893,0,0,1,.043-.742c.107-.678.17-1.377.32-2.056a4.015,4.015,0,0,0-.107-1.823,2.275,2.275,0,0,0-1.087-1.716Zm5.689,13.139c0-.064-.021-.106-.021-.17-.021-.148-.043-.339-.064-.509-.021-.191-.043-.4-.064-.615-.021-.169-.043-.36-.064-.551-.021-.127-.021-.233-.043-.36l-.064-.572c-.021-.127-.021-.275-.043-.4-.021-.17-.043-.318-.064-.487-.021-.212-.043-.4-.064-.593-.021-.254-.064-.53-.085-.763s-.043-.445-.064-.636c-.021-.212-.043-.424-.043-.593a2.7,2.7,0,0,1-.021-.4,5.154,5.154,0,0,1-.021-.53v-.233a24.692,24.692,0,0,0-.32,3.009,6.973,6.973,0,0,1-.3,1.886c-.213.593-.17.89-.4,1.462a18.668,18.668,0,0,1-.661,2.225,8.81,8.81,0,0,1-1.321,2.649h.575a.128.128,0,0,0,.085-.021h.064a.128.128,0,0,0,.085-.021.162.162,0,0,0,.085-.021.079.079,0,0,0,.064-.021c.021,0,.043-.021.064-.021s.043-.021.064-.021c.043,0,.064-.021.107-.021.021,0,.043-.021.064-.021s.043,0,.043-.021c.021,0,.043-.021.064-.021s.043-.021.064-.021.021,0,.043-.021h.021a4.223,4.223,0,0,0,.4-.466c.7-1.038,1.236-1.717,1.9-2.819v-.042a2.06,2.06,0,0,1-.064-.233Zm-20.84-9.43c-.192-.085-.3-.318-.447-.466a1.461,1.461,0,0,1-.426-.827c-.234.042-.234.042-.447-.127a.683.683,0,0,1-.234-.657c-.128.3-.234.276-.341.191-.4-.339-.81-.678-1.215-1a6.351,6.351,0,0,0-.767-.551,11.342,11.342,0,0,1-1.406-.784c-.426-.318-.916-.3-1.342-.636-.043-.042-.107,0-.149-.021l-.32-.127a2.631,2.631,0,0,1-.362-.148,5.331,5.331,0,0,1-.746-.275.477.477,0,0,0-.3-.064,1.851,1.851,0,0,1-.6-.085,3.258,3.258,0,0,0-.767-.254c-.7-.148-1.406-.36-2.131-.445-.128-.021-.234-.085-.384.064-.043.042-.149,0-.17-.064-.064-.276-.192-.254-.341-.254a3.572,3.572,0,0,1-.831-.064,5.91,5.91,0,0,0-.6-.106c-.511-.064-1-.17-1.513-.276-.021,0-.426-.063-.788-.127-.107.042-.192.085-.3.127-.128.064-.277.127-.4.191l-.575.254c-.213.106-.447.191-.639.275-.171.085-.341.148-.469.212s-.256.106-.341.148-.149.064-.234.106c-.469.191-.938.4-1.406.615-.17.085-.341.148-.511.233-.4.191-.81.381-1.193.593-.128.063-.234.127-.362.191a3.2,3.2,0,0,1-.384.191q-.32.159-.7.318c-.3.127-.6.275-.938.424l-.7.318c-.234.106-.447.212-.682.3-.213.085-.4.191-.618.275-.3.127-.6.276-.874.382-.213.106-.426.191-.618.275-.17.085-.32.148-.469.212a2.183,2.183,0,0,0-.32.17l-.021.021v.021a.273.273,0,0,1-.128.021c1.044-.127,3.218-.445,3.473-.4a1.971,1.971,0,0,0,.788,0,.786.786,0,0,1,.384.021c.341.127.725-.085,1.044.148.021.021.064,0,.085-.021a.4.4,0,0,1,.533-.042,1.709,1.709,0,0,0,1.215.085.6.6,0,0,1,.384.021.588.588,0,0,0,.533.021.361.361,0,0,1,.362.042.243.243,0,0,0,.17.064c.213,0,.4-.021.618-.021s.426.085.639.064a1.272,1.272,0,0,1,.746.127.534.534,0,0,0,.533-.021.523.523,0,0,1,.469-.021,3.328,3.328,0,0,0,.639.085.578.578,0,0,1,.192,0,.527.527,0,0,0,.6-.085c.192.127.341.339.575.233.213.191.49.127.724.212a4.433,4.433,0,0,0,1.065.085c.447.064.916-.021,1.3.276.192.148.4.127.618.233.085.042.213-.042.3.021.17.085.3.275.49.212.213-.085.32.169.49.212a3.618,3.618,0,0,0,1.151.254.312.312,0,0,1,.256.106,1.338,1.338,0,0,0,.575.339,1.288,1.288,0,0,0,.4.127,1.006,1.006,0,0,1,.682.212c.192.191.448.212.639.4.234.254.511.445.746.678.043.042.107.085.171.148a2.748,2.748,0,0,1,.064-.318.5.5,0,0,1,.107-.191c.043-.021.107.021.128.085a5.164,5.164,0,0,1,.043.572,6.454,6.454,0,0,0,.661.848c.149-.148.3-.381.469-.3.043.127.085.254.128.4a1.389,1.389,0,0,0-.17.148.867.867,0,0,0,.213.466,2.576,2.576,0,0,1,.49.932c.171.445.32.932.511,1.335a2,2,0,0,1,.128.657,5.354,5.354,0,0,1-.021.826,10.826,10.826,0,0,1-.448,1.717c.043-.043.085-.064.128-.106.085-.085.171-.148.256-.233.17-.17.341-.339.511-.487a7.139,7.139,0,0,0,.575-.593c.064-.064.107-.127.17-.191.17-.17.341-.36.511-.53l.192-.191a1.287,1.287,0,0,1,.171-.17,23.645,23.645,0,0,0,1.449-4.069,6.312,6.312,0,0,0-.043-2.691c-.107-.212-.192-.445-.3-.509Zm60.645,8.731c0-.021,0-.021-.021-.042,0-.021-.021-.064-.021-.085a1.343,1.343,0,0,1-.043-.148.617.617,0,0,1-.043-.191c-.021-.042-.021-.106-.043-.148a.616.616,0,0,1-.043-.191c-.021-.064-.043-.148-.064-.212a434,434,0,0,0-.085-.424.9.9,0,0,1-.043-.233c-.021-.064-.021-.127-.043-.191s-.021-.127-.043-.169c-.021-.064-.021-.148-.043-.212s-.021-.106-.043-.169-.021-.127-.043-.212c-.021-.064-.021-.148-.043-.212,0-.064-.021-.127-.021-.17,0-.064-.021-.106-.021-.169s-.021-.127-.021-.17-.021-.106-.021-.148c0-.064-.021-.127-.021-.191,0-.085-.021-.169-.021-.254,0-.064-.021-.148-.021-.212s-.021-.148-.021-.212a.359.359,0,0,0-.021-.148v-.148c-.043.212-.426.784-.384.89l-.256,1.017c-.085.3-.17.593-.234.911-.064.275-.128.572-.192.848h.021a.021.021,0,0,1-.021.021c-.149.593-.341,1.208-.469,1.8-.085.4-.149.615-.213,1a6.062,6.062,0,0,1-.469,1.377h.725a.272.272,0,0,0,.128-.021c.021,0,.064-.021.085-.021a33.569,33.569,0,0,1,.128-.042h.043c.256-.233.511-.487.746-.721a.341.341,0,0,0,.128-.275.59.59,0,0,1,.149-.276c.234-.212.874-1.949.938-1.844ZM282.4,475.8v-.042h.234v.064A.953.953,0,0,0,282.4,475.8Zm.234,1.166c-.021,0-.021,0-.043-.021V476.9c.021,0,.043,0,.043.021A.029.029,0,0,1,282.637,476.962Zm.4-.805-.043-.021.043-.021v.042Z" transform="translate(-174.759 -444.031)" fill="#389741" opacity="0.7" style="isolation: isolate"/>
    <path id="Path_2412" data-name="Path 2412" d="M171.5,424c-.021,0-.021,0-.043.021-.021,0-.043.021-.064.021s-.043.021-.064.021-.043,0-.043.021c-.021,0-.043.021-.064.021a.927.927,0,0,1-.106.021c-.021,0-.043.021-.064.021s-.043.021-.064.021a.079.079,0,0,0-.064.021.162.162,0,0,0-.085.021.127.127,0,0,0-.085.021h-.064a.129.129,0,0,0-.085.021h-.6a.663.663,0,0,1-.447-.127,2.834,2.834,0,0,1-.682-1.611c-.021-.3-.234-1.632-.234-1.653a6.077,6.077,0,0,1-.064-1.017c.107-1,.064-1.674.213-2.691.043-.275.064-1.293.085-1.568a.257.257,0,0,0-.17.042c-.426.254-.874.487-1.279.763-.447.318-.895.636-1.321,1a12.537,12.537,0,0,0-1.662,1.526,6.043,6.043,0,0,1-.49.551c-1.577,1.462-2.685,2.416-4.155,2.84-.724.212,0,.275-.746.254-.4-.021-.725.169-1-.064a1.722,1.722,0,0,1-.511-.657,5.889,5.889,0,0,1-.447-1.589,6.74,6.74,0,0,1,.32-2.818,17.739,17.739,0,0,1,1.3-3.073,26.8,26.8,0,0,1,2-2.882,7.918,7.918,0,0,1,.554-.636c.085-.127.171-.254.256-.36,0-.021.021-.021.021-.042.021-.021.043-.042.043-.064.043-.063.107-.148.149-.212.064-.064.107-.148.171-.212.085-.106.17-.233.256-.339l.192-.254c.043-.064.085-.106.128-.17.064-.085.149-.191.213-.275.043-.042.085-.106.128-.148a1.188,1.188,0,0,1,.128-.169,4.12,4.12,0,0,1,.32-.424c.043-.064.107-.127.149-.191a1.069,1.069,0,0,1,.149-.169.926.926,0,0,0,.128-.148c.064-.064.128-.148.192-.212.043-.064.107-.127.149-.191a1.383,1.383,0,0,1,.171-.191c.043-.042.085-.106.128-.148.021-.042.064-.064.085-.106l.17-.17c.043-.042.064-.085.107-.106l.107-.106a1.539,1.539,0,0,0-.874.254,7.9,7.9,0,0,0-2.919,1.547,35.388,35.388,0,0,0-3.495,2.924,13.214,13.214,0,0,0-3.218,4.514c-.085.212-.213.424-.3.636a12.086,12.086,0,0,0-1.023,2.437c-.085.318-.107.657-.171.975-.107.508-.234,1.017-.362,1.526a.685.685,0,0,0,.213.763.618.618,0,0,1,.234.445,3.276,3.276,0,0,0,1.172,2.14c.085.064.192.106.234.191.213.381.575.381.959.3.043-.212.064-.424.107-.657a7.284,7.284,0,0,1,1,.042,1.4,1.4,0,0,0,1.151-.169c.085-.064.256-.042.384-.042a12.844,12.844,0,0,0,2.685-1,2.851,2.851,0,0,0,.49-.275c.511-.275.959-.954,1.47-1.208a4.605,4.605,0,0,0,.852-.572c.149-.127.3-.254.426-.381a2.639,2.639,0,0,1,.788-.254.376.376,0,0,0,.106-.085h.021a16.8,16.8,0,0,1,.277,1.886c.021-.021.064-.042.085-.064.043.339.107.678.149.911a.967.967,0,0,0,.256.509,2.01,2.01,0,0,1,.618.954,1.015,1.015,0,0,0,.959.636,3.772,3.772,0,0,0,1.833.021,4.7,4.7,0,0,0,2.536-1.377c.064.042.043.042.043.042Zm9.184-.805a.066.066,0,0,1-.043.021h-.021c-.021,0-.021,0-.043.021h-.043c-.021,0-.021,0-.043.021-.021,0-.021,0-.043.021-.021,0-.021,0-.043.021h-.021c-.021,0-.043.021-.085.021h-.49c-.021,0-.021,0-.043-.021H179.7a2.626,2.626,0,0,1-.511-.3c-.021-.064-.81-.339-.852-2.267-.064-.254-.107-.509-.17-.763-.17-.763-.362-1.5-.554-2.267a3.108,3.108,0,0,1-.171-.593,24.347,24.347,0,0,0-.256-3.285,12.921,12.921,0,0,1-.107-1.568c0-.551,0-1.1-.021-1.674a.867.867,0,0,0-.341.021c-.32.106-.618.254-.938.381-.746.318-.32.233-1,.636-.213.127-1.683,1.1-1.747,1.4v.233a5.168,5.168,0,0,0,.021.53c0,.127.021.254.021.4a5.174,5.174,0,0,1,.043.593l.064.636c.021.254.043.509.085.763.021.191.043.4.064.593.021.17.043.318.064.487.021.127.021.276.043.4l.064.572c.021.127.021.233.043.36.021.191.043.382.064.551.021.212.043.424.064.615s.043.36.064.509c0,.064.021.127.021.17,0,.064.021.127.021.17v.085c.021.191.043.318.043.339a2.392,2.392,0,0,0,.341,1.144,5.219,5.219,0,0,1,.7,1.611,4.217,4.217,0,0,0,.106.551.236.236,0,0,0,.341.17c.021,0,.043.042.064.042a2.25,2.25,0,0,1-.149.233.844.844,0,0,0,1.108.381,5.7,5.7,0,0,1,.639-.106,2.273,2.273,0,0,0,.4-.127,5.67,5.67,0,0,0,3.3-1.738Zm11.017-.3a10.642,10.642,0,0,1-1.833-.3,2.735,2.735,0,0,1-1.065-.657,3.907,3.907,0,0,1-.874-1.5c-.192-.954-.533-1.632-.661-2.585-.107-.763-.149-1.187-.277-1.95-.064-.381-.107-.487-.17-1.017-.064-.551-.128-.848-.277-1.759,0-.064-.107-.615-.107-.678a8.6,8.6,0,0,1-.192-1.462c0-.572.021-1.42-.043-1.971-.426-.191-.98.254-1.3.466a16.536,16.536,0,0,1-1.726.89c-.128.064-.682.318-.788.382v.127a1.09,1.09,0,0,0,.043.233c0,.042.021.106.021.148s.021.064.021.106c0,.064.021.148.021.212,0,.042.021.085.021.127,0,.064.021.127.021.191.021.106.021.233.043.339,0,.127.021.233.021.36v.212c0,.064-.021.106-.021.169v.276a1.214,1.214,0,0,0,.021.254v.148c0,.106.021.233.021.382,0,.085.021.169.021.275a.525.525,0,0,0,.021.17.413.413,0,0,0,.021.148c0,.106.021.212.021.318,0,.085.021.148.021.233,0,.063.021.127.021.191v.106a.268.268,0,0,0,.021.127.41.41,0,0,0,.021.148.158.158,0,0,0,.021.106v.106a.268.268,0,0,0,.021.127c0,.063.021.127.021.191a.267.267,0,0,0,.021.127c0,.064.021.148.021.212s.021.106.021.169a.268.268,0,0,0,.021.127c0,.064.021.127.021.191s.021.127.021.191a.268.268,0,0,0,.021.127c0,.063.021.106.021.169s.021.127.021.191.021.106.021.169.021.148.021.212a.268.268,0,0,0,.021.127c0,.064.021.127.021.191s.021.148.021.212c0,.042.021.106.021.148,0,.085.021.169.021.254s.021.17.021.233.021.127.021.191.021.106.021.169v.106c.085.657.128,1.1.149,1.123.107.148.192.318.3.466a1.5,1.5,0,0,0,.81.805.375.375,0,0,1,.192.17c.256.445.49.89.725,1.335a3.486,3.486,0,0,0,1.087,1.208.525.525,0,0,0,.256.085,4.481,4.481,0,0,1,.533-.021c.17.042.3.212.469.212a10.347,10.347,0,0,0,1.406,0,2.587,2.587,0,0,0,1.342-.657,11.868,11.868,0,0,1,1.193-.911c.17-.148.384-.233.575-.381a1.022,1.022,0,0,0,.213-.318,2.676,2.676,0,0,0-.81-.021Zm-5.455,1.038c-.021,0-.064-.085-.106-.127a.873.873,0,0,1,.17-.064c.021,0,.043.042.085.085-.043.042-.085.106-.149.106Zm-34.84-5.3c-.17.169-.341.339-.511.53-.064.064-.107.127-.17.191-.149.17-.362.381-.575.593-.17.148-.341.318-.511.487-.085.085-.171.148-.256.233a.563.563,0,0,1-.128.106c-.554.53-1.044.975-1.087,1.038a.166.166,0,0,1-.085.085c-.277.233-.533.487-.81.7-.426.339-.852.678-1.279.954a3.332,3.332,0,0,1-.447.36,4.131,4.131,0,0,0-.7.424c-.49.318-1,.657-1.492.954a.884.884,0,0,0-.341.3.8.8,0,0,1-.4.36.66.66,0,0,0-.341.212.631.631,0,0,1-.341.254c-.384.191-.788.424-1.172.615a1.818,1.818,0,0,1-.362.106c-.064.021-.128-.021-.192.042a1.451,1.451,0,0,1-.639.3,3.466,3.466,0,0,0-.384.212,2.221,2.221,0,0,1-.938.445c-.3.021-.6.275-.895.36-.277.064-.575.3-.874.36a6.2,6.2,0,0,0-1.3.424c-.213.106-.426-.021-.618.275a.021.021,0,0,1-.021-.021c-.107-.212-.256-.021-.362.063-.128.106-.234.169-.341.127a.233.233,0,0,0-.107-.021c-.3.106-.575.212-.874.318a1.961,1.961,0,0,1-.7.233c-.341-.021-.682.254-1.023.191-.107-.021-.192.106-.256.339a2.507,2.507,0,0,1-.17.466,4.317,4.317,0,0,0-.384-.275l-.106.593c.234-.042.426-.106.639-.127.128-.021.234-.148.341-.36a.349.349,0,0,0,.49.233,1.918,1.918,0,0,0,.554-.191c.043-.021.085.021.149.042a4.632,4.632,0,0,1-1.151,1.462c-.234-.191-.49-.064-.767.064-.341.191-.682.445-1,.254-.085-.042-.234.064-.341.085a3.835,3.835,0,0,1-.469.127,2.725,2.725,0,0,0-.7.127,11.235,11.235,0,0,1-1.342.466,2.41,2.41,0,0,0-.511.17.588.588,0,0,1-.256.042c-.149-.085-.3,0-.447.127a.55.55,0,0,1-.682.148.928.928,0,0,0-.959.064,1.176,1.176,0,0,1-.533.085c-.085,0-.149-.042-.234,0a.949.949,0,0,1-.831-.042.529.529,0,0,0-.639.127c-.149-.042-.234-.127-.341-.106a1.366,1.366,0,0,0-.384.127,1.082,1.082,0,0,1-.916.064.347.347,0,0,0-.384.085c-.064.064-.171.106-.234.064a.46.46,0,0,0-.4-.042c-.213.021-.426.042-.618.042-.533-.021-1.044-.085-1.577-.106-.32-.021-.639-.212-.98-.085-.149-.148-.341-.064-.533-.064a1.871,1.871,0,0,1-.341-.042c-.32-.064-.6-.339-.959-.233-.043.021-.085-.064-.128-.064-.234-.064-.447-.233-.7-.191-.362.042-.639-.254-.98-.339-.149-.233-.384-.254-.575-.36-.128-.064-.277-.085-.4-.148a6.95,6.95,0,0,0-.852-.509,2.234,2.234,0,0,1-.49-.275c-.362-.339-.7-.657-1.065-.975-.107-.085-.213-.233-.32-.233-.17,0-.277-.148-.384-.318-.192-.275-.32-.657-.6-.742a.212.212,0,0,1-.085-.106,6.781,6.781,0,0,1-.4-.657,5.077,5.077,0,0,1-.362-.678c-.234-.657-.447-1.335-.639-2.013a2.85,2.85,0,0,1-.107-.615c-.085-.424-.085-.932-.149-1.356a10.212,10.212,0,0,1-.064-1.822c.021-.509.064-1.038.128-1.547a5.894,5.894,0,0,1,.149-.848c.043-.212.085-.424.149-.636.085-.339.149-.721.256-1.038a9.035,9.035,0,0,1,1.087-2.225,3.626,3.626,0,0,0,.362-.763,6.306,6.306,0,0,0,.192-.678c.021-.085.021-.17.043-.318a4.376,4.376,0,0,0-1.023,1.5,2.037,2.037,0,0,1-.149.382c-.4.72-.661,1.589-1.023,2.352-.256.572-.448,1.25-.661,1.886a11.549,11.549,0,0,0-.32,1.229,10.418,10.418,0,0,0-.213,1.123c-.064.784-.107,1.547-.128,2.31a13.784,13.784,0,0,0,.17,2.861,12,12,0,0,0,.895,2.988,19.437,19.437,0,0,0,1.279,1.8c0,.021.021.021.043.021.32.339.639.678.98,1.017a.464.464,0,0,0,.107.085c.107.042.192.085.384.17a3.019,3.019,0,0,0-.213-.4,3.621,3.621,0,0,0-.4-.4c-.192-.191-.362-.424-.575-.615-.192-.169-.3-.53-.511-.678a3.341,3.341,0,0,1-.447-.593.769.769,0,0,1-.17-.466.2.2,0,0,1,.085-.233c.085.127.17.276.256.4a5.409,5.409,0,0,0,1.023,1.377c.32.254.639.487.959.721a3.673,3.673,0,0,1,.6.4,6.252,6.252,0,0,0,1.6.954c.3.148.618.191.916.318a9.285,9.285,0,0,0,1.939.593,5.183,5.183,0,0,0,1.9.212c.085-.021.149.042.213.042a1.88,1.88,0,0,0,.682.085,13.061,13.061,0,0,1,1.811-.063,2.3,2.3,0,0,0,.852,0c.021,0,.043.021.085,0,.533-.042,1.065-.106,1.6-.17a.129.129,0,0,0,.085-.021c.128-.106.234-.021.341-.021a2.663,2.663,0,0,0,1-.021,3.512,3.512,0,0,1,.746-.191,6.37,6.37,0,0,0,1.087-.148,3.672,3.672,0,0,0,.6-.169c.32-.148.661-.318.959-.17.043.021.085,0,.107,0a6.462,6.462,0,0,1,1.406-.212c.043,0,.107-.042.149-.042.149-.042.277-.063.426-.106.085-.021.149,0,.234-.021.341-.085.682-.318,1.023-.381a.452.452,0,0,0,.213-.191.394.394,0,0,1,.277-.318c.213-.085.384-.148.554.085.085.127.213.085.341,0a.736.736,0,0,0,.149-.233c.107.064.17.254.341.191a.6.6,0,0,0,.384-.424c.021-.021.043-.042.064-.042.085.106.171.191.213.254.32-.085.6-.127.874-.212.447-.127.895-.318,1.342-.424.277-.064.554-.3.831-.318a2.592,2.592,0,0,0,.384-.106,1.443,1.443,0,0,1,.3-.042c-.021.17-.021.276-.043.4.043,0,.085.021.107,0,.362-.064.7-.36,1.065-.466a17.115,17.115,0,0,0,1.854-.763c.4-.169.831-.381,1.236-.572.362-.17.7-.4,1.065-.551s.7-.488,1.065-.53a.185.185,0,0,0,.149-.085c.277-.3.554-.212.831-.445.32.042.6-.318.9-.53.064-.042.107-.191.192-.36.085,0,.192.064.277-.021.149-.127.277-.191.426-.3a21.484,21.484,0,0,0,3.495-3.242,13.959,13.959,0,0,0,1.3-1.716,21.871,21.871,0,0,0,1.683-2.776c.17-.381.362-.742.554-1.1.234-.424.469-.869.7-1.314a1.285,1.285,0,0,1-.17.17c0,.064-.064.127-.128.191Zm-31.2-8.773c.043.042.085.042.149.064a1.857,1.857,0,0,0,.682.042,13.331,13.331,0,0,1,1.833-.148c.064,0,.128-.021.192-.021a.193.193,0,0,0,.107-.021.8.8,0,0,0,.213-.021c.043,0,.085-.021.128-.021v-.021l.021-.021c.085-.042.192-.106.32-.17a4.989,4.989,0,0,1,.469-.212c.192-.085.4-.191.618-.276.277-.127.554-.254.874-.381.192-.085.4-.191.618-.275.234-.106.447-.212.682-.3l.7-.318c.341-.148.639-.3.938-.424q.384-.191.7-.318a3.213,3.213,0,0,0,.384-.191c.128-.064.234-.127.362-.191.4-.212.81-.4,1.193-.593a5.459,5.459,0,0,1,.511-.233c.469-.212.938-.424,1.406-.614.085-.042.149-.064.234-.106.107-.042.213-.085.341-.148.149-.064.3-.127.469-.212.213-.085.426-.191.639-.275l.575-.254c.149-.064.277-.127.4-.191.107-.042.213-.085.3-.127a6.342,6.342,0,0,1,1.215-.466c.192-.042.384-.106.575-.148a3,3,0,0,0,.788-.233c.469-.275.938-.254,1.428-.487.724-.318,1.428-.615,2.152-.869a25.429,25.429,0,0,1,3.154-1.229.453.453,0,0,0,.149-.064c.17-.106.213.148.341.275s.17,1.038.32.975a1.937,1.937,0,0,1,.852-1c.149-.085.384-1.208.511-1.377.362-.466.618-2.119,1-2.5a.425.425,0,0,0,.085-.169,15.52,15.52,0,0,0,.682-2.056c.064-.233.32-.615.256-.763-.085-.212.277-1.25.128-1.187a9.868,9.868,0,0,0-1,.72c-.213.17-.426.424-.6.318-.149-.085-.511.36-.661.4l-.959.318a1.534,1.534,0,0,0-.469.212,1.138,1.138,0,0,1-.554.276c-.17.021-1.833.72-2,.742-.4.085-.81.191-1.215.254a1.264,1.264,0,0,0-1.044.53c-.085-.042-.149-.127-.213-.106-.256.127-.511-.127-.767.191-.021.021-.043.021-.085.021-.341-.021-.682.254-1.023.276-.064,0-.128.064-.192.127a.222.222,0,0,1-.277.085c-.234-.127-.469,0-.724.106a1.888,1.888,0,0,1-.7.254.951.951,0,0,0-.426.191,2.738,2.738,0,0,0-.426.233c-.213.127-.426.339-.639.254-.277.254-.533.148-.767.148-.17,0-.341-.127-.533.191-.021.042-.085.042-.107.042a2.905,2.905,0,0,0-.426.042.685.685,0,0,0-.426.212c-.149.212-.277.042-.426.191a.31.31,0,0,1-.383.085c-.107-.042-.213,0-.3.17-.107.191-.192.17-.3.17-.341.042-.682.064-1.023.106a.343.343,0,0,0-.234.106.73.73,0,0,1-.7.424c-.064.021-.128.106-.192.148a2.715,2.715,0,0,1-.575.339,1.6,1.6,0,0,0-.511.3c-.085.064-.213.17-.277.127-.341-.254-.788.148-1.129-.021-.043-.021-.107.042-.149.064-.106.085-.256.276-.341.233-.128-.042-.256.042-.384.064a5.22,5.22,0,0,0-.554.127,3.318,3.318,0,0,1-.746.148,1.02,1.02,0,0,0-.426.085,3.981,3.981,0,0,1-.831.212,2.955,2.955,0,0,1-.6.021c-.192.212-.32.36-.447.509a10.508,10.508,0,0,0-.469,1.674,2.923,2.923,0,0,1-.3.572,1.583,1.583,0,0,0-.192.318c-.4.954-.938,1.717-1.321,2.713-.021.085-.085.127-.128.191a6.834,6.834,0,0,0-.618,1.314c-.128.445-.064.721.085.848Zm19.029-20.683c-2.046.784-9.1,3.242-11.635,4.09l-.192.911c2.664-.869,9.291-3.221,11.315-4.026l.511-.975Zm74.6,20.323a5.657,5.657,0,0,0,1.321.7.9.9,0,0,1,.3.191c.384.318.469.318.767-.085a1.023,1.023,0,0,0,.149-.551c.021-.487.128-.593.554-.657.49-.064.639-.276.6-.869,0-.063,0-.148.021-.17.234-.212.107-.36-.043-.551-.128-.148-.213-.36-.341-.53-.149-.085-.362-.127-.448-.254a2.271,2.271,0,0,0-.725-.551.555.555,0,0,1-.341-.4.832.832,0,0,0-.32-.445,6.908,6.908,0,0,0-1.279-.954.675.675,0,0,1-.256-.17,1.456,1.456,0,0,1-.149-.318,1.907,1.907,0,0,0-.746.615c-.511.657-.831,1.462-1.321,2.14-.149.233-.277.509-.426.721-.17.212-.149.53-.426.7a.5.5,0,0,0-.107.53c.575.148.575.148.938-.212a.975.975,0,0,1,.682.169c.575.318,1.108.615,1.6.954Zm-31.516-4.048-.234-.042.064-.212a2.135,2.135,0,0,0,.085-.657c0-1.611-.682-2.183-1.257-2.183a2.211,2.211,0,0,0-2.11,2.1c0,.827.554,1.293,1.875,1.526l.448.085-.362.275a18.2,18.2,0,0,1-3.921,1.886,6.545,6.545,0,0,0,1.257.148,8.24,8.24,0,0,0,3.409-2.1l.085-.106.128.042a2.576,2.576,0,0,1,.3.106l.554-.763a.631.631,0,0,0-.32-.106Zm-.533-.233-.064.17-.171-.042c-1.875-.381-2.259-1-2.259-1.441s.575-.89,1.172-.89a1.752,1.752,0,0,1,1.385,1.844,1.072,1.072,0,0,1-.064.36Zm11.571,25.472c2.259-.721,7.905-2.755,9.631-3.433l.448-.805c-1.747.657-7.735,2.755-9.909,3.475l-.17.763Zm18.325-7.841h-.043a.079.079,0,0,0-.064.021c-.021,0-.043.021-.064.021s-.064.021-.085.021c-.043,0-.085.021-.128.021h-.725a1.535,1.535,0,0,1-.874-.445,1.568,1.568,0,0,1-.213-.551c-.192-.593-.4-1.187-.554-1.822-.192-.848-.341-1.716-.49-2.585-.213-1.144-.447-2.289-.554-3.475a1.8,1.8,0,0,0-.085-.466,2.79,2.79,0,0,1-.171-.7c-.064-.53-.17-1.059-.213-1.589-.043-.551-.383-2.564-.426-2.988a3.254,3.254,0,0,0-.106-.657,2.519,2.519,0,0,1-.149-.89c-.064-.805-.085-1.611-.149-2.416-.064-.678.17-4.472.149-5.171a3.65,3.65,0,0,0-.064-.678,1.631,1.631,0,0,0-.149-.339c-.49.042-1.364.869-1.769,1.038-.469.212-1.641,1.1-2.131,1.271-.384.127.384.466.341.827-.043.381-.064,1.06-.064,1.78.021.4.043.826.085,1.293-.277,1.4-.852,4.154-1,5.086a3.573,3.573,0,0,1-.085.466v.064a.127.127,0,0,1-.021.085c-.021.064-.021.127-.043.212,0,.064-.021.106-.021.169-.043.212-.064.4-.107.615-.021.064-.021.127-.043.191,0,.042-.021.064-.021.106-.021.064-.021.106-.043.17-.064.3-.107.572-.17.827a.922.922,0,0,1-.021.106c-.043.148-.064.3-.106.445-.043.212-.107.424-.149.615,0,.042-.021.085-.021.127,0,.021-.021.064-.021.085,0,.042-.021.064-.021.106s-.021.064-.021.106c-.043.169-.085.318-.128.487a.911.911,0,0,1-.021.106c-.021.042-.021.085-.043.127,0,.021-.021.064-.021.085-.064.233-.128.445-.213.678,0,.021-.021.064-.021.085,0,.042-.021.064-.021.106a4.766,4.766,0,0,1-.17.509c0,.021-.021.042-.021.063-.064.212-.149.4-.213.615-.021.042-.021.064-.043.106,0,.021-.021.042-.021.064a5.889,5.889,0,0,1-.213.551c-.021.085-.064.169-.085.233-.043.127-.107.254-.149.36s-.085.191-.128.3a1.28,1.28,0,0,0-.106.254c-.064.127-.107.233-.171.36-.021.064-.064.127-.085.191-.043.085-.085.191-.128.276a.533.533,0,0,1-.085.148.074.074,0,0,1-.021.042c0,.021-.021.021-.021.042a.074.074,0,0,1-.021.042,12.825,12.825,0,0,1-2.387,3.327l-.043.043c-.021.021-.043.042-.064.042-.916.784-1.577-.339-1.918-.742a1.757,1.757,0,0,1-.49-.763,5.871,5.871,0,0,1-.384-2.5,14.577,14.577,0,0,1,.959-4.344c.277-.721.554-1.42.874-2.119.021-.042.043-.106.064-.148v-.021a.021.021,0,0,1,.021-.021v-.021c0-.021.021-.021.021-.042.021-.021.021-.064.043-.085a.16.16,0,0,0,.043-.085.92.92,0,0,0,.085-.148.446.446,0,0,1,.085-.127c.043-.064.085-.148.128-.212.021-.042.043-.064.064-.106a1.874,1.874,0,0,0,.128-.212.16.16,0,0,0,.043-.085l.085-.127a1.487,1.487,0,0,0,.128-.191c.043-.042.064-.106.106-.148a2.762,2.762,0,0,1,.256-.3c.043-.064.107-.106.149-.17.064-.085.149-.148.213-.233l.128-.127a.924.924,0,0,1,.149-.127l.128-.127c.043-.042.085-.064.128-.106.064-.064.128-.106.192-.17.064-.042.128-.106.192-.148.043-.021.085-.064.128-.085a1.293,1.293,0,0,0,.213-.148,1.191,1.191,0,0,0,.17-.106c.064-.042.128-.064.192-.106.043-.021.107-.042.149-.064a2.5,2.5,0,0,1,.234-.106c.064-.021.149-.064.213-.085l.192-.064a.5.5,0,0,1,.171-.042.626.626,0,0,1,.192-.042.079.079,0,0,0,.064-.021h.021a3.669,3.669,0,0,0-1.172-.3,2.222,2.222,0,0,0-1.023.212,20.818,20.818,0,0,0-2.557.742c-.533.36-1.108.7-1.662,1.038a4.58,4.58,0,0,0-1.534,1.526,3.028,3.028,0,0,0-.575,1.865,2.437,2.437,0,0,1-.107.763c-.234.784-.49,1.568-.7,2.352a5.139,5.139,0,0,0-.128.827c.277.4.064.826-.021,1.25a.708.708,0,0,0,.021.551.134.134,0,0,1,0,.127c-.3.3-.128.53.021.784,0,.021.021.021.021.042h-.043c.128.381.064.826.213,1.208.085.275.192.445.469.487a.812.812,0,0,1,.362.254c.277.275,1.342.721,1.47,1.1a1.053,1.053,0,0,0,.511.572,5.128,5.128,0,0,0,.852.36,4.164,4.164,0,0,0,1.257-.021l.107-.021a4.758,4.758,0,0,0,1.151-.36,11.421,11.421,0,0,0,2.962-2.331,2.418,2.418,0,0,0,.234-.233,19.324,19.324,0,0,0,2.024-2.734,2.132,2.132,0,0,0,.447-1.166c.149,0,.277-.064.3-.212.043-.254.043-.487.085-.742,0-.021.788-2.479.831-2.543,0-.148.021-.318.021-.466.021.275.043.445.043.466a4.567,4.567,0,0,0,.32,1,.845.845,0,0,1,.064.4,3.056,3.056,0,0,0,.128.636c.021.233.021.487.043.763a4.593,4.593,0,0,0,.49.042,8.061,8.061,0,0,0,.234,1.081c.021.042.064.106.085.148.128.276.107.657.426.848a.3.3,0,0,1-.043.085c-.107.106-.043.212,0,.318.149.509.3,1.017.447,1.5a7.291,7.291,0,0,1,.3,1.123,6.569,6.569,0,0,0,.959,2.543c.043.064.128.148.192.148a1.593,1.593,0,0,0,1.513-.021,8.309,8.309,0,0,0,.9-.4,13.323,13.323,0,0,0,1.769-1.335Zm-20.669-5.383c0,.021-.021.021-.043.021,0-.021-.021-.021-.021-.042.021-.021.043-.021.064-.042v.064Zm1.492,4.154-.043-.042a.3.3,0,0,1,.043-.127c.021.021.064.042.064.063C192.55,421.561,192.528,421.582,192.507,421.624Zm10.015-9.557c-.043-.021-.064-.085-.085-.127a.355.355,0,0,1,.043-.106c.064.042.128.064.213.127-.085.064-.149.127-.17.106Zm2.088,2.543.234-.127v.233Zm.81,2.9c-.021,0-.043-.064-.043-.085.043-.021.064-.043.107-.021.021,0,.021.064.043.085A.92.92,0,0,0,205.42,417.513Zm.852,2.479a.042.042,0,1,1,0-.085c.043,0,.064.021.107.042C206.336,419.971,206.315,419.993,206.273,419.993Zm.3-4.281-.043-.042c.021-.042.043-.064.043-.106l.043.042C206.613,415.648,206.571,415.67,206.571,415.712Zm.6,7.481-.064-.064c.021-.021.021-.042.043-.042s.021.021.043.042c-.021.042-.021.042-.021.064Zm.49-4.662v-.042l.043.021-.043.021Zm.426,4.938c-.064-.042-.107-.085-.17-.127V423.3a.361.361,0,0,1,.106-.042,1.185,1.185,0,0,1,.128.17c-.021,0-.064.042-.064.042Zm.277-4.959c-.021-.021-.043-.064-.064-.085,0-.021.021-.042.021-.064.021.021.064.042.085.064A.16.16,0,0,1,208.361,418.509Zm.639,5.87a1.693,1.693,0,0,1-.171-.339.806.806,0,0,1,.149-.17c.021.042.085.064.085.106-.021.127-.043.276-.064.4Zm14.213-1.335a3.129,3.129,0,0,1-.4.148,2.553,2.553,0,0,0-1.129.551,5.768,5.768,0,0,1-.661.424c-.384.212-.469.212-.788-.106a1.023,1.023,0,0,1-.192-.233,2.025,2.025,0,0,0-.256-.339,1.386,1.386,0,0,0-.32-.191c0-.191.043-.339-.021-.424a9.191,9.191,0,0,1-.6-1.314c-.043-.106-.064-.233-.128-.276a1.822,1.822,0,0,1-.469-.869c-.149-.339-.277-.7-.447-1.038-.107-.233-.3-.4-.384-.636-.128-.4-.511-.636-.575-1.1-.021-.106-.149-.212-.234-.276a.832.832,0,0,1-.3-.551c-.064-.36-.149-.72-.213-1.081a15.566,15.566,0,0,1-.3-1.738c-.064-.678-.277-1.314-.384-1.971a1.944,1.944,0,0,0-.064-.593c-.149.021-1.129.763-1.3.826a20.27,20.27,0,0,0-1.875,1.06c-.17.615.32.212.384.7a.192.192,0,0,1,.128.191c0,.276.021.551.021.805v.191a.359.359,0,0,0,.021.148c0,.064.021.148.021.212s.021.148.021.212c0,.085.021.169.021.254,0,.064.021.127.021.191,0,.042.021.106.021.148,0,.064.021.127.021.17,0,.064.021.106.021.17s.021.127.021.169c.021.064.021.148.043.212s.021.127.043.212a.5.5,0,0,0,.043.169c.021.064.021.148.043.212s.021.127.043.169c.021.064.021.127.043.191a.9.9,0,0,1,.043.233,2612.21,2612.21,0,0,1,.085.424c.021.064.043.148.064.212a.616.616,0,0,1,.043.191c.021.042.021.106.043.148a.617.617,0,0,1,.043.191,1.327,1.327,0,0,1,.043.148c0,.021.021.064.021.085s0,.021.021.042v.042a50.983,50.983,0,0,0,2.195,5.934l.064.127c.064.169.107.318.3.4a.362.362,0,0,1,.448-.17c-.149.3,0,.551.021.805a4.466,4.466,0,0,1,.447.212.526.526,0,0,0,.554.042,5.023,5.023,0,0,0,.788-.3c.256-.17.554-.127.81-.318a5.168,5.168,0,0,1,.767-.381,3.262,3.262,0,0,0,.575-.36,14.814,14.814,0,0,1,1.492-1.081,4.374,4.374,0,0,0,1.129-1.208.276.276,0,0,0,.064-.424Zm-6.606,3.009c-.021-.042-.021-.106-.043-.148.021,0,.064-.021.085-.021s.021.021.043.021l-.064.064c0,.021-.021.063-.021.085Zm.277.72c-.149-.064-.17-.148-.234-.615.256.212.4.36.554.488a.215.215,0,0,1-.32.127Zm.575.085a.074.074,0,0,1-.043-.021c0-.042.021-.085.021-.127a.075.075,0,0,1,.043.021A.267.267,0,0,0,217.46,426.859Zm.554-1.526-.043-.042a.163.163,0,0,1,.085-.042l.043.042C218.078,425.29,218.056,425.312,218.014,425.333Zm.6-3.221-.064-.064c0-.021.021-.042.021-.064a.3.3,0,0,0,.085.064A.262.262,0,0,1,218.61,422.112Z" transform="translate(-104.361 -389.18)" fill="#389741"/>
  </g>
  <path id="Path_2553" data-name="Path 2553" d="M6.211-5.714,7.6-6.671H3.094v-3.571H6.823L8.213-11.2h-5.3l-1.391.957V-.562h5.3l1.391-.957H3.094V-5.714Zm7.06.912L15.9-8.16H14.632L12.676-5.531l-2.415-2.9-1.268.881,2.72,3.283L8.825-.577l1.268.015L12.309-3.54l2.7,3.252,1.268-.9Zm8.756-3.556a3.225,3.225,0,0,0-2.6,1.246,2.789,2.789,0,0,1,1.436-.334,2.6,2.6,0,0,1,2.155,1.033,3.793,3.793,0,0,1,.825,2.447,3.542,3.542,0,0,1-.856,2.508,3.709,3.709,0,0,0,1.5-1.383A3.546,3.546,0,0,0,25.1-4.832a3.634,3.634,0,0,0-.9-2.538A2.829,2.829,0,0,0,22.028-8.358Zm-2.6.2H17.963v11.4H19.43v-3.8l2.292-.015,1.268-.881H19.43ZM33.55-5a2.625,2.625,0,0,0-.535-2.386,2.645,2.645,0,0,0-2.063-.942,2.823,2.823,0,0,0-2.262,1.17,2.573,2.573,0,0,1,2.445.091A2.426,2.426,0,0,1,32.358-5h-3.27l-1.268.881a3.075,3.075,0,0,1-.061-.684,3.184,3.184,0,0,1,.932-2.356,3.574,3.574,0,0,0-2.216,3.222,3.163,3.163,0,0,0,1.1,2.553,3.845,3.845,0,0,0,2.613.973,3.747,3.747,0,0,0,2.9-1.307,3.61,3.61,0,0,1-1.559.41,3.825,3.825,0,0,1-2.4-.76A3.272,3.272,0,0,1,27.82-4.118l4.462.015Zm6.907-2.553a1.853,1.853,0,0,0-1.543-.76,2.3,2.3,0,0,0-2,1.216,1.653,1.653,0,0,1,2.185.5ZM35.445-8.16h1.467v7.6H35.445ZM45.562-1.291c-1.207,0-1.987-1.064-1.987-2.705V-7.264h1.8l1.268-.9H43.575V-9.179l-2.735,1.9h1.268V-3.13a2.813,2.813,0,0,0,.734,1.991,2.383,2.383,0,0,0,1.773.775,2.668,2.668,0,0,0,1.864-.79A3.174,3.174,0,0,0,46.8-1.61,2.879,2.879,0,0,1,45.562-1.291Z" transform="translate(73.2 57.494)" fill="#389741"/>
</svg>
