<svg xmlns="http://www.w3.org/2000/svg" width="187.781" height="75.89" viewBox="0 0 187.781 75.89">
  <g id="Pattern_-_7" data-name="Pattern - 7">
    <g id="Group_9346" data-name="Group 9346" transform="translate(503.103 246.701) rotate(180)">
      <path id="Path_60285" data-name="Path 60285" d="M326.823,279.081l2-2.049,2.618,2.684-2,2.049Z" transform="translate(-4.549 -42.015)" fill="#009aac"/>
      <path id="Path_60286" data-name="Path 60286" d="M496.166,184.3l2-2.048,2.618,2.674-2,2.058Zm9.939,55.054c-.493-.72-.095-2.684-.218-3.537a25.038,25.038,0,0,1-.256-5.055,37.987,37.987,0,0,0,.36-4.116h-3.708v19.043c-.086,0-9.01,0-11.267-.067v.067a45.746,45.746,0,0,0-6.639,0v-.161a1.308,1.308,0,0,1-.54.123h-.057v3.718H506.1c.066-2.77-.256-6.686,0-10.015Zm-173.632-.91c0,.142-.076,5.577,0,5.51h6.459v-3.794a6.864,6.864,0,0,1-2.257-.152c-.057.066-.085.19-.18.152a.13.13,0,0,0-.085-.152V234.6h-5.69v-2.238a36.263,36.263,0,0,0-3.661,0s.057,4.1,0,6.079Z" transform="translate(-4.642 -4.524)" fill="#009aac"/>
      <path id="Path_60287" data-name="Path 60287" d="M601.118,188.308c0-.123.066-5.586,0-5.51h-6.373v3.794a6.853,6.853,0,0,1,2.258.161c.057-.066.085-.19.18-.161a.149.149,0,0,0,.085.161v5.387h5.69v2.229a36.443,36.443,0,0,0,3.67,0s-.067-4.1,0-6.089Z" transform="translate(-110.524 -4.741)" fill="#009aac"/>
      <path id="Path_60288" data-name="Path 60288" d="M317.9,183.653c.237.418,0,6.364,0,6.81.18.066.123.19,0,.285.227,1.47.076,4.4.123,5.624h3.7V177.328c.085,0,9.009,0,11.266.057v-.057a48.472,48.472,0,0,0,6.639,0v.123a1.065,1.065,0,0,1,.541-.123h.057v-3.794h-5.785c-3.12,0-6.326.55-9.4.218a25.72,25.72,0,0,0-7.151-.18c0,1.65,0,3.31.057,4.96.028,1.129-.54,4.23-.047,5.121Zm22.258,58.535a1.263,1.263,0,0,1-.531-.123v.123a45.92,45.92,0,0,0-6.639,0v-.067c-2.209.067-11.162.067-11.266.067V223.145h-3.708a51.648,51.648,0,0,1-.114,5.6c.114.086.18.209,0,.266,0,.445.246,6.468,0,6.819.218,3.329-.066,7.264,0,10.091H340.22v-3.708h-.057Zm139.982-64.86a1.029,1.029,0,0,1,.531.123v-.123a48.668,48.668,0,0,0,6.639,0v.057c2.21-.057,11.162-.057,11.267-.057v19.044h3.7c.057-1.223-.1-4.154.123-5.624-.123-.095-.18-.218,0-.285,0-.455-.247-6.44,0-6.81-.218-3.329.057-7.264,0-10.091H480.089v3.727h.057Z" transform="translate(-0.942 -1.026)" fill="#009aac"/>
      <path id="Path_60289" data-name="Path 60289" d="M326.839,184.9l2.618-2.684,2,2.049-2.618,2.684Z" transform="translate(-4.555 -4.512)" fill="#009aac"/>
      <path id="Path_60290" data-name="Path 60290" d="M357.67,238.712c-7.871-8.6-16.587-16.635-24.658-25.228,8.09-8.592,16.806-16.625,24.658-25.217,8.26,8.393,16.2,16.824,24.469,25.217-8.27,8.393-16.246,16.824-24.469,25.228Zm28.756-24.923c-.1-.408-.361-.835-.456-1.186a2.8,2.8,0,0,0-.588-1.28,52.76,52.76,0,0,0-3.9-3.945l-3-3.082q-5.69-5.89-11.381-11.675a8.83,8.83,0,0,0-1.508-1.062,17.948,17.948,0,0,1-3.092-3.48,16.059,16.059,0,0,0-2.617-3c-.161-.1-2.485-1.945-2.343-2.105-10.034,9.911-17.735,18.475-28.167,28.357l.948,2.152-1.157,2.143c10.432,9.92,18.342,18.456,28.4,28.4.256.209,14.482-14.614,15.781-15.99q3.9-4.069,7.834-8.1l3.917-3.992c.55-.56,1.289-1.015,1.347-1.8a1.128,1.128,0,0,0-.029-.36ZM496.1,242.41l2.627-2.675,2,2.049-2.617,2.684Zm-1.48-28.926c-8.09,8.593-16.806,16.626-24.658,25.228-8.26-8.4-16.2-16.834-24.468-25.228,8.27-8.393,16.246-16.824,24.468-25.217,7.815,8.592,16.531,16.625,24.62,25.217ZM469.96,183c-9.484,9.237-18.446,18.883-27.731,28.262l1.366,2.219-1.669,1.764c9.285,9.683,18.465,19.385,28.1,28.784a6.387,6.387,0,0,1,2.067-1.688c2.845-3.073,5.69-6.155,8.63-9.133.389-.389.787-.768,1.167-1.186s.54-.825.892-1.052a1,1,0,0,0,.285-.209.8.8,0,0,0,.094-.266c.228-.673.949-.872,1.442-1.252a24.144,24.144,0,0,0,2.039-2.143l5.861-5.946c.588-.588,5.207-5.909,5.548-5.69l-1.9-1.9,1.84-2.248c-10.319-10.167-17.963-18.38-28-28.347ZM336.37,186.56c.085,0,.123.094.18.152a7.094,7.094,0,0,1,2.247-.152v-3.794h-6.373c-.1-.076,0,5.386,0,5.51h-5.539c.085,1.992,0,6.089,0,6.089,1.214.095,2.437,0,3.661,0v-2.238h5.69v-5.378a.152.152,0,0,0,.133-.189Z" transform="translate(-4.574 -4.729)" fill="#009aac"/>
      <path id="Path_60291" data-name="Path 60291" d="M506.967,253.665c-.086,0-.123-.085-.181-.152a6.839,6.839,0,0,1-2.247.152v3.794h6.373c.114.076,0-5.377,0-5.5h5.519c-.085-1.992,0-6.079,0-6.079-1.214-.095-2.437,0-3.661,0v2.238h-5.69V253.5a.147.147,0,0,0-.114.161ZM373.4,224.957c-.095-.171-.2-.768-.474-.531,0,0-.948-1.072-.948-1.09l1.508-1.593,1.5,1.593Zm.086,6.856-1.508-1.574.948-1.09c.275.256.379-.361.474-.531l1.556,1.622Zm5.1-6.639c.095-.152,1.669-1.9,1.65-1.9-2.257-2.447-4.808-4.315-6.838-6.856,0,0-2.845,2.987-2.911,3-.19.2-.256.578-.493.531-.948,1.129-2.314,2.257-3.263,3.424a27.793,27.793,0,0,0,2.485,2.106,2.878,2.878,0,0,0,1.157.711,1.393,1.393,0,0,1,.4.123.3.3,0,0,1,.143.37c-.143.275-.636.114-.863.237s-.323.332-.474.474c-.379.408-.787.768-1.176,1.185-.1.1-1.707,1.66-1.669,1.7.948,1.167,2.248,2.314,3.263,3.424.237,0,.3.332.493.531l2.911,3c2.03-2.541,4.6-4.41,6.838-6.856a16.129,16.129,0,0,0-1.9-2.078c-.427-.512-.844-1.005-1.309-1.47a19.512,19.512,0,0,0,1.309-1.469.229.229,0,0,0,.247-.181Z" transform="translate(-20.337 -18.041)" fill="#009aac"/>
      <path id="Path_60292" data-name="Path 60292" d="M478.114,235.386c-.9-.948-2.125-2.087-3.044-3.149l-.066.057c-3.794-4.125-7.587-8.071-11.532-12.044,3.907-3.965,7.748-7.91,11.532-12.035l.066.057c.948-1.072,2.143-2.229,3.044-3.149,4.211,4.865,10.176,10.006,14.852,15.174-4.638,5.093-10.641,10.205-14.852,15.108Zm-.948,2.03a.465.465,0,0,1-.275-.114.53.53,0,0,0-.114.4s-.294-.237-.323-.341.18-.161.2-.238l-.749-.427a.731.731,0,0,1,.152-.294c.048-.038.2,0,.218.066s-.085.142-.1.19c.275.057.427,0,.711.066a.608.608,0,0,1,.285.693Zm19.081-19.176A156.249,156.249,0,0,1,485.4,206.66a5.205,5.205,0,0,0-1.309-1.28c-.6-.351-1.394-.427-1.9-.948-.313-.3-.4-.768-.645-1.129a30.7,30.7,0,0,0-3.462-3.48q-9.186,9.012-18.019,18.37l1.233,2.039-1.537,1.736c4.4,4.619,13.277,13.761,18.266,18.636,6.506-6.43,11.532-11.732,18.076-18.276l-1.67-2.048ZM371.07,229.9c-.73.778-1.46,1.584-2.191,2.409l-.048-.066c-.948,1.072-2.162,2.209-3.063,3.158-4.211-4.865-10.214-10-14.851-15.174,4.675-5.159,10.641-10.271,14.851-15.174.9.948,2.125,2.078,3.045,3.149l.066-.066c3.794,4.135,7.587,8.071,11.532,12.044C377.253,223.446,374.18,226.585,371.07,229.9Zm-5.216-30.064c-6.544,6.449-11.466,11.665-18.019,18.238l.617,2.152-.948,1.821c6.544,6.572,11.8,12.121,18.371,18.569,5.3-5.15,14.036-14.226,18.19-18.569l-1.223-1.821.948-2.134C379.6,213.773,371.155,205,365.853,199.841Z" transform="translate(-12.729 -11.475)" fill="#009aac"/>
      <path id="Path_60293" data-name="Path 60293" d="M559.537,224.427c-.275-.256-.379.36-.474.531l-1.565-1.622,1.508-1.593,1.5,1.593Zm-.559,7.388-1.5-1.593,1.565-1.622c.095.171.189.768.474.531l.948,1.09Zm-1.622-4.742c-.085,0-.048-.285-.1-.342-.294.152-.569.332-.853.484,0-.086-.2-.266-.2-.332a.316.316,0,0,1,.2-.18c.048,0,.095.18.123.209.218-.237.218-.445.484-.673a.675.675,0,0,1,.75.066.494.494,0,0,1-.256.209.553.553,0,0,0,.332.379c-.076.066-.351.218-.474.18Zm4.96-.313c.066-.076,3.367-3.367,3.414-3.452-.948-1.167-2.248-2.314-3.262-3.424-.238,0-.3-.332-.493-.531l-2.912-3.026c-2.03,2.542-4.6,4.41-6.838,6.857.152.133,1.593,2.048,1.9,2.077.427.513.844,1.006,1.309,1.47a19.655,19.655,0,0,0-1.309,1.47c-.427.161-1.574,1.745-1.9,2.077,2.258,2.447,4.808,4.315,6.838,6.857l2.912-3c.19-.2.256-.578.493-.531.948-1.129,2.314-2.258,3.262-3.424-.038-.057-3.357-3.357-3.414-3.424Z" transform="translate(-93.706 -18.004)" fill="#009aac"/>
      <path id="Path_60294" data-name="Path 60294" d="M479.9,228.672c-3.888,4.619-10.7,11.04-14.605,15.307-11.5-11.751-23.1-23.349-34.55-35.223q4.012-4.077,8-8.2l4.078-4.173a29.527,29.527,0,0,1,3.386-2.8c.54-.427.693-1.261,1.09-1.792a26.233,26.233,0,0,1,2.485-2.542l5.112-5.15,10.432-10.546c11.106,11.769,23.388,23.729,34.939,35.2-6.809,6.573-13.221,13.619-20.3,19.916Zm-27.627,8c-.18,0-6.326,6.7-6.639,6.364v-.057c-.238-.18-.455-.4-.693-.578a.607.607,0,0,1,.095-.123,7.371,7.371,0,0,1-2.058-2.125c-.541-.123-.569-.882-1.138-.948-.238-.655-.863-.863-1.167-1.47,0,.057-.085.085-.114.123a8.429,8.429,0,0,0-.948-1.1l.522-.578c2.257-2.238,4.078-3.794,6.126-5.994,1.736,2.447,4.268,4.277,6.184,6.572Zm-15.279-2.845c-1.764-1.65-7.046-7.4-9.009-9.484L418.5,233.7c-.607-.313-.816-1.167-1.4-1.262-.123-.085-.066-.332-.218-.427-.541-.218-.711-1.005-1.252-1.005-.948-1.546-2.741-2.447-3.87-3.907l15.535-16.123a.1.1,0,0,0,.095-.066c1.053,1.062,2.134,2.1,3.149,3.2a15.879,15.879,0,0,1,2.172,2.484c.123.209.2.446.323.645.332.541.948.806,1.365,1.3.18.227.3.484.484.711.493.578,1.233.626,1.773,1.081a27.25,27.25,0,0,1,1.9,2.049l4.742,4.856q-3.17,3.25-6.193,6.639Zm-9.759,8.991a82.539,82.539,0,0,1-5.918-6.24,62.531,62.531,0,0,1,6.477-6.515c1.812,2.087,4.031,4.372,5.909,6.3Zm-18.019,0-6.307-6.259c2.134-1.9,4.3-4.287,6.307-6.355,2,2.068,4.163,4.477,6.307,6.355Zm-7.663-10.745c-.152.095-.095.342-.209.427-.6.095-.806.948-1.413,1.261l-7.587-7.512-1.745,1.47-1.9-1.536q-3.541,3.876-7.255,7.587c-2.03-2.181-4.04-4.42-6.174-6.639,5.254-5.387,10.432-10.887,15.819-16.294,0,0,.057.057.094.057,5.008,5.255,10.508,10.973,15.535,16.123-1.128,1.461-2.95,2.352-3.87,3.908-.54,0-.721.806-1.262,1.024Zm-3.12,6.639c-1.015.294-1.717,1.394-2.418,2.115a4.06,4.06,0,0,1,.645-.948c-.086-.076-.266-.1-.342-.2s0-.218,0-.313a2.368,2.368,0,0,0,1.442-.645.487.487,0,0,0-.209-.275l.759-.711-.256.351c.161,0,.218-.1.3-.228s.123,0,.142,0,.133.076.114.114a2.774,2.774,0,0,0-.161.74Zm-7.237,4.1-6.468-6.421c1.9-1.9,4.1-4.22,5.918-6.3a61.276,61.276,0,0,1,6.468,6.477l-1.9,2.143a46.44,46.44,0,0,1-4.021,4.1Zm-13.277-4.969a.491.491,0,0,1-.114-.123c-.3.616-.948.825-1.167,1.47-.569,0-.607.768-1.138.948a7.511,7.511,0,0,1-2.115,2.143,1,1,0,0,0,.086.123c-.238.18-.446.4-.693.578v.057c-.265.332-6.392-6.373-6.639-6.364l-.114.123c1.9-2.3,4.438-4.125,6.174-6.572,2.048,2.191,3.879,3.727,6.136,6.041l.521.569a8.166,8.166,0,0,0-.948,1.063Zm-24.791,6.079c-11.115-11.732-23.415-23.7-34.91-35.167,11.5-11.475,23.795-23.435,34.91-35.185,11.514,11.713,23.094,23.32,34.512,35.185-11.418,11.865-23,23.473-34.512,35.167Zm-35.185-36.6c0-.085.265-.142.265-.237s-.294-.228-.294-.228.256-.284.256-.407-.152-.285-.19-.427c.19,0,.285.17.427.275a8.416,8.416,0,0,1,.711-.617s.067-.057.114,0,.171.237.238.3a1.865,1.865,0,0,0-.873.427.473.473,0,0,0,.3.076c-.114.464-.512.635-.749,1.024-.085-.085-.266-.133-.256-.19Zm28.452-30.993a10.867,10.867,0,0,0,.806-.768c.161-.189.341-.522.578-.626a1.413,1.413,0,0,0,.143.484,4.4,4.4,0,0,1,.142-.5l.057-.1a.258.258,0,0,1,.351,0,1.02,1.02,0,0,1-.228.569,4.352,4.352,0,0,1-.465.645,3.921,3.921,0,0,1-.635.493l-.265.123a1.324,1.324,0,0,1-.673,0,.406.406,0,0,1,.19-.313Zm2.314-1.176a.677.677,0,0,1,.142-.143.54.54,0,0,0,.114-.275h.047c.076-.123.285-.531.569-.247a1.973,1.973,0,0,1-.673.892.176.176,0,0,1-.2,0,.161.161,0,0,1,0-.17Zm17.431,5.69c.161,0,.54-.484.635-.578l1.4-1.442c1.09-1.1,2.152-2.314,3.329-3.338a5.812,5.812,0,0,1,.8-.73c.617-.37,1.072.777,1.4,1.2a5.272,5.272,0,0,0,1.271,1.119c.323.209.626.427.948.664,0,0,.683.73.683.569.237.644.863.863,1.167,1.47,0-.057.085-.095.114-.123a8.475,8.475,0,0,0,.948,1.1l-.522.569c-2.257,2.257-4.087,3.85-6.136,6-1.736-2.447-4.268-4.277-6.174-6.572Zm15.288,2.845c1.764,1.65,7.047,7.4,9.01,9.484l9.55-9.361c.6.313.815,1.167,1.4,1.261.123.085.057.332.209.427.54.218.75,1.005,1.261,1.005.948,1.546,2.741,2.447,3.869,3.907q-7.788,8.04-15.534,16.123a.1.1,0,0,0-.095.066c-5.368-5.387-10.565-10.878-15.819-16.294,2.1-2.191,4.107-4.439,6.146-6.619Zm9.769-8.972a84.12,84.12,0,0,1,5.909,6.231,61.305,61.305,0,0,1-6.477,6.478c-1.812-2.077-4.031-4.353-5.909-6.3Zm18.019,0,6.317,6.25c-2.143,1.9-4.306,4.287-6.317,6.354-2-2.067-4.164-4.467-6.307-6.354Zm7.692,32.567a45.986,45.986,0,0,1-5.87-4.1l-1.821,1.375-1.84-1.365c-2.1,1.489-3.632,2.968-5.842,4.087h-5.548c4.249-4.381,9.009-9.408,13.277-13.562,4.229,4.154,9.019,9.18,13.277,13.562Zm-10.366,1.47c.777-.578,1.726-1.432,2.674-2.134.948.7,1.9,1.546,2.684,2.134-.749.579-1.726,1.433-2.684,2.134C408.264,210.188,407.316,209.335,406.538,208.756Zm-10.319,4.562a.105.105,0,0,1,0,.152c-.076.076-.237.2-.36.294a2.673,2.673,0,0,0-.522-1.119.568.568,0,0,0-.095.4c-.578-.142-.759-.664-1.252-.948.076,0,.132-.275.208-.275s.17.342.285.351.218-.313.332-.313.284.294.436.294.361-.2.531-.237c0,.237-.218.36-.341.55a9.606,9.606,0,0,1,.768.853Zm1.9,1.84a.467.467,0,0,0-.143.351,1.393,1.393,0,0,1-.559-.768c0-.048.095-.171.132-.133A7.642,7.642,0,0,1,398.117,215.157Zm3.983,6.051a.683.683,0,0,1-.143-.948,1.892,1.892,0,0,1,.408.408c.285,0,.389-.085.465-.275h.095a4.137,4.137,0,0,0,.749,1.365l.626.7a.349.349,0,0,1,.152.332.247.247,0,0,1-.275.18.943.943,0,0,1-.332-.133,2.126,2.126,0,0,1-.806-.768c.047,0,.265-.076.294-.057a12.094,12.094,0,0,1-1.232-.806Zm3.433,2.428a.936.936,0,0,1,.1-.417,2.145,2.145,0,0,1,.256.152.475.475,0,0,1,.1.209.74.74,0,0,1-.208.218.076.076,0,0,1-.114,0s-.143-.095-.143-.161Zm.152,1.053c.057,0,.171-.275.218-.209a5.161,5.161,0,0,1,.607.816c0,.076-.152.2-.142.284-.635-.531-1.081-1.223-1.7-1.783.114,0,.351-.19.436-.095A10.055,10.055,0,0,1,405.684,224.689Zm3.528-.9c-4.22-4.154-9.009-9.171-13.277-13.562h5.6c2.257,1.158,3.794,2.675,5.975,4.183l1.707-1.186,1.745,1.158c2.172-1.537,3.67-3,5.947-4.154h5.586C418.232,214.617,413.443,219.634,409.213,223.788Zm1.745,5.083h.18a1.1,1.1,0,0,1,.161.294s.085.057.076.076a.433.433,0,0,1-.455.18v-.531Zm5.88-43.436c.152-.095.095-.342.218-.436.588-.095.8-.948,1.4-1.252l7.843,7.691,1.4-1.394,1.631,1.679c2.4-2.56,6.212-6.639,7.654-8.014,2.03,2.181,4.04,4.429,6.174,6.639-5.264,5.387-10.432,10.878-15.819,16.294,0,0-.066-.066-.095-.066q-7.724-8.1-15.534-16.123c1.128-1.461,2.95-2.343,3.87-3.908.569-.076.74-.863,1.28-1.1Zm6.392-6.639a43.831,43.831,0,0,1,4-4.088l6.477,6.411c-1.9,1.944-4.1,4.22-5.908,6.3a61.31,61.31,0,0,1-6.478-6.477Zm5.9-5.074c.085,0,.142.265.237.275s.171-.247.266-.247.218.237.351.227.285-.152.418-.18c0,.19-.161.294-.275.427a6.062,6.062,0,0,1,.6.7s.057.076,0,.123-.227.171-.294.237a2.144,2.144,0,0,0-.418-.948.576.576,0,0,0-.076.332c-.455-.123-.617-.531-.948-.778C429.053,173.9,429.129,173.723,429.129,173.723Zm11.438,5.927a.493.493,0,0,1,.114.123c.3-.607.948-.816,1.166-1.47.569,0,.6-.768,1.138-.948a7.637,7.637,0,0,1,2.115-2.143,1.045,1.045,0,0,0-.095-.123c.247-.18.455-.4.693-.569v-.028c.275-.341,6.4,6.383,6.639,6.355l.114-.123c-1.9,2.314-4.448,4.125-6.174,6.572-2.058-2.153-3.879-3.794-6.136-6l-.522-.569a8.867,8.867,0,0,0,.948-1.072Zm38.581,6.344a3.517,3.517,0,0,1,.948.664c.076-.085.1-.275.19-.351s.208,0,.3,0a2.491,2.491,0,0,0,.635,1.47.4.4,0,0,0,.266-.209l.7.768c-.114-.076-.238-.18-.351-.247s.114.218.228.3,0,.123,0,.152-.057.123-.1.114a2.579,2.579,0,0,0-.749-.152c-.294-1.034-1.375-1.754-2.058-2.475-.019-.038.019-.038.028-.038Zm10.679,6.639c-7.947-6.382-14.321-14.908-21.936-21.813H462.2c-2.257,2.3-4.742,4.533-6.9,7-2.124-1.963-4.8-4.875-6.894-7h-4.5a3.055,3.055,0,0,0-1.413,1.537l-.085-.085a38.789,38.789,0,0,1-4.647,4.742.355.355,0,0,0,.123.123,8.016,8.016,0,0,0-.948.863c-1.375-1.2-2.5-2.94-4.059-4.107,0-.057.085-.085.123-.152a35.6,35.6,0,0,1-3.1-2.845h-4.505c-.7.711-1.394,1.28-2.143,2.077a.478.478,0,0,0,.123.123c-1.072.882-1.9,2.02-3.006,2.845a.311.311,0,0,0,.095.152l-1.717,1.745-4.183-4.087.095-.095a34.781,34.781,0,0,1-3.187-2.845h-4.5a37.488,37.488,0,0,1-3.168,2.845l.095.095-4.163,4.087-1.745-1.792a.3.3,0,0,0,.085-.152c-1.138-.854-1.963-1.992-3.006-2.845.067,0,.095-.095.123-.123-.75-.8-1.433-1.394-2.1-2.106h-4.552a38.241,38.241,0,0,1-3.092,2.845c0,.057.085.086.114.152-1.555,1.158-2.684,2.912-4.059,4.1a8.017,8.017,0,0,0-.948-.863,1.069,1.069,0,0,0,.1-.1,38.44,38.44,0,0,1-4.638-4.7.715.715,0,0,0-.114.095,3.057,3.057,0,0,0-1.413-1.518h-4.505c-2.049,2.115-4.742,5.046-6.894,7-2.134-2.466-4.657-4.695-6.885-7h-5.69c-12,11.893-23.368,23.985-35.195,35.982v3.908c11.827,12,23.2,24.089,35.185,35.981h5.69c2.257-2.3,4.742-4.533,6.885-7,2.125,1.963,4.846,4.875,6.9,7H374.5a3.1,3.1,0,0,0,1.413-1.5.736.736,0,0,1,.1.095,39.22,39.22,0,0,1,4.657-4.742.477.477,0,0,0-.123-.123,7.868,7.868,0,0,0,.948-.863c1.375,1.185,2.513,2.939,4.069,4.1,0,.066-.095.094-.123.152a40.26,40.26,0,0,1,3.1,2.845h4.5c.7-.711,1.385-1.28,2.143-2.077a.46.46,0,0,0-.123-.123c1.072-.883,1.9-2.02,3.007-2.845a.311.311,0,0,0-.095-.152l1.745-1.783,4.277,4.087-.095.095a34.972,34.972,0,0,1,3.1,2.845h4.505a37.173,37.173,0,0,1,3.158-2.845l-.086-.095,4.107-4.087a21.083,21.083,0,0,1,1.612,1.944,22.259,22.259,0,0,1,2.921,2.988c.749.768,1.432,1.375,2.134,2.077h4.515a36.6,36.6,0,0,1,3.092-2.845,38.81,38.81,0,0,1,3.945-4.249,9.843,9.843,0,0,0,.948.853c-.057,0-.086.085-.114.123a39.757,39.757,0,0,1,4.657,4.742.82.82,0,0,0,.1-.095,3.065,3.065,0,0,0,1.413,1.479h4.514c2.039-2.114,4.742-5.036,6.9-7,2.134,2.466,4.656,4.742,6.885,7h5.69C479.934,234.8,491.277,222.7,503.1,210.7v-3.9A177.727,177.727,0,0,1,489.826,192.633Z" fill="#009aac"/>
    </g>
  </g>
</svg>
