<svg id="privacy" xmlns="http://www.w3.org/2000/svg" width="48" height="48" viewBox="0 0 48 48">
  <rect id="Rectangle_866" data-name="Rectangle 866" width="48" height="48" fill="none" opacity="0.46"/>
  <g id="Group_9639" data-name="Group 9639" transform="translate(-1600 140)">
    <path id="Path_60576" data-name="Path 60576" d="M1640-119h-2v-5a14.015,14.015,0,0,0-14-14,14.015,14.015,0,0,0-14,14v5h-2a3,3,0,0,0-3,3v19a3,3,0,0,0,3,3h32a3,3,0,0,0,3-3v-19A3,3,0,0,0,1640-119Zm-28-5a12.013,12.013,0,0,1,12-12,12.013,12.013,0,0,1,12,12v5h-3v-5a9.01,9.01,0,0,0-9-9,9.01,9.01,0,0,0-9,9v5h-3Zm5,5v-5a7.008,7.008,0,0,1,7-7,7.008,7.008,0,0,1,7,7v5Zm24,22a1,1,0,0,1-1,1h-32a1,1,0,0,1-1-1v-19a1,1,0,0,1,1-1h32a1,1,0,0,1,1,1Z" fill="#ff8300"/>
    <path id="Path_60577" data-name="Path 60577" d="M1624-115a5.006,5.006,0,0,0-5,5,5.006,5.006,0,0,0,5,5,5.006,5.006,0,0,0,5-5A5.006,5.006,0,0,0,1624-115Zm0,8a3,3,0,0,1-3-3,3,3,0,0,1,3-3,3,3,0,0,1,3,3A3,3,0,0,1,1624-107Z" fill="#ca4400"/>
  </g>
</svg>
