<svg id="Icon_-_LMS_-_Quiz" data-name="Icon - LMS - Quiz" xmlns="http://www.w3.org/2000/svg" width="22" height="22" viewBox="0 0 22 22">
  <g id="Group_9508" data-name="Group 9508" transform="translate(-78 -277)">
    <rect id="Rectangle_3130" data-name="Rectangle 3130" width="22" height="22" transform="translate(78 277)" fill="none"/>
  </g>
  <g id="Group_9509" data-name="Group 9509" transform="translate(-77 -276)">
    <path id="Path_60488" data-name="Path 60488" d="M88,279a8,8,0,1,1-8,8,8.009,8.009,0,0,1,8-8m0-2a10,10,0,1,0,10,10,10,10,0,0,0-10-10Z" fill="#7f858a"/>
  </g>
  <g id="Group_9510" data-name="Group 9510" transform="translate(-77 -276)">
    <circle id="Ellipse_325" data-name="Ellipse 325" cx="1" cy="1" r="1" transform="translate(87 292)" fill="#7f858a"/>
  </g>
  <g id="Group_9511" data-name="Group 9511" transform="translate(-77 -276)">
    <path id="Path_60489" data-name="Path 60489" d="M88,291a1,1,0,0,1-1-1v-2a1,1,0,0,1,1-1,2,2,0,1,0-2-2,1,1,0,0,1-2,0,4,4,0,1,1,5,3.873V290A1,1,0,0,1,88,291Z" fill="#7f858a"/>
  </g>
</svg>
