<svg xmlns="http://www.w3.org/2000/svg" width="48" height="48" viewBox="0 0 48 48">
  <g id="role" transform="translate(109.383 -295.056)">
    <g id="Group_9395" data-name="Group 9395">
      <rect id="Rectangle_866" data-name="Rectangle 866" width="48" height="48" transform="translate(-109.383 295.056)" fill="none"/>
      <g id="Group_9395-2" data-name="Group 9395-2">
        <path id="Path_60315" data-name="Path 60315" d="M-87.383,302.313c1.538.711,3.487,2.9,4.944,6.184a35.47,35.47,0,0,1-4.944.488Zm-2,0v6.669a35.284,35.284,0,0,1-4.951-.49c1.439-3.236,3.388-5.46,4.951-6.176Zm0,8.669v6.074h-6.912a23.918,23.918,0,0,1,1.217-6.669,37.275,37.275,0,0,0,5.695.6Zm-8.911,6.074h-6.038a15.883,15.883,0,0,1,3.047-8.423A31.1,31.1,0,0,0-97,309.978,25.958,25.958,0,0,0-98.294,317.056Zm0,2a25.95,25.95,0,0,0,1.288,7.075,31.148,31.148,0,0,0-4.28,1.346,15.879,15.879,0,0,1-3.046-8.421Zm2,0h6.911v6.071a36.969,36.969,0,0,0-5.7.6,23.9,23.9,0,0,1-1.212-6.671Zm6.911,8.072V333.8c-1.563-.716-3.512-2.944-4.952-6.18A35,35,0,0,1-89.383,327.128Zm12.553-20.114a30.6,30.6,0,0,1-3.606,1.076,19.348,19.348,0,0,0-3.246-5.316A16.168,16.168,0,0,1-76.83,307.014Zm-16.189-4.268A19.517,19.517,0,0,0-96.3,308.1a30.214,30.214,0,0,1-3.631-1.081A16.007,16.007,0,0,1-93.019,302.746ZM-99.934,329.1a29.846,29.846,0,0,1,3.63-1.082,19.471,19.471,0,0,0,3.285,5.35A16,16,0,0,1-99.934,329.1Zm16.551-12.042h-4v-6.072a35.219,35.219,0,0,0,11.911-2.354A15.809,15.809,0,0,1-74,311.056h2.19a18.086,18.086,0,0,0-16.573-11,18.021,18.021,0,0,0-18,18,18.022,18.022,0,0,0,18,18,18,18,0,0,0,5-.712v-2.1a15.94,15.94,0,0,1-4,.768v-6.881a35.014,35.014,0,0,1,4,.343v-2.018a37.18,37.18,0,0,0-4-.322v-6.078h4Z" fill="#308138"/>
      </g>
    </g>
    <g id="Group_9395-2-2" data-name="Group 9395-2">
      <path id="Path_60315-2" data-name="Path 60315" d="M-83.383,335.344v1.712a1,1,0,0,0,1,1h17a1,1,0,0,0,1-1v-25a1,1,0,0,0-1-1h-17a1,1,0,0,0-1,1v23.288Zm17,.712h-15v-23h15Z" fill="#51c041"/>
      <path id="Path_60316" data-name="Path 60316" d="M-78.383,321.056h9a1,1,0,0,0,1-1,1,1,0,0,0-1-1h-9a1,1,0,0,0-1,1A1,1,0,0,0-78.383,321.056Z" fill="#51c041"/>
      <path id="Path_60317" data-name="Path 60317" d="M-78.383,325.056h9a1,1,0,0,0,1-1,1,1,0,0,0-1-1h-9a1,1,0,0,0-1,1A1,1,0,0,0-78.383,325.056Z" fill="#51c041"/>
      <path id="Path_60318" data-name="Path 60318" d="M-78.383,329.056h9a1,1,0,0,0,1-1,1,1,0,0,0-1-1h-9a1,1,0,0,0-1,1A1,1,0,0,0-78.383,329.056Z" fill="#51c041"/>
    </g>
  </g>
</svg>
