<svg id="Icon_-_UI_-_Sidebar_-_16px" data-name="Icon - UI - Sidebar - 16px" xmlns="http://www.w3.org/2000/svg" width="16" height="16.083" viewBox="0 0 16 16.083">
  <rect id="Rectangle_3137" data-name="Rectangle 3137" width="16" height="16" fill="none"/>
  <g id="Group_9521" data-name="Group 9521" transform="translate(0 -66)">
    <path id="Path_60492" data-name="Path 60492" d="M3.042,79.042a1,1,0,0,1-.708-1.707l3.293-3.293L2.251,70.665a1,1,0,0,1,1.415-1.414l4.083,4.084a1,1,0,0,1,0,1.414l-4,4A1,1,0,0,1,3.042,79.042Z"/>
  </g>
  <g id="Group_9522" data-name="Group 9522" transform="translate(0 -66)">
    <path id="Path_60493" data-name="Path 60493" d="M12.958,82.083a1,1,0,0,1-1-1V67a1,1,0,0,1,2,0V81.083A1,1,0,0,1,12.958,82.083Z"/>
  </g>
  <path id="Path_60494" data-name="Path 60494" d="M9.042,74" transform="translate(0 -66)" fill="none" stroke="#000" stroke-linecap="round" stroke-linejoin="round" stroke-width="2"/>
</svg>
