<svg id="Icon_-_UI_-_Social_-_Twitter_-_16px" data-name="Icon - UI - Social - Twitter - 16px" xmlns="http://www.w3.org/2000/svg" width="16" height="16" viewBox="0 0 16 16">
  <path id="Path_3399" data-name="Path 3399" d="M11.807,2.12a5.844,5.844,0,0,1-.824.272,2.479,2.479,0,0,0,.68-1.04.134.134,0,0,0-.2-.152,5.089,5.089,0,0,1-1.264.5.272.272,0,0,1-.08.008.382.382,0,0,1-.224-.08A2.616,2.616,0,0,0,8.183,1a2.879,2.879,0,0,0-.816.12A2.46,2.46,0,0,0,5.68,2.856a2.57,2.57,0,0,0-.064.92c.008.032-.016.056-.024.072a.1.1,0,0,1-.072.024H5.512A6.855,6.855,0,0,1,.848,1.48.131.131,0,0,0,.632,1.5,2.374,2.374,0,0,0,.28,2.744,2.452,2.452,0,0,0,1.048,4.52,2.565,2.565,0,0,1,.464,4.3a.139.139,0,0,0-.208.112,2.508,2.508,0,0,0,1.512,2.3H1.712a2.63,2.63,0,0,1-.432-.04.128.128,0,0,0-.152.168,2.576,2.576,0,0,0,2.048,1.7A4.9,4.9,0,0,1,.5,9.319H.2a.19.19,0,0,0-.192.144.184.184,0,0,0,.1.216,7.358,7.358,0,0,0,3.568.92,7.392,7.392,0,0,0,3.048-.624A6.719,6.719,0,0,0,8.951,8.367a7.113,7.113,0,0,0,1.368-2.2,6.735,6.735,0,0,0,.464-2.408V3.72a.417.417,0,0,1,.168-.328A4.933,4.933,0,0,0,11.983,2.3a.133.133,0,0,0-.176-.184" transform="translate(1.999 2)" fill="#fff" fill-rule="evenodd"/>
  <rect id="Rectangle_2974" data-name="Rectangle 2974" width="16" height="16" fill="none"/>
</svg>
