<svg width="16" height="17" viewBox="0 0 16 17" fill="none" xmlns="http://www.w3.org/2000/svg">
  <path
    d="M4.26131 2.47815C4.26131 1.44147 3.48608 0.600098 2.53136 0.600098C1.57346 0.600098 0.800049 1.44147 0.800049 2.47815C0.800049 3.51483 1.57346 4.35621 2.53136 4.35621C3.48608 4.35621 4.26131 3.51483 4.26131 2.47815Z"
    fill="white"/>
  <path d="M4.0241 16.2001H1.03725V5.77955H4.0241V16.2001Z" fill="white"/>
  <path
    d="M8.75649 5.77955H5.89596V16.2001H8.87645V11.0463C8.87645 9.68658 9.1132 8.36977 10.6659 8.36977C12.1973 8.36977 12.2164 9.92429 12.2164 11.1326V16.2001H15.2V10.485C15.2 7.67881 14.6416 5.52161 11.6206 5.52161C10.1688 5.52161 9.19545 6.38518 8.79738 7.20437H8.75649V5.77955Z"
    fill="white"/>
</svg>
