<svg id="Icon_-_UI_-_Social_-_Facebook_-_16px" data-name="Icon - UI - Social - Facebook - 16px" xmlns="http://www.w3.org/2000/svg" width="16" height="16" viewBox="0 0 16 16">
  <path id="Path_3398" data-name="Path 3398" d="M1.6,12l.009-5.186H.317A.32.32,0,0,1,.009,6.5L0,4.826a.309.309,0,0,1,.309-.317H1.6V2.9A2.59,2.59,0,0,1,4.311,0h1.32A.315.315,0,0,1,5.94.317V1.723a.315.315,0,0,1-.309.317H4.817c-.874.009-1.046.437-1.046,1.071v1.4h1.92a.307.307,0,0,1,.3.351L5.8,6.54a.306.306,0,0,1-.3.274H3.78L3.771,12Z" transform="translate(5 2)" fill="#fff" fill-rule="evenodd"/>
  <rect id="Rectangle_2972" data-name="Rectangle 2972" width="16" height="16" fill="none"/>
</svg>
