<svg id="Icon_-_UI_-_Social_-_WhatsApp_-_16px" data-name="Icon - UI - Social - WhatsApp - 16px" xmlns="http://www.w3.org/2000/svg" width="24" height="24" viewBox="0 0 24 24">
  <g id="Group_2928" data-name="Group 2928" transform="translate(3 3)">
    <path id="Path_3341" data-name="Path 3341" d="M921.781,359.762a9.509,9.509,0,0,0-5.28,1.6,9.526,9.526,0,0,0-2.622,2.622,9.516,9.516,0,0,0-1.6,5.282,10.953,10.953,0,0,0,1.38,4.934l-1.661,5.061L917.2,377.6a9.637,9.637,0,0,0,4.579,1.174,9.506,9.506,0,0,0,8.889-5.84,9.509,9.509,0,0,0,0-7.329,9.5,9.5,0,0,0-7.017-5.677,9.383,9.383,0,0,0-1.871-.163m0,17.488a8.724,8.724,0,0,1-4.4-1.321l-3,.979.974-2.905a9.075,9.075,0,0,1-1.556-4.736,7.965,7.965,0,0,1,.608-3.056,7.987,7.987,0,0,1,5.819-4.777,7.977,7.977,0,0,1,4.612.455,7.994,7.994,0,0,1,2.591,1.731,7.984,7.984,0,0,1-5.646,13.63" transform="translate(-911.995 -359.761)" fill="#fff" fill-rule="evenodd"/>
    <path id="Path_3342" data-name="Path 3342" d="M918.531,365.5a1.129,1.129,0,0,1,.393-.163h.747a.419.419,0,0,1,.293.243c.092.21.724,1.693.77,1.807a.625.625,0,0,1-.026.652c-.2.254-.608.727-.608.727a.3.3,0,0,0-.022.381,7.676,7.676,0,0,0,1.287,1.583,6.119,6.119,0,0,0,1.839,1.14c.4.13.484-.045.636-.239s.623-.791.623-.791a.375.375,0,0,1,.484-.093c.319.147,1.876.9,1.876.9a.253.253,0,0,1,.2.245,1.694,1.694,0,0,1-.423,1.454,2.845,2.845,0,0,1-2.333.732,9.124,9.124,0,0,1-3.672-1.793,12.035,12.035,0,0,1-2.624-3.233,3.142,3.142,0,0,1-.361-1.661,2.629,2.629,0,0,1,.923-1.89" transform="translate(-912.366 -360.13)" fill="#fff" fill-rule="evenodd"/>
  </g>
  <rect id="Rectangle_372" data-name="Rectangle 372" width="24" height="24" fill="none"/>
</svg>
