<svg id="Icon_-_UI_-_Sort_Vertical_-_16px" data-name="Icon - UI - Sort Vertical - 16px" xmlns="http://www.w3.org/2000/svg" width="16" height="16" viewBox="0 0 16 16">
  <rect id="Rectangle_3109" data-name="Rectangle 3109" width="16" height="16" fill="none"/>
  <path id="Path_60477" data-name="Path 60477" d="M88.293,245.293,87,246.586v-9.172l1.293,1.293a1,1,0,0,0,1.414-1.414l-3-3a.99.99,0,0,0-.326-.217,1,1,0,0,0-.764,0,.99.99,0,0,0-.326.217l-3,3a1,1,0,0,0,1.414,1.414L85,237.414v9.172l-1.293-1.293a1,1,0,0,0-1.414,1.414l3,3a1,1,0,0,0,1.416,0l3-3a1,1,0,0,0-1.414-1.414Z" transform="translate(-78 -234)"/>
</svg>
