<svg width="21" height="21" viewBox="0 0 21 21" fill="none" xmlns="http://www.w3.org/2000/svg">
<path d="M10.667 0.879883C8.73863 0.879883 6.85357 1.45171 5.25019 2.52305C3.64681 3.5944 2.39713 5.11714 1.65917 6.89872C0.921217 8.6803 0.728134 10.6407 1.10434 12.532C1.48055 14.4233 2.40914 16.1606 3.77271 17.5242C5.13627 18.8877 6.87355 19.8163 8.76487 20.1925C10.6562 20.5687 12.6166 20.3757 14.3982 19.6377C16.1797 18.8998 17.7025 17.6501 18.7738 16.0467C19.8452 14.4433 20.417 12.5583 20.417 10.6299C20.4143 8.04486 19.3862 5.56649 17.5583 3.73861C15.7304 1.91072 13.252 0.882613 10.667 0.879883ZM11.417 18.8452V12.8799H13.667C13.8659 12.8799 14.0567 12.8009 14.1973 12.6602C14.338 12.5196 14.417 12.3288 14.417 12.1299C14.417 11.931 14.338 11.7402 14.1973 11.5996C14.0567 11.4589 13.8659 11.3799 13.667 11.3799H11.417V9.12988C11.417 8.73206 11.575 8.35053 11.8563 8.06922C12.1376 7.78792 12.5192 7.62988 12.917 7.62988H14.417C14.6159 7.62988 14.8067 7.55087 14.9473 7.41021C15.088 7.26956 15.167 7.07879 15.167 6.87988C15.167 6.68097 15.088 6.49021 14.9473 6.34955C14.8067 6.2089 14.6159 6.12988 14.417 6.12988H12.917C12.1213 6.12988 11.3583 6.44595 10.7957 7.00856C10.2331 7.57117 9.917 8.33423 9.917 9.12988V11.3799H7.667C7.46808 11.3799 7.27732 11.4589 7.13667 11.5996C6.99601 11.7402 6.917 11.931 6.917 12.1299C6.917 12.3288 6.99601 12.5196 7.13667 12.6602C7.27732 12.8009 7.46808 12.8799 7.667 12.8799H9.917V18.8452C7.80274 18.6522 5.84427 17.6515 4.44897 16.0514C3.05366 14.4513 2.32894 12.3748 2.42554 10.254C2.52214 8.13312 3.43264 6.13115 4.96763 4.66448C6.50262 3.19781 8.54395 2.37936 10.667 2.37936C12.79 2.37936 14.8314 3.19781 16.3664 4.66448C17.9014 6.13115 18.8118 8.13312 18.9085 10.254C19.0051 12.3748 18.2803 14.4513 16.885 16.0514C15.4897 17.6515 13.5313 18.6522 11.417 18.8452Z" fill="black"/>
</svg>
