<?xml version="1.0" encoding="UTF-8"?>
<svg xmlns="http://www.w3.org/2000/svg">
  <pattern id="pattern-repeat1" x="0" y="0" width="46" height="80" patternUnits="userSpaceOnUse" patternContentUnits="userSpaceOnUse" patternTransform="scale(0.6)">
    <g fill="#51c041">
      <path fill="none" d="M0 0h46v80H0z"></path>
      <path d="M3.85 4.63a.34.34 0 01.22.2H5c.3-.06.49-.28.81-.29.67 0 1.08.26 1.86.21a6.78 6.78 0 012.5.08c1.75 0 3.49-.07 5.23-.14.43 0 .85.2 1.26.19 1.51 0 2.78-.06 4.36-.13 1.39 0 3.31.33 4.63-.2a.5.5 0 01.3.27 19.29 19.29 0 014 0 4.34 4.34 0 01.79.13c.78-.11 1.59 0 2.38-.11l.79.13a10.15 10.15 0 013.41.03 2.38 2.38 0 000-.26 12.78 12.78 0 002.9 0c.5 0 .88.17 1.36.2a48.6 48.6 0 014.35-.13V.16c-.66 0-1.47.09-2.33.19-.47.05-1.3-.23-2-.26-1.37 0-3 .14-4.48.15-.67 0-1.41-.14-2.12-.16-2.21.16-4.34.06-6.52.23C27.46.38 26.32 0 25.25 0c-.55 0-1.15.15-1.71.19a13.79 13.79 0 00-2.87-.12 8.35 8.35 0 01-1.3.2 14.19 14.19 0 00-2.68-.22 23.17 23.17 0 01-4.08 0v.21c-4-.24-8 0-12-.26a.53.53 0 00-.09.2C.37.16.21.15.07.12v4.57a13.3 13.3 0 003.78-.06zM45.26 40.26h-.53a.13.13 0 01-.11-.09 5.92 5.92 0 010-1.19 28.2 28.2 0 000-2.93c0-.55.2-1.11.21-1.75 0-1.44-.12-2.87-.2-4.27s.08-3.27.13-5a90.67 90.67 0 00-4.78-.1h-2.8c-.09 0-.13.06-.28.12l-.1-.05c0-.07.12-.14.13-.17V23c0-.42-.07-2.08-.1-3.28.11-.78.16-1.62.21-2.49-.93 0-1.86-.07-2.87-.07h-4.9v-4.07c0-1.21.06-2.37.09-3.54h-3.88a11.34 11.34 0 00-1.23.1h-.66a8.9 8.9 0 01-1.46-.12h-2.34l-3.41.06v7.69s.1.14.09.18-.11 0-.15-.06h-.13a5.31 5.31 0 00-.68-.05h-2.59l-4.17.07.07 3.06V23l-.14 1.54v.38H8.6l.05.07a.06.06 0 01-.05.01H7.35l-2.64.05H1v5.53c0 1 .06 2.07.09 3.08.06 1.58 0 3.1 0 4.57v1.12a5.21 5.21 0 010 .79l-.09.21a.41.41 0 00-.22 0c-.28 0-.53-.05-.78-.05v4.79h5.94v-15h.14l1.41-.14h1.68l4.45-.1c-.06-2.39-.11-5.48-.16-6.27V22h7.81v-7.7h3a.31.31 0 01.15.1l-.12.25a.11.11 0 000 .08v7.4H32v3.33c0 1.41-.07 2.8-.13 4.27.8 0 1.62.06 2.46.08h5.58v3.86c0 2.07 0 4.13.09 6.22a1.61 1.61 0 010 .31 1.85 1.85 0 01-.06.56c0 .41-.09.87-.09 1.46v2.88H46v-4.8z"></path>
      <path d="M44.29 65.19v-7.56h-7.67v-7.79h-5.47c-.52 0-1 0-1.51.09l-.7.06h-.07a.14.14 0 01-.08-.09v-2.75V39.27v-4.78c-1 0-2.08 0-3.11.06a11.92 11.92 0 00-2 .07h-.18c0-.08 0-.08-.22-.14-.47 0-.93.05-1.42.07h-.3l-.18.05h-2.25l-.16.17a11.21 11.21 0 01-1.53.08h-1v5.39c0 .43-.37.77-.26 1.2a8.59 8.59 0 010 2.15c0 .35.21.72.19 1.07s-.16.43-.19.66c.1 1.16.06 2.31.19 3.49 0 .07-.18.14-.16.26s0 .41 0 .62v.13a3.15 3.15 0 00.22.29c.05.09-.23-.06-.25-.08s-.05.13-.16.14-.06 0-.08-.06v-.06h-.19a10.4 10.4 0 01-1.37.11h-.68l-1 .08a4.56 4.56 0 01-1.27-.12A7.14 7.14 0 0010 50a9.77 9.77 0 00-1.19.21h-.3a6.26 6.26 0 00-.12 1.93 5.26 5.26 0 01.19 1.11c0 .35-.12.65-.16 1a4.41 4.41 0 000 .52V55a.6.6 0 000 .19 14.44 14.44 0 00.17 1.7v.65a.17.17 0 000 .1v.2a.44.44 0 01-.25-.14l.06.2c-.09-.14-.06-.15-.16-.12a6.28 6.28 0 00-.85.14c-.49.07-1.09-.36-1.47-.21l-.19.05h-.87a8.27 8.27 0 00-1.11-.07 11.54 11.54 0 01-2.35 0c-.25.13-.45 0-.67 0a8.11 8.11 0 00.06 1.21c-.34.29-.26 2.18-.29 2.7v1.3a6.78 6.78 0 010 1.56c.11 0 0 .35 0 .47s.08.26.1.23H.44v.06H0v4.64a13.42 13.42 0 012-.2 15.34 15.34 0 011.79-.1c.29 0 .93.28 1 0a.6.6 0 00.19 0c0-.14-.11-.33 0-.15 0-.55 0-1.1-.09-1.63 0-.18.13-.18.09-.38s-.12-.2-.15-.28c.35-.34.2-1.32.06-1.83a.26.26 0 01.11-.11c.07-.07 0-.09 0-.14a1.31 1.31 0 00.09-.28 2.73 2.73 0 000-.57A4.83 4.83 0 005 63.06l.21-.34c.06-.11 0-.13 0-.2s0-.11-.24-.33c-.06-.07.19.08.2.09h.1c.18.08.14 0 .21-.17.18.13 0 .26.6-.08.19.29.45.26.66.29v-.25a1.43 1.43 0 001.17.22.59.59 0 00.31-.29l.25.32a12 12 0 012 .06 4.29 4.29 0 001.85-.13c.15 0 .46 0 .61.06s.08-.66.06-.91c0-.51.26-.63.21-1.26a4.1 4.1 0 01.08-2 9.91 9.91 0 000-1.43c-.05-.4-.05-.72-.09-1.07a3 3 0 01.14-.73l-.07-.11s.13-.15.18-.14h.25c.16 0 .18.09.32.13.34-.11.67 0 1-.1l.34.13a2.42 2.42 0 01.36-.1h.43a11.45 11.45 0 011.42.17 1 1 0 000-.25 3.64 3.64 0 001.23.09c.39 0 .75-.07 1.13-.06s.85.16 1.3.2c-.1-1-.12-1.91-.13-2.82v-2.4c0-.3-.26-.68-.16-.91s-.07-.32-.07-.55.14-.19.14-.33a2.42 2.42 0 00-.2-.79c-.06-.27.35-.6 0-.84.11 0 .2 0 .2-.11a3.51 3.51 0 00-.22-1.12c0-.08.13-.15.14-.23a2.89 2.89 0 00-.13-.78c.31-.23.27-.5.27-.79a14.53 14.53 0 00-.12-1.61c-.05-.39.25-.68.12-1 0-.08-.19-.15-.2-.22l-.06-.69h.83a7.67 7.67 0 001.45-.18 3.35 3.35 0 011.26.09c-.05.32-.08.65-.1 1 0 .66-.1 1.33-.15 1.9l.27 3.2a19.66 19.66 0 00-.23 3.25v.81l.06 1.19c0 .92.1 1.83.18 2.67l-.05.91 2 .12s3.62-.14 3.44-.08 0 .1 0 .12h1.72a4.58 4.58 0 01.74-.13v.08c0 .36-.22.37-.28.57s.19.09.29.76a7.36 7.36 0 00-.25.92 5 5 0 000 .77v.86c0 .92.06 1.83.08 2.75V62c.69 0 1.36.08 2.08.11a12.62 12.62 0 002.3-.11h.63a.78.78 0 00.3 0 9.74 9.74 0 011.32.08h1.24v.15a2.15 2.15 0 00.07.5v.09l-.07.17v.28a2.11 2.11 0 01-.06.6 9.87 9.87 0 01-.06 1.31 7.61 7.61 0 000 1.17v1.22c0 .8 0 1.57.07 2.26h1.34c.93 0 1.85.1 2.88.14l1.62.07H46v-4.75a6.53 6.53 0 00-1.71-.1zM41.64 75.06c-1.37 0-3 .14-4.48.15-.71 0-1.45-.14-2.15-.16-2.21.16-4.34.06-6.52.23-1 .08-2.17-.32-3.24-.28-.55 0-1.15.16-1.71.19a13.13 13.13 0 00-2.87-.14 9.7 9.7 0 01-1.3.19 14.19 14.19 0 00-2.68-.24 21.39 21.39 0 01-4.08 0v.21c-4-.24-8 0-12-.26a.63.63 0 00-.13.2l-.45-.08v4.57a13.67 13.67 0 003.78 0 .3.3 0 01.22.19 7.21 7.21 0 00.93 0c.3-.06.49-.28.81-.28.67 0 1.08.25 1.86.21a6.78 6.78 0 012.5.07c1.75 0 3.49-.07 5.23-.14.43 0 .85.2 1.26.19 1.51 0 2.78-.06 4.36-.12 1.39 0 3.31.32 4.63-.21a.5.5 0 01.3.27 19.29 19.29 0 014 0 4.34 4.34 0 01.79.13c.78-.11 1.59 0 2.38-.11l.79.14a10.15 10.15 0 013.39 0 2 2 0 000-.26 12.78 12.78 0 002.9 0c.5 0 .88.17 1.36.21 1.43-.13 2.92-.15 4.35-.14v-4.65c-.66 0-1.47.08-2.33.18-.36.05-1.19-.23-1.9-.26z"></path>
    </g>
  </pattern>
  <rect fill="url(#pattern-repeat1)" width="100%" height="48px"></rect>
</svg>
