<svg width="21" height="21" viewBox="0 0 21 21" fill="none" xmlns="http://www.w3.org/2000/svg">
<path d="M10.667 6.12988C9.77698 6.12988 8.90695 6.3938 8.16693 6.88827C7.4269 7.38274 6.85013 8.08554 6.50953 8.90781C6.16894 9.73007 6.07983 10.6349 6.25346 11.5078C6.42709 12.3807 6.85568 13.1825 7.48501 13.8119C8.11435 14.4412 8.91617 14.8698 9.78909 15.0434C10.662 15.2171 11.5668 15.1279 12.3891 14.7873C13.2113 14.4467 13.9141 13.87 14.4086 13.1299C14.9031 12.3899 15.167 11.5199 15.167 10.6299C15.1658 9.43679 14.6912 8.29292 13.8476 7.44927C13.004 6.60563 11.8601 6.13112 10.667 6.12988ZM10.667 13.6299C10.0736 13.6299 9.49363 13.4539 9.00028 13.1243C8.50693 12.7946 8.12242 12.3261 7.89535 11.7779C7.66829 11.2298 7.60888 10.6266 7.72464 10.0446C7.84039 9.46267 8.12611 8.92812 8.54567 8.50856C8.96523 8.089 9.49978 7.80328 10.0817 7.68753C10.6637 7.57177 11.2669 7.63118 11.815 7.85824C12.3632 8.08531 12.8318 8.46982 13.1614 8.96317C13.491 9.45652 13.667 10.0365 13.667 10.6299C13.667 11.4255 13.3509 12.1886 12.7883 12.7512C12.2257 13.3138 11.4626 13.6299 10.667 13.6299ZM15.167 0.879883H6.16699C4.77506 0.881372 3.44057 1.43497 2.45633 2.41922C1.47208 3.40346 0.918481 4.73795 0.916992 6.12988V15.1299C0.918481 16.5218 1.47208 17.8563 2.45633 18.8405C3.44057 19.8248 4.77506 20.3784 6.16699 20.3799H15.167C16.5589 20.3784 17.8934 19.8248 18.8777 18.8405C19.8619 17.8563 20.4155 16.5218 20.417 15.1299V6.12988C20.4155 4.73795 19.8619 3.40346 18.8777 2.41922C17.8934 1.43497 16.5589 0.881372 15.167 0.879883ZM18.917 15.1299C18.917 16.1244 18.5219 17.0783 17.8186 17.7815C17.1154 18.4848 16.1616 18.8799 15.167 18.8799H6.16699C5.17243 18.8799 4.2186 18.4848 3.51534 17.7815C2.81208 17.0783 2.41699 16.1244 2.41699 15.1299V6.12988C2.41699 5.13532 2.81208 4.18149 3.51534 3.47823C4.2186 2.77497 5.17243 2.37988 6.16699 2.37988H15.167C16.1616 2.37988 17.1154 2.77497 17.8186 3.47823C18.5219 4.18149 18.917 5.13532 18.917 6.12988V15.1299ZM16.667 5.75488C16.667 5.97739 16.601 6.19489 16.4774 6.3799C16.3538 6.5649 16.1781 6.7091 15.9725 6.79425C15.7669 6.8794 15.5407 6.90167 15.3225 6.85827C15.1043 6.81486 14.9038 6.70771 14.7465 6.55038C14.5892 6.39304 14.482 6.19259 14.4386 5.97436C14.3952 5.75613 14.4175 5.52993 14.5026 5.32436C14.5878 5.1188 14.732 4.9431 14.917 4.81948C15.102 4.69586 15.3195 4.62988 15.542 4.62988C15.8404 4.62988 16.1265 4.74841 16.3375 4.95939C16.5485 5.17037 16.667 5.45651 16.667 5.75488Z" fill="black"/>
</svg>
