<svg id="terms" xmlns="http://www.w3.org/2000/svg" width="48" height="48" viewBox="0 0 48 48">
  <rect id="Rectangle_866" data-name="Rectangle 866" width="48" height="48" fill="none"/>
  <g id="Group_9394-2" data-name="Group 9394-2">
    <path id="Path_60311" data-name="Path 60311" d="M33,43H7a1,1,0,0,1-1-1V6A1,1,0,0,1,7,5H33a1,1,0,0,1,1,1V42A1,1,0,0,1,33,43ZM8,41H32V7H8Z" fill="#057d8b"/>
  </g>
  <g id="Group_9395" data-name="Group 9395">
    <path id="Path_60312" data-name="Path 60312" d="M41,37H36a1,1,0,0,1,0-2h4V12H36a1,1,0,0,1,0-2h5a1,1,0,0,1,1,1V36A1,1,0,0,1,41,37Z" fill="#057d8b"/>
  </g>
  <g id="Group_9396" data-name="Group 9396">
    <path id="Path_60313" data-name="Path 60313" d="M29,12H11a1,1,0,0,1,0-2H29a1,1,0,0,1,0,2Z" fill="#3dc2c2"/>
  </g>
  <g id="Group_9397" data-name="Group 9397">
    <path id="Path_60314" data-name="Path 60314" d="M29,16H11a1,1,0,0,1,0-2H29a1,1,0,0,1,0,2Z" fill="#3dc2c2"/>
  </g>
  <g id="Group_9398" data-name="Group 9398">
    <path id="Path_60315" data-name="Path 60315" d="M29,20H11a1,1,0,0,1,0-2H29a1,1,0,0,1,0,2Z" fill="#3dc2c2"/>
  </g>
  <g id="Group_9399" data-name="Group 9399">
    <path id="Path_60316" data-name="Path 60316" d="M29,24H11a1,1,0,0,1,0-2H29a1,1,0,0,1,0,2Z" fill="#3dc2c2"/>
  </g>
  <g id="Group_9400" data-name="Group 9400">
    <path id="Path_60317" data-name="Path 60317" d="M29,34H11a1,1,0,0,1,0-2H29a1,1,0,0,1,0,2Z" fill="#3dc2c2"/>
  </g>
  <g id="Group_9401" data-name="Group 9401">
    <path id="Path_60318" data-name="Path 60318" d="M29,38H11a1,1,0,0,1,0-2H29a1,1,0,0,1,0,2Z" fill="#3dc2c2"/>
  </g>
</svg>
