<svg id="Icon_-_LMS_-_Topic" data-name="Icon - LMS - Topic" xmlns="http://www.w3.org/2000/svg" width="22" height="22" viewBox="0 0 22 22">
  <rect id="Rectangle_3127" data-name="Rectangle 3127" width="22" height="22" fill="none"/>
  <g id="Group_9502" data-name="Group 9502" transform="translate(-77 -253)">
    <path id="Path_60478" data-name="Path 60478" d="M96,271H80a1,1,0,0,1,0-2H96a1,1,0,0,1,0,2Z"/>
  </g>
  <g id="Group_9503" data-name="Group 9503" transform="translate(-77 -253)">
    <path id="Path_60479" data-name="Path 60479" d="M87,259H80a1,1,0,0,1,0-2h7a1,1,0,0,1,0,2Z"/>
  </g>
  <g id="Group_9504" data-name="Group 9504" transform="translate(-77 -253)">
    <path id="Path_60480" data-name="Path 60480" d="M96,267H80a1,1,0,0,1,0-2H96a1,1,0,0,1,0,2Z"/>
  </g>
  <g id="Group_9505" data-name="Group 9505" transform="translate(-77 -253)">
    <path id="Path_60481" data-name="Path 60481" d="M87,263H80a1,1,0,0,1,0-2h7a1,1,0,0,1,0,2Z"/>
  </g>
  <g id="Group_9506" data-name="Group 9506" transform="translate(-77 -253)">
    <path id="Path_60482" data-name="Path 60482" d="M96,263H90a1,1,0,0,1-1-1v-4a1,1,0,0,1,1-1h6a1,1,0,0,1,1,1v4A1,1,0,0,1,96,263Zm-5-2h4v-2H91Z"/>
  </g>
</svg>
