<svg id="user-placeholder" xmlns="http://www.w3.org/2000/svg" width="48" height="48" viewBox="0 0 48 48">
  <rect id="Rectangle_866" data-name="Rectangle 866" width="48" height="48" fill="#fff" opacity="0"/>
  <g id="Group_9393" data-name="Group 9393" transform="translate(-303.25 137.076)">
    <path id="Path_60310" data-name="Path 60310" d="M333.4-111.14a8.292,8.292,0,0,0,2.183-5.6,8.342,8.342,0,0,0-8.333-8.333,8.342,8.342,0,0,0-8.333,8.333,8.292,8.292,0,0,0,2.183,5.6c-6.873,2.065-6.659,9.033-6.656,9.109a1,1,0,0,0,1,.953h.043a1,1,0,0,0,.957-1.039,7.314,7.314,0,0,1,6.627-7.428,8.269,8.269,0,0,0,4.181,1.136,8.269,8.269,0,0,0,4.181-1.136,7.314,7.314,0,0,1,6.627,7.427,1,1,0,0,0,.953,1.042h.047a1,1,0,0,0,1-.955C340.059-102.107,340.273-109.075,333.4-111.14Zm-12.483-5.6a6.34,6.34,0,0,1,6.333-6.333,6.34,6.34,0,0,1,6.333,6.333,6.34,6.34,0,0,1-6.333,6.333A6.34,6.34,0,0,1,320.917-116.743Z" fill="#308138"/>
  </g>
</svg>
