<svg xmlns="http://www.w3.org/2000/svg" width="48" height="48" viewBox="0 0 48 48">
  <g id="work" transform="translate(126.333 -232)">
    <g id="Group_9391" data-name="Group 9391">
      <rect id="Rectangle_866" data-name="Rectangle 866" width="48" height="48" transform="translate(-126.333 232)" fill="none"/>
      <path id="Path_60306" data-name="Path 60306" d="M-81.333,243h-14v-2a3.086,3.086,0,0,0-.778-2.069A2.761,2.761,0,0,0-98.183,238h-7.739c-1.577,0-3.411,1.311-3.411,3v2h-14a1,1,0,0,0-1,1v10a5.816,5.816,0,0,0,2,4.7V274a1,1,0,0,0,1,1h38a1,1,0,0,0,1-1V258.7a5.822,5.822,0,0,0,2-4.7V244A1,1,0,0,0-81.333,243Zm-26-2c0-.386.771-1,1.411-1h7.74a.766.766,0,0,1,.581.268,1.1,1.1,0,0,1,.268.732v2h-10Zm12,17h-14v2h14Zm-21,0h-2c-2.617,0-4-1.383-4-4v-9h40v9c0,2.617-1.383,4-4,4h-2v2h2a7.4,7.4,0,0,0,2-.285V273h-36V259.715a7.389,7.389,0,0,0,2,.285h2Z" fill="#308138"/>
    </g>
    <path id="Path_60306-2" data-name="Path 60306" d="M-111.333,263h-3v-5h3Zm21,0h-3v-5h3Zm-26-3v4a1,1,0,0,0,1,1h5a1,1,0,0,0,1-1v-7a1,1,0,0,0-1-1h-5a1,1,0,0,0-1,1v3Zm28-2v-1a1,1,0,0,0-1-1h-5a1,1,0,0,0-1,1v7a1,1,0,0,0,1,1h5a1,1,0,0,0,1-1Z" fill="#51c041"/>
  </g>
</svg>
