<svg id="Icon_-_UI_-_Calendar_-_16px" data-name="Icon - UI - Calendar - 16px" xmlns="http://www.w3.org/2000/svg" width="16" height="16" viewBox="0 0 16 16">
  <rect id="Rectangle_3157" data-name="Rectangle 3157" width="16" height="16" fill="none"/>
  <path id="Path_60508" data-name="Path 60508" d="M5.1,144H5v-1a1,1,0,0,0-2,0v1H-1v-1a1,1,0,0,0-1-1,1,1,0,0,0-1,1v1h-.1A3.9,3.9,0,0,0-7,147.9v6.2A3.9,3.9,0,0,0-3.1,158H5.1A3.9,3.9,0,0,0,9,154.1v-6.2A3.9,3.9,0,0,0,5.1,144ZM7,154.1A1.9,1.9,0,0,1,5.1,156H-3.1A1.9,1.9,0,0,1-5,154.1v-6.2A1.9,1.9,0,0,1-3.1,146H-3v1a1,1,0,0,0,1,1,1,1,0,0,0,1-1v-1H3v1a1,1,0,0,0,2,0v-1h.1A1.9,1.9,0,0,1,7,147.9Z" transform="translate(7 -142)"/>
</svg>
