<svg id="check" xmlns="http://www.w3.org/2000/svg" width="48" height="48" viewBox="0 0 48 48">
  <rect id="Rectangle_866" data-name="Rectangle 866" width="48" height="48" fill="none"/>
  <g id="Group_9676" data-name="Group 9676" transform="translate(-165.637 -311.909)">
    <path id="Path_60619" data-name="Path 60619" d="M186.981,346.661a3.977,3.977,0,0,1-2.829-1.172L177,338.335a4,4,0,1,1,5.657-5.656L186.981,337l17.057-17.056a4.1,4.1,0,0,1,5.656,0,4,4,0,0,1,0,5.656l-19.885,19.885A3.971,3.971,0,0,1,186.981,346.661Zm-7.154-13.154a2,2,0,0,0-1.414,3.414l7.153,7.154a2.058,2.058,0,0,0,2.829,0L208.28,324.19a2,2,0,0,0,0-2.828,2.047,2.047,0,0,0-2.828,0l-18.471,18.47-5.739-5.739A1.987,1.987,0,0,0,179.827,333.507Z" fill="#51c041"/>
  </g>
  <g id="Group_9677" data-name="Group 9677" transform="translate(-165.637 -311.909)">
    <path id="Path_60620" data-name="Path 60620" d="M189,355a19,19,0,1,1,9.575-35.414,1,1,0,1,1-1.009,1.727A17,17,0,1,0,206,336a17.4,17.4,0,0,0-.114-1.981,1,1,0,1,1,1.986-.231A19.01,19.01,0,0,1,189,355Z" fill="#308138"/>
  </g>
</svg>
