<svg id="Icon_-_UI_-_Copy_-_16px" data-name="Icon - UI - Copy - 16px" xmlns="http://www.w3.org/2000/svg" width="16" height="16" viewBox="0 0 16 16">
  <rect id="Rectangle_3305" data-name="Rectangle 3305" width="16" height="16" fill="none"/>
  <g id="Group_9650" data-name="Group 9650" transform="translate(7 -339)">
    <path id="Path_60597" data-name="Path 60597" d="M2,355H-4a3,3,0,0,1-3-3v-6a3,3,0,0,1,3-3H2a3,3,0,0,1,3,3v6A3,3,0,0,1,2,355Zm-6-10a1,1,0,0,0-1,1v6a1,1,0,0,0,1,1H2a1,1,0,0,0,1-1v-6a1,1,0,0,0-1-1Z"/>
  </g>
  <g id="Group_9651" data-name="Group 9651" transform="translate(7 -339)">
    <path id="Path_60598" data-name="Path 60598" d="M6,351v-2a1,1,0,0,0,1-1v-6a1,1,0,0,0-1-1H0a1,1,0,0,0-1,1H-3a3,3,0,0,1,3-3H6a3,3,0,0,1,3,3v6A3,3,0,0,1,6,351Z"/>
  </g>
</svg>
