<svg xmlns="http://www.w3.org/2000/svg" width="16" height="16" viewBox="0 0 16 16">
  <g id="Icon_-_UI_-_Modules_-_16px" data-name="Icon - UI - Modules - 16px">
    <rect id="Rectangle_3304" data-name="Rectangle 3304" width="16" height="16" fill="none"/>
    <g id="Group_9629" data-name="Group 9629" transform="translate(7 -317)">
      <path id="Path_60565" data-name="Path 60565" d="M-1,332H-5a1,1,0,0,1-1-1v-4a1,1,0,0,1,1-1h4a1,1,0,0,1,1,1v4A1,1,0,0,1-1,332Zm-3-2h2v-2H-4Z"/>
    </g>
    <g id="Group_9630" data-name="Group 9630" transform="translate(7 -317)">
      <path id="Path_60566" data-name="Path 60566" d="M3,324H-1a1,1,0,0,1-1-1v-4a1,1,0,0,1,1-1H3a1,1,0,0,1,1,1v4A1,1,0,0,1,3,324Zm-3-2H2v-2H0Z"/>
    </g>
    <g id="Group_9631" data-name="Group 9631" transform="translate(7 -317)">
      <path id="Path_60567" data-name="Path 60567" d="M7,332H3a1,1,0,0,1-1-1v-4a1,1,0,0,1,1-1H7a1,1,0,0,1,1,1v4A1,1,0,0,1,7,332Zm-3-2H6v-2H4Z"/>
    </g>
  </g>
</svg>
