<svg xmlns="http://www.w3.org/2000/svg" width="48" height="48" viewBox="0 0 48 48">
  <g id="global-rank" transform="translate(-231.637 -231.9)">
    <g id="global-rank-2" data-name="global-rank">
      <rect id="Rectangle_866" data-name="Rectangle 866" width="48" height="48" transform="translate(231.637 231.9)" fill="none"/>
      <path id="Path_60378" data-name="Path 60378" d="M254.637,239.139v7.741a39.229,39.229,0,0,1-5.813-.577c1.677-3.82,4-6.414,5.813-7.163Zm0,9.741V255.9h-7.965a26.834,26.834,0,0,1,1.407-7.7,41.124,41.124,0,0,0,6.558.682Zm-9.964,7.019h-6.985a17.881,17.881,0,0,1,3.488-9.674,34.578,34.578,0,0,0,4.969,1.561A28.894,28.894,0,0,0,244.673,255.9Zm0,2a28.932,28.932,0,0,0,1.471,8.111,34.522,34.522,0,0,0-4.968,1.561,17.866,17.866,0,0,1-3.488-9.672Zm2,0h7.964v7.019a41.013,41.013,0,0,0-6.558.685,26.761,26.761,0,0,1-1.407-7.7Zm7.965,9.019v7.74c-1.817-.747-4.136-3.342-5.813-7.164a39.609,39.609,0,0,1,5.812-.575Zm2,7.751v-7.751a39.457,39.457,0,0,1,5.8.575c-1.663,3.806-3.966,6.427-5.8,7.176Zm-5.857-35.086a21.258,21.258,0,0,0-3.934,6.316,33.378,33.378,0,0,1-4.323-1.3,17.991,17.991,0,0,1,8.257-5.016Zm-8.258,29.608a33.227,33.227,0,0,1,4.323-1.3,21.334,21.334,0,0,0,3.934,6.322,18,18,0,0,1-8.257-5.021Zm17.983,5.037a20.953,20.953,0,0,0,3.946-6.329,34.071,34.071,0,0,1,4.32,1.3,17.977,17.977,0,0,1-8.266,5.029Zm12.277-11.881a17.833,17.833,0,0,1-2.658,5.236h0a34.453,34.453,0,0,0-4.971-1.565,28.788,28.788,0,0,0,1.029-4.035l-1.823-1.315a26.722,26.722,0,0,1-1.184,4.932,41.012,41.012,0,0,0-6.539-.68h0V257.9h5.839l-.52-2h-5.32v-7a17.762,17.762,0,0,0,8.109-1.714l-1.4-1.559a15.71,15.71,0,0,1-6.709,1.273v-7.946a17.839,17.839,0,0,1,5.5,1.182V238a19.993,19.993,0,1,0,13.1,22.828Z" fill="#308138"/>
    </g>
    <path id="Path_60618" data-name="Path 60618" d="M278.137,243.9v-8a1,1,0,0,0-1-1h-14a1,1,0,0,0-1,1v8a1,1,0,0,0,.257.67h0l.952,1.058,1.4,1.559.868.963a8,8,0,1,0,8.61.038l3.616-3.577A1,1,0,0,0,278.137,243.9Zm-14-.384V236.9h5v10.038h0a7.772,7.772,0,0,0-.775.112.114.114,0,0,0-.051.008,7.854,7.854,0,0,0-.8.2Zm11.75,11.384a6,6,0,1,1-6-6A6.006,6.006,0,0,1,275.887,254.9Zm.25-11.416-3.834,3.791a8.036,8.036,0,0,0-1.166-.267V236.9h5Z" fill="#51c041"/>
  </g>
</svg>
