<svg xmlns="http://www.w3.org/2000/svg" width="75.497" height="127" viewBox="0 0 75.497 127">
  <g id="Pattern_-_10" data-name="Pattern - 10" transform="translate(75.497) rotate(90)">
    <path id="Path_60495" data-name="Path 60495" d="M174.011-702.218h.007l0-.005Z" transform="translate(-53.992 726.069)" fill="#3dc2c2"/>
    <path id="Path_60496" data-name="Path 60496" d="M-70.806-714.979c-.037.25,0,.192-.187.281.284.39.018,2.3-.046,2.712l.187-.094h.047v.281l-.187-.094c-.181.193-.09.18,0,.421h-2.152c-.022-.322-.169-.317-.234-.515v-1.637l-.234-.374a15.254,15.254,0,0,1-.094-3.887v-.51a.258.258,0,0,1,.045.068,3.044,3.044,0,0,1,.049-.3l-.094-1.31q.023-1.824.047-3.648l-.141.14h-.047c-.04-.263-.1-.353,0-.562.069-.154.066.058.141-.093.2-.275-.021-.685.047-1.029a22.441,22.441,0,0,0,.094-3.461v-1.263a11.429,11.429,0,0,0,.047-3.321c.262-.285.1-3.022.187-4.022q-.046-.444-.093-.889a17.142,17.142,0,0,0-.047-3.508l.187-1.543a10.312,10.312,0,0,1-.187-1.637l.094-.935a7.4,7.4,0,0,1-.047-3.321l-.187.047.187-.561c-.18-.066-.077-.043-.187-.187-.185-.347.325-1.745,0-2.338l.187-.094a.614.614,0,0,1-.094-.374,1.843,1.843,0,0,1,.094-.562v-.234c-.34-.3.112-1.306-.281-1.5l.187-.047c-.454-.5.37-1.347-.14-2.011.454-.34.2-1.275.094-1.45l.374-.281s-.212-1.484-.234-1.684a18.476,18.476,0,0,1-.047-2.947v-.094l-.047-.14a4.607,4.607,0,0,0,1.824.094l-.047-.234c.141-.01.469.225.748.28,0,1.638.195,2.42.187,4.257a30.5,30.5,0,0,0,.14,5.8l-.14.561a13.475,13.475,0,0,0,.094,3.18,2.423,2.423,0,0,1-.094.982l.14,1.777a6.423,6.423,0,0,1-.187.842,7.016,7.016,0,0,0,.14,1.918c.039.2-.237.55-.187.608l.281,1.17a1.37,1.37,0,0,0-.234,1.075l.234.234-.234.8a11.6,11.6,0,0,0,.094,3.04c.154.725-.231,1.8.234,2.2-.21.4-.1,1.455-.281,1.918-.064.142.071.208.094.561l.187-.047-.187.234a1.028,1.028,0,0,0,.234.327c-.147.016-.028.049-.141-.046-.242.271-.023,1.445-.094,1.824l.047.187-.047.094c-.472.139.128,2.346.047,2.526l-.234.234a18.129,18.129,0,0,1,.14,4.116,1.7,1.7,0,0,0,.14,1.216,7.26,7.26,0,0,0-.187,2.151h.234l-.234.281C-70.371-718.511-71.2-715.358-70.806-714.979Zm-3.648-47.474-.234-.047-.094-.14.234-.047v-.093l-.234-.047c-.059.33-.4.376-.655.515v.234a.931.931,0,0,1,.608.14l-.561-.047-.047.234v.234c.035.149-.071.225.047.281v.14c.135-.1.071-.015.094-.14a.4.4,0,0,1,.14.187l-.281.047v.375h.047l.141-.187c.062,0,.075.283-.094.234l-.14.047v.421c.14.031.172.187.047.234v.047c.17-.046.062.156-.047.234v1.683c.125.031.109.234.047.187l-.094.187.047.047c.107.082.14.187,0,.234l-.047.093v.094l.094.047c.078,0,.016.047-.094.047.093.075.064.064.234.094.015.063.031.125.047.187-.133.1-.093.065-.281.047v.421c.267.049.2.1.468.14-.173.107-.16,0-.234.234l-.187-.094.047-.094c-.18.194-.01.5-.094.375l-.047.515.328.14v.047l-.328.234.234.281-.187-.047c.064.208-.034.1.14.187-.125.109-.119.043-.187.234.078-.016.094.062.047.047l-.047.093.187.328c-.149-.008-.064-.03-.187.047l.047.14c.092-.05.062.031-.047.047l.047.748c.239-.009.249.265.187.28.1.2.025.1.234.094l-.421.14c.086.166.089.137.281.187l.047.14h-.274c.036.063.067.063.087.14h-.094l-.094.047.094.234c.037.058-.021.073.187.094-.115.092-.019.027-.141.047-.078.1-.074.092-.094.281.147.038.165.007.281.093-.141.155-.022.076-.234.094a.823.823,0,0,0,.234.608v.047l-.187-.047.047-.094c-.253.242-.075,1.262.141,1.5l-.187.047c.022.266-.043.211.187.28l-.234.047a3,3,0,0,1,.047.515c-.1.144.084.087.234.094l-.234.14h.187c-.021.233-.181.11,0,.234-.07.22.036.119-.187.187.01.271-.024.249.187.327-.134.187-.108.094-.047.328-.136.132-.007.007.14.14h-.281v.047l.047.8.234-.047-.094.047-.047.094h.234a2.123,2.123,0,0,0-.328.14h.187c-.058.155-.336.761-.047,1.029.031.219.057.061-.141.187q.047.537.094,1.076c.01.022,0,.076-.047.28h.187l-.187.188c.09.025-.061.023,0,.094l.047,2.572c-.031.106-.282.181-.187.421a2.622,2.622,0,0,1,.14,1.263c-.337.842-.14,3.072-.14,4.444v1.356a7.325,7.325,0,0,0-.187,2.385l.14.281c-.438,1.13.013,2.97-.234,4.3q.023.351.046.7a8.157,8.157,0,0,0-.093,3.087l-.047,1.5a20.419,20.419,0,0,0,.14,3.32c.107.519-.153,1.659.14,1.777a9.534,9.534,0,0,0-.047,3.508c-.469,0-1.259-.067-1.4.327v-.233a4.885,4.885,0,0,1-.561-.14,16.518,16.518,0,0,0-.141-3.321c-.236-1.252.158-2.425-.047-3.508-.208-1.1.057-2.293-.094-3.134l.094-.608a14.29,14.29,0,0,0-.047-2.853,9.122,9.122,0,0,1,.094-1.5c-.039-.958-.06-2.158-.047-2.713.011-.482-.164-1.022.187-1.263l-.234-.14c-.025-.4-.025-.556.187-.8l-.187-.094a.861.861,0,0,0-.14-1.076l.281-.327v-.047c.075-.391-.285-.821-.234-1.123l.187-.467-.047-2.012.187-.187-.187-.421.187-.234-.234-.374c-.139-.6.293-1.956-.234-2.152.067-.224.02-.167.187-.14v-1.684c.216-.164.128-.678-.187-.655l.187-.187c-.045-.316-.107-.212-.187-.467l.094.14.14-.047a8.2,8.2,0,0,1-.047-2.105c.047-.12.3-.367.234-.7a34.914,34.914,0,0,1-.187-5.986c-.078,0-.078-.078,0-.094-.021-1.9-.261-3.463.187-4.958l-.187-.561a14.255,14.255,0,0,1,.234-2.76l-.141-.467a18.421,18.421,0,0,1,.187-2.245h-.234v-.047c.135-.206.024-.154.234-.094l.14-.094-.187-.281c1.3-.243,2.889.328,3.461.14.129-.072.051.008.047-.14l.421.047.047.187-.094-.094c-.195.1-.2.306-.187.608a1.222,1.222,0,0,1-.655.047Zm4.209,53.273-.047.094.047.093a1.028,1.028,0,0,1-.468-.187Zm-1.918-61.412c-.112-.055-.061-.116-.14,0-.28.126-.506.762-.608.935l.187.14v.047l-.187-.094h-.047l.094.234-.187-.094c.032.292-.484.593-.234.842v.047l-.234-.047c.03.187,0,.139.094.234v.14l-.14-.233-.421.842-.094-.047v.094c-.184-.083-.13-.024-.187-.234l-.094.281h-.047a11.119,11.119,0,0,0-1.824-3.742c-.3-.426-.7-.471-.935-1.169l-.14-.14v-.047l.187-.047h.047s3.779.41,4.958.047c.842-.028,1.155.036,1.543.421l-.421-.233c-.24.22-.806,1.3-1.123,1.356l.141.281-.187-.14-.094.094c.119.136.1.08.234.14l-.141.093m-7.39.375.281.047c.016-.141.031-.281.047-.421l.374.14a.624.624,0,0,0-.14-.233l.234-.327a5.988,5.988,0,0,1,1.4,2.151c.19.07.077.035.327,0l.047.047-.187.187c.1.8,1.243,1.775,1.45,2.713l.094.047c-1,.547-3.19.116-4.3,0-.666-.069-1.5.178-2.245.187.14-.18.126-.091.14-.327l.234.047-.047-.421h.234c-.016-1.057,1.434-2.186,1.4-2.712l.281.14-.187-.374.187.047-.094-.234c.149.008.064.03.187-.047l-.094-.187c.143-.121.17-.1.374-.093C-79.566-770.052-79.484-769.987-79.553-770.217Zm.094,61.224-.28-.14c-.2.031-.178.045-.281-.14l.094-.047a.738.738,0,0,1,.492.214C-79.475-709.13-79.458-709.02-79.459-708.993Zm-10.57-2.572-.047.047.094.14c-.659-.355-2.089-.187-2.947-.28h-.047c-.063.143-.073.118-.047.28l-.093-.187s-2.323-.148-2.432-.094c-.339.167-4.985.045-6.267.14-.376.028-1.005-.244-1.5,0-.095-.146-.022-.1-.234-.14.236-.778,1.111-1.344,1.637-1.871s.9-1.312,1.45-1.777a32.136,32.136,0,0,0,2.759-2.432l2.012-2.339a42.441,42.441,0,0,1,4.256-3.975,22.71,22.71,0,0,0,2.012-2.339c1.3-1.455,2.878-2.633,4.116-4.162l.7-.515c1.062-1.245,2.18-2.232,3.274-3.508l.935-.936c.36-.1.159-.136.468-.047a1.517,1.517,0,0,0-.187.983h.094c.047.161-.122.234-.047.608a12.437,12.437,0,0,1,.047,4.163q.047,1.286.094,2.572l-.047,1.777a6.965,6.965,0,0,1-.094,2.292q.07.679.141,1.357l-.141.7c0,.018-.068,1.935-.047,1.964.427.575-.007,5.834,0,7.577a49.52,49.52,0,0,1-6.22-.047l-.514.14A12.833,12.833,0,0,0-90.029-711.565Zm1.59,2.432-.047.14-.468-.093-.094-.14.234-.094C-88.439-709.217-88.673-709.086-88.439-709.133Zm-17.539-2.526-.328-.047-.234-.561.374-.327.281.421C-105.941-711.781-105.993-712.051-105.978-711.658Zm-.141-.983c-.469-.393-.4-.57-.748-1.076a14.514,14.514,0,0,0-1.964-1.917c-.493-.48-1.341-1.9-2.011-1.918a.5.5,0,0,1-.187-.467h-.234l-.14-.094.187-.094a2.031,2.031,0,0,0-.982-.889l-.047-.28h-.234a11.235,11.235,0,0,0-2.339-2.432c-.1.129-.028.009-.047.187-.171-.094-.134-.074-.14-.327l-.234.047c.082-.111.046-.08.187-.14a.829.829,0,0,0-.561-.421v-.234c.523.26.894.718,1.4.935l1.31.28.374.468a15.049,15.049,0,0,0,2.2.655c.739.234,3.988.639,4.444.374s1.2.293,1.4-.233c0,0,.32.211.467.187l1.824-.28a29.2,29.2,0,0,0,4.49-1.637v-.234h.421a8.826,8.826,0,0,1,1.637-1.169c-1.785,2.4-4.367,4.242-6.5,6.314a31.753,31.753,0,0,0-2.572,2.619A9.644,9.644,0,0,1-106.119-712.641Zm-26.052-.608.094.094c.092-.115.027-.018.047-.14,0-.075.013-.01-.094-.141l.047-.047a2.626,2.626,0,0,0,.14-1.731c-.118-.1-.028-.06-.187-.047-.059-.135.086-.075-.047-.14h.234c.114-1.162-.168-3.616.094-5.286l-.14-1.5c.235-1.155-.063-2.152.094-3.414l.094-1.543a16.328,16.328,0,0,1,.093-4.49q-.07-.584-.14-1.169a9.627,9.627,0,0,1,.093-2.853l.094.14c.23.169.149.171.374.047a8.412,8.412,0,0,0,2.572,2.853l-.094-.187a13.438,13.438,0,0,1,1.4,1.73,9.117,9.117,0,0,1,1.45,1.17,5.885,5.885,0,0,0,.936,1.169c.163.127.373.266.514.14l.374.7.7.421a15.46,15.46,0,0,1,1.637,2.1l1.029.7.655.842c.525.4,3.188,2.866,3.227,3.321.141.044.022.043.14-.047,1.184,1.668,3.279,3.327,4.771,5.145.5.606,1.481.932,1.637,1.684.193-.082.118,0,.094-.187l.094-.047.421.421.047.094-.234-.047h-.047c.134.544.5.363.748.7l.047.328h.374l.562.748.047.14c-.237.035-.2,0-.281.187-1.18-.61-3.737.326-5.8,0l-5.94-.093-2.245.093a17.059,17.059,0,0,0-3.835-.046c-2.3.037-3.766-.28-5.8,0l-.047-.14C-132.145-712.094-131.738-712.657-132.171-713.249Zm.094-26.426c.381-.284-.055-4.187.094-4.957v-1.777c-.311-1.387.364-3.822-.047-5.192a.6.6,0,0,0,.14-.514c-.223-1.169.225-2.213.047-3.087-.355-1.732.017-5.148,0-8.139l6.548-.047c.52-.08,1.357.215,1.684-.047.192.217.792.05,1.17.094l3.461.047c.069-.147.038-.045.047-.234.388.4,1.249.028,2.339.234a30.859,30.859,0,0,0,4.958,0c.016-.094.078-.094.094,0a23.86,23.86,0,0,0,3.695.047L-111.4-759.6c-.044.188-.1.064.047.187l-.374.421c-.112.07-.053.028-.094-.094a11.587,11.587,0,0,0-2.432,2.479c-.35.425-.755.464-1.216.8-.053.038-.686,1.02-.748,1.122h-.094c.126.091.078.057.234.047-.155.166-.379.137-.562.281-.271.213-.324.6-.561.842l-.14.094.187-.187c-.416-.141-.871.785-1.123,1.029-.6.584-1.237,1.075-1.871,1.637-.438.389-.682.9-1.029,1.169-.136.159-.123.261-.187.094-.9.667-1.661,1.8-2.525,2.479l-.935.7-1.17,1.637c-.191.18-.4.086-.655.234l-1.263,1.5a23.007,23.007,0,0,0-3.836,3.882l-.327-.047.187-.187C-131.96-739.708-131.854-739.607-132.077-739.675Zm34.33-23.9c2.528.391,5.965-.214,8.513.187.658.1,1.592-.081,2.011.047l1.45-.14a5.353,5.353,0,0,1,1.684.14c.73.15,2.156-.2,2.853,0l-.093-.187a3.313,3.313,0,0,0,1.4.093c.055.148-.094,1.918-.094,1.918.048.04.093.187-.14.281.231.4.107.923.094,1.637h.234c-.019.182-.02.006.047.187l-.281-.047v.047l.141.234-.234.047c.448,1.2-.236,2.7.047,4.256.164.906-.081,1.859,0,2.619a29.8,29.8,0,0,1-.047,4.958h.234l-.047.047a3.334,3.334,0,0,0-.187,1.871c.249.484-.207,3.481.094,4.724.085.351-.2.8,0,1.169-.417.117-1.08-.873-1.45-1.169a58.778,58.778,0,0,1-4.35-4.3c-2.259-2.233-4.357-4.779-6.875-6.735-.821-.638-1.253-1.981-2.151-2.526a9.671,9.671,0,0,1-1.17-.655c-.309-.247-.416-.927-.7-1.216a8.392,8.392,0,0,0-1.824-1.4l-1.5-1.871c-1.255-1.358-2.881-2.361-3.882-3.976h.421v-.234l.327.234c.171-.093.079.022.14-.187C-102.518-762.966-98.786-763.736-97.747-763.575Zm7.156,35.359-.655.467a20.8,20.8,0,0,0,2.432-4.771c.206-.655.011-.83.328-1.356h-.328q.07-.234.141-.468a.714.714,0,0,1,.14.187c.267-.249.046-.726.327-.889l-.234-.28a7.557,7.557,0,0,0,.374-2.105h-.514l.327-.093c.513-1.534-1.131-6.631-1.777-7.764l-1.45-2.151a93.657,93.657,0,0,1,6.642,6.642c.939,1.016,2.606,2.08,3.274,3.274l.094.093c-2.335,1.942-4.241,4.368-6.548,6.361-.854.739-1.547,2.218-2.619,2.666C-90.672-728.213-90.711-728.366-90.591-728.216Zm-.748-4.022a.456.456,0,0,1-.28.047l.14.234v.046c-.121-.015-.094-.015-.234-.093a1.2,1.2,0,0,0-.234.888h-.327c.087-.166-.059-.044.094-.187a.59.59,0,0,0-.421-.14c.127-.1.025-.036.234-.047v-.047l-.281-.047.141-.094-.047-.14c-.135.1-.071.015-.094.14l-.14-.187h.187c-.169-.263-.4-.6-.655-.561l.187-.187c-.337-.1-.343-.259-.468-.561l-.094-.047-.14.187h-.047l.094-.328-.234.14.14-.234-.234-.187c-.177-.2-.1-.129-.374-.094l.14-.234a.758.758,0,0,0-.608-.327l.094-.14c-.178,0-.081-.013-.234.047.009-.188.034-.217-.14-.327-.064-.125-.006-.029-.14,0,0-.229-.156-.249-.28-.468l-.234.094.094-.14v-.047l-.187.094c.057-.261-.263-.344-.421-.655a.377.377,0,0,0-.421,0c.024-.474-1.511-1.237-2.011-1.4l-.094-.14a5.494,5.494,0,0,1,2.292-1.4l-.047-.187.281.047c.11-.238.3-.315.327-.608a.4.4,0,0,0,.234.094c.1.042.722-.516.8-.655.033-.088.05-.015,0-.094.054-.039.008-.084-.047-.047h-.047l.094-.141.14.187c.85-.838,2.367-2.079,2.759-3.461.626.432,1.341,5.163,1.637,6.034.374,1.1-.476,1.777-.14,2.526l-.234.093.094.281-.14-.094A7.24,7.24,0,0,0-91.339-732.238Zm-1.964-.328.047-.094h.047Zm-1.684-10.8c.047.256-.26.4-.561.374,0,.738-1.086.89-1.029,1.31-.192,0-.065.06-.187-.047-.176.167-.973.541-1.122.842-.109.141-.034.025,0,.234h-.14c-.118-.337-.132-.087-.328-.14l.094.187-.608.14.094.187-.281-.14a5.988,5.988,0,0,1-4.3,1.637l.561-1.45c.269-.237.54-.325.561-.7.362.042.262-.083.561-.187v-.327a7.884,7.884,0,0,0,2.807-1.824c.8.168,1.367-.368,2.1-.655,0,0,1.368.028,1.45.047l.14-.281.047.047-.047.187.7-.14c-.2.285-.354.572-.514.561C-94.982-743.37-94.9-743.476-94.987-743.37Zm.187-2.9-.047-.187c-.575.365-2.369.268-2.947.421a6.371,6.371,0,0,0-1.5.748h-.468a7.6,7.6,0,0,0-.935.655l-.467.047c-.3.178-.421.495-.8.655v-.982h-.515v-.047c.178-.065.1,0,.187-.141.126.028.095.033.234.141.375-.488-.08-2.672-.141-3.181h-.7v-.047l.047-.14.28.094.187-.094c.218-1.18-.787-3.332-1.309-4.209.6-.236,1.592.253,2.011.421a11.294,11.294,0,0,1,1.637.468c.915.627,1.915,1.17,2.76,1.637v-.14c1.1,1.252,2.8,1.952,3.554,3.554l.14.141C-94.016-746.535-94.6-746.575-94.8-746.269Zm-5.706,10.664.281-.14c.141.1.123.044.187.234.23-.041.141.035.234-.14l.094.281.047.094a5.177,5.177,0,0,1,1.263.467c.444.275,1.875,1.67,2.2,1.684v.234h.327l.047.374c.454-.047,1.558,1.581,1.778,1.965-.318-.17-.671.082-.842-.281h-.141l.141.234a3.283,3.283,0,0,1-.421-.047v.187c-.178-.145-.473-.177-.514-.328l-.187.094v.094a.7.7,0,0,0-.842-.281l-.047-.421a5.229,5.229,0,0,1-2.712-.7l-.234.187c.138-.18-.025-.694.141-.982v-.14l-.187.234a3.813,3.813,0,0,1-1.4-.561c-.208-.149-.412-.014-.7-.14-1.012-.44-1.5-1.706-1.918-2.759C-103.235-736.5-100.721-736.42-100.506-735.606Zm-3.368,12.255c1.366-2.449,1.552-4.481,1.5-7.531-.092-.074-.064-.063-.234-.094.082-.111.046-.08.187-.14l-.187-.093v-.047a10.6,10.6,0,0,0,1.5.655l1.824.889.281.047c.079-.069-.061-.046-.094-.047.113-.182.091-.115.234-.187q-.023.187-.047.374h.187l-.047-.327.187-.094v.094c-.14.081-.055.1-.093.374l.28.094c.057-.146,0-.128.094-.234h.14c-.081.148.022.055-.14.093a.911.911,0,0,0,.328.421c.312-.116.381-.015.608.14.308-.008.3,0,.374-.234l.094-.047c.06.14,0,.057.094.141-.149.09-.012.046-.187,0l.047.234h.187l.047-.328.094-.047-.047.421.655.093c.209.041.322-.178.328-.468l.047.515c.231.147.216.016.467-.093l.094.093h-.234c.127.258.562.182.8.187l-.14-.14c-.071-.061,0-.016-.093,0l-.094-.187c.18.08.327-.032.421.327h.234l-.187-.374a1.664,1.664,0,0,0,.655.421c-1.391,2.651-5.226,4.71-8.278,5.8-.606.216-1.6.189-2.2.421h-.187C-104.073-722.623-104.146-722.864-103.874-723.351Zm.515-35.921c.142.082.057.09.187-.047.559.623.674,1.095,1.263,1.684.241.242.565.3.842.515.293.23.664.89,1.029,1.216,1.462,1.308,2.822,2.69,4.209,4.069a31.084,31.084,0,0,1-2.806-1.684,27.131,27.131,0,0,0-3.742-1.17l-2.151-.187c-4.172-.765-8.4,1.115-10.9,2.712.37-.713,2.024-1.712,2.058-2.432.532.136,1.756-1.635,2.152-2.1.216-.257,1.059-.764,1.357-1.029.323-.288.471-.853.8-1.122l.514-.187,2.479-2.666.281.047C-104.753-761.036-104.493-759.84-103.359-759.272Zm-1.31,30.963-.094.842c-.085.1-.132.1-.28.14a1.084,1.084,0,0,0,.327.374c-.232.05-.158-.017-.234.187.139.062.1.028.187.14h-.047l-.094-.094a2.361,2.361,0,0,0-.327,1.076l-.375.187-.094.515.047.187-.14-.14c-.02.217-.1.343-.14.655l-.094.047c-.041-.288-.077-.275-.234-.234.047-.292-.04-.3,0-.468l-.28-.094c.146-.609-.146-.687-.281-1.123v-1.029a3.686,3.686,0,0,1-.187-1.683l-.234.047v-.187l.187.047c.185-.15-.052-.147.187-.234l-.281-.047c.083-.164.128-.407.281-.514l-.187-.094c.257-.42-.239-.8-.094-1.356.3-1.15.643-2.571.889-3.648.517.4,1.31,1.734,1.076,1.871a1.833,1.833,0,0,1,.234,1.075c.092.075.064.064.234.094-.108,1.417.01,1.7,0,3.368l.234.047C-104.6-728.264-104.525-728.31-104.669-728.309Zm.094,8.232h-.094l.047-.093Zm-.8-23.479c.052.192-.049.082.141.14-.362.505-.284,1.1-.561,1.731.009.031-.081.152-.281.281a9.2,9.2,0,0,0-.514-2.058c-.068-.453.162-1.028-.094-1.543.109-.143.7-3.85.7-4.163l.187-.14c.424.444.707,3.35.514,4.3C-105.394-744.431-105.011-743.869-105.371-743.557Zm-3.18,21.328-.094.047v-.234c-.835-.224-1.988-.672-2.806-.935h-.468c-.117-.078-.068-.254-.28-.281-.231-.029-.153.019-.234.14a1.068,1.068,0,0,0-.421-.421l-.234.187c.087-.106.087-.063.14-.234-1.7-.5-3.4-2.381-4.63-3.554v-.094a6.869,6.869,0,0,1-.6-1.056l.181.027c.234-.008.133-.089.234,0h.655c-.016-.094-.032-.187-.047-.28.1.035.123.134.234.28l.187-.14c.1.1.063.091.234.14.064-.143.074-.118.047-.28l.187.187.047-.187c.058.08.061.122.14.187.255.14.782-.2,1.4-.234l-.094-.328c.122.117.072.062.094.187.283.183.361-.02.561,0,.279-.148.186-.07.094-.328l.094.047.047-.14.047.327c.223-.028.481-.031.608-.234l.094-.047h-.187l-.047-.187h.047c.03.012.041.046.047,0,.17.082.125.05.187.234l.421-.14v-.327h.047l.094.047h.14c-.128.1-.025.036-.234.047v.14l.328-.047c.026-.109,0-.064-.047-.187l.094-.094-.047.14.421-.047.14-.094-.14-.281h.094c.02-.042.013-.032.047,0,.168-.146.093-.04,0-.234.174.125.2.124.187.327h.187l-.094-.327h.047l.28.187c.118-.149.065-.139.328-.187l-.094-.328c.111.082.08.046.141.187.217-.078.221-.155.234-.421l.093.14c.259-.026.439-.294.749-.374l-.094-.281a.4.4,0,0,0,.234.094,35.769,35.769,0,0,0,.14,3.648l.234.047-.281.047a2.277,2.277,0,0,1,.187,1.123c.19.086.113.053.328,0l-.187.28c-.255.779,1.1,3.244,1.5,4.022l-.983-.093Zm-20.112-16.931,1.356-1.263.374-.514c.238-.165.546-.234.7-.468.394-.592,1.01-.867,1.4-1.4l.187-.421c.293-.243.465-.25.655-.608h-.187a2.076,2.076,0,0,1,.749-.374q-.024-.211-.047-.421l.141.187,2.759-2.759c.127.06.064.027,0,.14a14.024,14.024,0,0,0-1.45,2.2c-.866,2.393-1.928,5.553-1.45,8.278.18,1.025.236,3.968.936,4.069a5.524,5.524,0,0,0,.374,1.824c.316.7.855,1.042.842,2.1a2.992,2.992,0,0,1,.7.608v.093l.094-.187c.164.223.233.592.374.8a16.691,16.691,0,0,1-2.385-2.385c-1.775-1.638-3.531-3.342-5.239-5.051-.5-.5-2.067-2.5-2.619-2.666l.047-.093C-130.626-737.381-129.009-738.764-128.663-739.16Zm8.746,11.927.187.234a.74.74,0,0,1-.421-.234Zm.094-4.4-.094.047c-1.028-1.453-1.726-6.459-.982-8.7.013-.309.023-.372-.187-.467a10.917,10.917,0,0,0,1.123-2.994s1.39,1.965,1.4,2.058l.094-.141c.154.879,3.945,3.959,5,4.21l.094.14A12.252,12.252,0,0,0-119.823-731.63Zm10.991-2.993c-.295-.017-.878.643-1.029.935a5.761,5.761,0,0,1-1.029.748s-.272.278-.234.421c-.178.179-1.183.454-1.59.748L-112.9-732a.974.974,0,0,0-.14.561l-.047-.094c-.152-.023-.251-.085-.281.234l-.187-.14c-.176.1-.242.054-.28.327-.439-.11-.374.028-.983.047v.234l-.187-.234a1.32,1.32,0,0,0-.7.328l-.187-.328h-.187v.234c-.681,0-1.1.43-1.5.234h-.094c.119-.754.967-2.405,1.543-2.385l.14-.187-.234.094a8.932,8.932,0,0,1,2.385-1.778c.158-.241.079-.164.14-.421.256-.023.225.017.421.14,1.1-.621,2.1-.683,3.321-1.263a6.632,6.632,0,0,0,1.777.187,4.72,4.72,0,0,0-.421,1.262l-.327.094Zm-8.512-9.4.187.047v-.14c.236.081,1.291.012,1.543.421.138-.036.059,0,.187-.14.423.181.566.457,1.075.187.052.433.441.45.7.281a8.4,8.4,0,0,0,2.993,1.543c.053.066.647.647.655.936.322.016.4.171.654.094-.111.462.6,1.592.889,2.058v.141l-.327.047c-.927-.039-1.093-.405-1.871-.468l.094-.14a3.438,3.438,0,0,1-1.777-.8v.187l-.094.047c.016-.124.032-.249.047-.374-.242.069-.173-.087-.281.094l-.421-.468-.141.187c.112-.592-.849-.352-1.169-.655a31.257,31.257,0,0,0-2.947-2.76C-117.225-743.859-117.286-743.8-117.344-744.024Zm8.372-6.5c-.462,2.209-1.142,4.208-.982,6.548H-110a6.652,6.652,0,0,0-1.871-.982l-.094.187c-.462-.88-4.655-1.564-6.548-1.543v-.047a15.5,15.5,0,0,1,6.875-5.472c1.088-.417,2.411-.34,3.415-.889C-108.223-752.724-108.853-751.1-108.972-750.526Zm26.987-19.27a.476.476,0,0,0,.14-.324,1.235,1.235,0,0,1-.327.418l.234.234-.28-.14a.49.49,0,0,0,.14.281l-.187-.094c-.13.219-.168.257-.094.467-.2.042-.1-.076-.187.14-.083.11-.039.092-.04.175a.137.137,0,0,1,0,.062l.04.02c-.039-.017-.042-.012-.04-.02l-.007,0a.331.331,0,0,0,.007-.059.352.352,0,0,0-.007-.035c-.187.143-.127.212-.094.468h-.047l-.047-.233-.421.842-.094-.14-.047.187h-.047c-.376-.488-.643-1.861-1.122-2.526-.739-1.023-1.318-1.683-1.918-2.62a25.113,25.113,0,0,0,3.835.047l.094-.187.374.187a2.619,2.619,0,0,1,2.385.514l-.562-.327.047.094c-.125.064-.028.005,0,.14-.145.026-.031-.053-.14.046-.169.1-.156.089-.093.281l-.187-.093c-.288.364-.155.619-.608.842v.047c.122.112.108.079.234.094-.166.169-.049.077-.28,0l-.14.14-.047.14h.14l.094.047a.322.322,0,0,0-.047.187l-.187-.187h-.047c-.066.15-.169.368-.28.562l.186.14m-6.688-.515c.132-.014.051.032.094-.093l.374.14c-.053-.314.037-.37.047-.608a5.719,5.719,0,0,1,1.45,2.2c.166.1.1.012.374,0-.073.15-.116.148-.234.234.249.73,1.562,2.276,1.637,2.993-1.863,0-4.41-.135-6.6.047l-.047-.094c.31-.2.367-.222.328-.655.608-.3.865-1.869,1.263-2.058.133-.064.149-.033.047-.14l.094-.094.187-.187c.049-.139.173-.064.047-.14.14-.158.027-.093.234-.047.1-.186,0-.193-.14-.374.152.027.278-.108.374-.187l-.14-.187.094-.047c.133-.1.093-.065.281-.046-.035-.177.041-.171,0-.374l.234.047Zm-.093-2.1-.14-.047.14.281-.468-.094-.14-.234C-88.729-772.706-88.567-772.7-88.439-772.6Zm-1.684,1.543h0c0,.019,0,.046,0,.093l-.023-.023c-.039.127-.012.035-.211-.024v.094l-.094-.047-.047.14c.126.156,0,.06.187.094-.049.178-.064.1,0,.28-.167-.125-.11-.051-.14-.233h-.14c.066.32-.452.383-.374.888l-.187-.093.047.14c-.041.155.042.148.141.281-.1-.057-.117-.05-.187-.14-.092.161-.053.055,0,.234-.146.026-.031-.053-.14.047-.116.084-.187.159-.094.374l-.234.047c.049.155-.054.166.094.187-.138.148-.092.027-.281.234v.14l.14.094-.187-.094-.468.8c-.146-.026-.031.053-.14-.047-.188-.234-.02-.5-.14-.748-.478-.993-2.058-3.669-2.76-4.116.813-.34,1.624.1,2.339-.281a21.579,21.579,0,0,0,3.929.047l-.187.187.374.327-.374-.233-.094.047.234.187a.542.542,0,0,0-.421,0v.234l.187.047-.094-.093.187.14-.094-.047c-.08.13-.18-.017-.328-.093-.094.151-.382.6-.28.655-.13.086-.166.028-.281.234l.118.118.022-.07m-7.156.467.374.14c-.046-.179-.086-.171-.047-.327l.14-.187h.047a7.429,7.429,0,0,1,1.4,2.2l.281-.094-.187.328c.23.288.975,1.186.842,1.731.148.014.093.011.234-.047a1.848,1.848,0,0,0,.654,1.169c-.091.1-.016.051-.187.094a3.566,3.566,0,0,1-1.075-.14,8.72,8.72,0,0,0-2.62.187,3.69,3.69,0,0,0-1.59-.234,2.026,2.026,0,0,0-.608.328.984.984,0,0,0-.562-.281.666.666,0,0,0,.281-.655h.234a11.442,11.442,0,0,1,1.122-2.292l.14-.047.047-.187.14.047-.094-.187c.142-.031.227.006.14-.281l.187.047c-.08-.125-.071-.022-.047-.14s.1-.027.094-.375a.4.4,0,0,1,.327-.046c-.014-.21.069-.145,0-.374l.281.047Zm-1.918-.421a.392.392,0,0,0,.094-.234l.187.187C-99.113-771.124-98.985-771.1-99.2-771.012Zm-3.461-1.731v-.047l-.047-.14.327.047-.14.094c.615.3,1.458-.164,2.105,0l.421.234a.757.757,0,0,1,.608-.187l-.046-.187.234.187c.285,0,.294.029.375-.187l.234.047-.187.047.047.094h1.263c-.022.165-.024.11.047.281-.068-.079-.045.061-.047.094-.157-.093-.465-.01-.654-.328h-.047l-.047.187.328.327-.468-.28-.047.14.234.14-.281-.093.187.234-.047.047-.14-.187h-.14a4.712,4.712,0,0,0-.374.655c.116.122.062.072.187.093l-.094.234c-.119-.14.017-.18-.234-.28-.027.3-.065.152-.14.327-.154.143.008.127.14.234-.174.027-.142-.027-.281-.141l.047.187c-.126-.025-.086-.13-.14,0l-.094.094c.146.094.072.043.234.047-.093.128.045.05-.093.14l.046.093-.234-.187.094.14c-.367.027-.22.529-.7.842l.187.234-.234-.14.093.281-.234-.047c-.048.264-.089.223,0,.421l-.281.094c.076.246.069.093.187.234l-.047.094c-.061-.026-.036.018-.047-.047l-.14-.094v.375l-.187-.094a1.48,1.48,0,0,1-.561.889c-.389-2.228-2.09-3.725-2.993-5.192Zm-3.976,2.526.28.047c.029-.313.07-.218,0-.421l.421.14c-.088-.33.024-.3.047-.608l.7.842-.141-.094-.094.094a2.538,2.538,0,0,1,.936,1.309c.235.128.113.084.421.047v.047l-.234.281a21.583,21.583,0,0,1,1.637,2.759v.047c-2.458.025-3.842.146-6.642.14v-.047c.242-.283.383-.248.374-.748h.234c-.012-.55.76-1.591.842-1.777.06-.12.038-.014-.047-.187.227.073.592-.485.608-.748l.234.093v-.046l-.14-.281c.25-.032,0-.09.281-.187-.068-.186,0-.109-.14-.14.143-.214.186-.192.421-.187C-106.67-770.035-106.57-769.981-106.633-770.217Zm-5.8-2.479c.016-.062.032-.125.047-.187.734.522,3.655.239,5.145.234.02.289.141.29.374.468l-.467-.233c-.072.165-.048.006,0,.187l-.421.234a4.606,4.606,0,0,0-.514.842l-.094.094.327-.047.047-.281c.124.022.072-.031.187.094-.18-.058-.144.1-.14.281-.2-.1-.153-.06-.234.14l-.14-.14a.625.625,0,0,0-.234.14l-.047.094.234.14v.046h-.094v.093c-.088-.113.008-.078-.14-.187h-.047l-.327.608c.126.069.113,0,.234.14-.137.122-.142-.047-.14.187-.09-.14-.047-.065-.046-.28h-.094c-.065.267-.14.136-.094.374-.03.073-.017,0,.047.187l-.187-.14-.047.187.141.094-.234-.094v.187c-.133.139-.147.087-.047.234-.124.1-.093-.029-.187.187l-.093.094.187.094c-.265,0-.869.92-.842,1.076l-.14.047a13.927,13.927,0,0,0-1.216-2.807c-.15-.244-.649-.678-.608-.935a4.788,4.788,0,0,1-1.076-1.356C-112.967-772.448-112.886-772.7-112.433-772.7Zm-2.9,2.1.28.14c.084-.129.083-.343.187-.561a1.323,1.323,0,0,1,.514.889c.093-.115.027-.019.047-.141a6.833,6.833,0,0,1,.889,1.45l.281-.047-.187.328c.513.65,1.086,2.505,1.731,2.853v.14c-.433-.263-.353-.063-.983-.047l.047.187-.234-.187a.892.892,0,0,0-.514.234c-.063-.117-.034-.059.094-.094-.332-.317-.983.054-1.5-.047-.785-.154-1.31-.15-1.871-.281-.533-.124-.984.218-1.45,0h-.094a1.712,1.712,0,0,1,.14-.514c.064-.179.087-.093.234-.094-.2-.6,1.458-2.321,1.4-2.712l.187.093.094-.093c-.111-.113-.1-.029-.234-.281l.187.094c-.025-.126-.13-.086,0-.14l-.047-.094c.251.053.169-.03.094-.281.269-.083.289-.185.421-.234-.025-.108-.01-.056-.094-.187l.328.047-.047-.328C-115.295-770.512-115.375-770.465-115.333-770.591Zm-2.479.749-.187-.047.094-.14C-117.783-769.927-117.871-769.977-117.812-769.842Zm.047-.562.047.281C-117.81-770.244-117.761-770.178-117.765-770.4Zm.094.094v-.14l.094.094Zm-.515-2.479c.639.282,2.137-.111,2.479.187l.094.094h-.094c.159.172-.446-.1-.514-.141l-.047.141h-.094a1.851,1.851,0,0,0,.374.234l-.14-.187.187.14-.046.14-.421-.28c-.079.215-.184.182-.234.514h-.047c-.237-.012-.445.618-.655.748v.14l.094.047v-.141l.141.094-.141.047.094.047c-.186.092-.107.043-.281-.094l.094.281-.047-.094-.14-.094-.046.094-.047.14h.234l-.187.233c.021-.175.051-.077-.094-.187a3.5,3.5,0,0,1-.421.7c.069.154.092.127.187.234l-.281-.093v.093l-.094.094.234.187-.234-.094a1.263,1.263,0,0,0-.327.8l-.141-.094c.058.19-.02.1.141.14-.137.161-.016.107-.281.187.025.2.01.111.14.281l-.234-.14c-.1.487-.427.581-.467.889h-.094c-.657-2.391-1.972-3.485-2.946-5.1C-121.436-773.157-119.3-772.235-118.186-772.789Zm-6.174,2.245.374.094a.628.628,0,0,0-.14-.233l.234-.281c.642.436.867,1.383,1.45,2.1.135.1.048.029.28,0l-.187.328a13.46,13.46,0,0,1,1.637,2.853c-2.33,0-3.909.02-5.987.047l.094.141-.654-.141-.047-.094c.223-.178.336-.2.327-.655h.234c-.077-.57.791-1.614.935-2.011.132-.067.093,0,.047-.14a.633.633,0,0,0,.421-.561l.281.14-.187-.374c.212.093.161-.343.281-.468.133-.1.093-.065.281-.046-.014-.21.069-.145,0-.374l.28.047Zm-.14-1.964-.14.094.047-.094Zm-6.922,0c.928-.309,4.1.173,4.537-.234a6.071,6.071,0,0,1,2.152.141l.093.094h-.093c.161.179-.453-.106-.515-.141h-.047l-.047.187c.321.17.259.085.421.327-.169-.082-.234-.134-.421-.093l.047-.187-.14-.047-.046.094.093.14c-.54.012-.618.806-.888.935l.187.187-.047-.094.14.14a.649.649,0,0,1-.327-.187v.094c-.093.146.017.148.14.328l-.28-.187-.094.094-.094.14c.125.092.056.042.234.094a.32.32,0,0,0-.047.187l-.187-.187-.047.093c-.145.026-.325.49-.467.749l.28-.234.094.094c-.164.189-.185.084-.421.28h-.094l.187.234-.234-.14.094.281-.141-.094-.094.234c-.073.127-.133.066,0,.187-.135.1-.154.132-.281.14.045.17,0,.1.094.187h-.14v.468h-.046l-.047-.233a.893.893,0,0,0-.281.7c-.184,0-.241-.01-.281.187-.366-.312-.331-.911-.561-1.4a23.148,23.148,0,0,0-2.385-3.508Zm-2.292,2.666a2,2,0,0,0,0-.374l.234.047v-.328c.131.017.06.035.094-.093l.374.14a1.683,1.683,0,0,1,.047-.608,5.984,5.984,0,0,1,1.45,2.2c.172.107.073.019.328,0a.447.447,0,0,1-.187.234c.229.964,1.235,2.008,1.731,3.04-.308-.142-.367.146-.655.094a24.129,24.129,0,0,0-6.034-.187c.249-.291.293-.2.281-.7h.281c-.063-.566.635-1.262.842-1.777.06-.12.038-.014-.047-.187.248.036.587-.486.608-.748l.234.14c-.006-.192-.033-.2-.14-.374l.28-.187c-.068-.186,0-.109-.14-.14C-134-769.864-133.971-769.859-133.714-769.842Zm-4.35,8.278-.8.047.047.421c.143-.09.065,0,.094-.14l.14.14-.281.094v.328h.374l-.281-.047v-.047h.374v.234c-.206-.045-.175.016-.374-.047l-.094.094v.421h.374l-.374.187v.047c.17-.046.1,0,.187-.094l.094.094a1.786,1.786,0,0,0-.421.374c.141.393.038.922.14,1.357.067.22.126.216.327.28v.047c-.093.1-.076.035-.14.187l-.094-.141-.187.094.047.234c.188-.063.171.125.046.187h-.093c.131.211.034.138.327.14-.1.2-.048.108-.28.094.065.082-.045.336-.047.748l.172.047h.015v0c.109.03.127.082.047.323-.211-.066,0-.021-.187-.187h-.047a.668.668,0,0,0,.187.468v.14h-.047l-.047-.234H-139v.515l.374.14-.374.28.234.234h-.187c.064.208-.034.1.14.187l-.234.094c.147.174.186.414.234.234l-.093-.046-.094.093.187.328c-.148-.008-.064-.03-.187.047l.047.14c.187-.005.039-.115.187,0a1.249,1.249,0,0,1-.234.047l.047.608.374.14c-.086.171-.071.1,0,.28h-.187c.085.165-.027.057.14.14-.182.1-.136.056-.327,0,.074.2.18.179.28.421-.19-.058-.1.02-.14-.14h-.14c.058.223.111.168.14.28h-.093l-.094.047c.1.141.044.123.234.187l-.187.047a2.285,2.285,0,0,1,.234.187c-.178,0-.08-.013-.234.047v.187c.147.038.165.007.28.093l-.187.187c-.038.236.062.328.187.515h-.14a.558.558,0,0,0-.047.468c-.033.42-.076.774.234.889-.092.074-.064.063-.234.094.031.289.022.2.187.327h-.187a3.49,3.49,0,0,1,0,.608h.281l-.281.14.234.094c-.052.173.047.253-.234.328.046.367.292.478,0,.655l.281.14-.281.047v.14l.047.655.234-.047-.047.094h-.094l.234.047-.281.047c.082.147-.022.055.14.093l.047.093a.414.414,0,0,1-.234.094,3.7,3.7,0,0,0,.234.983c-.363.072-.209,1.283-.14,1.4.153.271-.141,5.589-.14,8.793a13.605,13.605,0,0,1-.234,2.526c-.145.726.141,1.3,0,1.824-.3,1.095.251,3.414,0,4.116a11.7,11.7,0,0,0-.141,3.7l-.047,1.544a20.612,20.612,0,0,0,.234,4.4v4.3c-.552.013-.679.042-1.17.047l-.047.28-.047-.187c-.14.09-.078.008-.14.187v-.187c-.231-.157-.3.026-.514-.234a7.683,7.683,0,0,1-.14-2.058l.14-.374-.234-1.684.187-2.2a19.078,19.078,0,0,1-.28-3.789,11.9,11.9,0,0,0,.187-2.011,39.682,39.682,0,0,1-.14-4.537c.052-1.246.281-4.069-.14-4.256.535-.98.294-5.887-.047-7.624l.14.094c.137-.817-.137-1.356.234-1.918-.172-.141-.21-.149-.187-.374-.175-.071-.043-.053-.234,0l.234-.281a1.029,1.029,0,0,0-.234-.327h.234a7.4,7.4,0,0,1,.187-2.479c.147-.489-.348-1.924-.234-2.152l.234-.14-.14-.421v-3.6h-.234v-.047l.234-.047c0-.212-.14-1.4-.14-1.4a4.917,4.917,0,0,0,.187-1.871,1.925,1.925,0,0,1-.187-.8,15.378,15.378,0,0,0,.14-4.584,4.272,4.272,0,0,0,.187-2.152c.008-.2.073-.141-.187-.187v-.047c.135-.206.024-.154.234-.094l.14-.094-.14-.281c1.178-.423,2.929.323,3.415.14.128-.072.051.008.047-.14a.6.6,0,0,1,.467.14c.172-.094.1,0,.14-.234a3.754,3.754,0,0,0,1.778.094v-.28c.169.271.384.27.7.327a10.282,10.282,0,0,1,.14,2.105l-.14.421a10.655,10.655,0,0,1,.047,3.134,2.649,2.649,0,0,0,.187,1.216c.213.873-.064,2.281.093,3.18q-.07.959-.14,1.917.047.912.093,1.824v2.993c.088,1.358-.431,3.763.094,4.256l-.234.327v.047c0,.022.048,4.116.094,4.21l-.187.187a16.3,16.3,0,0,1,.421,2.806l-.14-.094c-.106.624.1,1.322-.093,1.778-.129.125.043.528.234.561l-.14.187c.031.288.054.224.187.374-.489-.1-.028.73-.14,1.123a6.079,6.079,0,0,0-.047,3.274c-.026.266-.062.268-.234.374.359.9.139,2.635.187,3.789a.642.642,0,0,0,.14.28,1.682,1.682,0,0,0-.187,1.357h.046l.094.093c-.06.209-.234,1.4-.234,1.4a5.462,5.462,0,0,1,.14,1.964c-.4,1.128.087,3.112-.187,4.116q-.07,1.052-.141,2.1l.281-.047v.281l-.234-.094h-.047c-.079.225-.024.151.047.421h-1.824c-.882-.148-.279-1.25-.514-2.058a12.629,12.629,0,0,1-.282-3.929l-.046-.046.047-.094.005.02c.013-.247.027-.49.042-.722-.178.153-.113.2-.094.375l-.094-.094c.006-.307-.013-.239.14-.281-.269-.75-.047-3.476-.047-5.285a.425.425,0,0,1-.187.047v-.421l.281-.234v-5.379a6.371,6.371,0,0,0,.094-1.263c-.185-.991.32-2.131,0-2.712l.234-.187a62.684,62.684,0,0,1-.047-8.887c.02-.5-.122-1.341-.094-1.59a11.942,11.942,0,0,0-.328-3.6c.295-.1.2-1.529.281-1.731-.19-.061-.081-.033-.187-.187-.151-.066.029.005.047-.187a12.578,12.578,0,0,0,0-2.9l.281-.047-.047-.375-.234-.28c-.151-.092.3-1.121-.14-1.31l.234-.047-.187-.14c.042-.5.453-1.312,0-1.871.5-.269.183-1.31.094-1.45l.421-.328c-.089-.482-.433-1.051-.047-1.5-.376-.325.074-.323-.14-.8-.037-.081-.21-.051-.234-.094v-.047c-.192-.6.4-1.128.047-1.777-.07-.131,0-.115.047-.234l-.281-.141a.892.892,0,0,0-.14.608,1.223,1.223,0,0,1-.655.047l.14.14a.609.609,0,0,1-.28-.047l-.047-.094.234-.094-.187-.14c-.181.145-.528.356-.749.515v.234c.332-.017.44-.025.608.187l-.562-.093-.047.234a2.587,2.587,0,0,0,.842-.047Zm-.655,6.455h-.14l.047-.094h.047Zm.14.467c-.132.088-.107.125-.234,0Zm-2.9,15.248c-.14-.061-.057,0-.141-.094l.094-.047h.187v.047C-141.477-739.427-141.394-739.49-141.478-739.394Zm.982-33.255c.43.38,4.338.053,6.174.047,0,.218.09.181.28.421l-.374-.233c-.031.173-.05.043.094.233l-.234-.093c-.129.108.028.076-.14.093.035.231-.043.138.14.187-.132.078-.232-.06-.327,0l-.28.515-.047.093.14.094c.092-.114.027-.019.047-.14l.14.14h-.14c-.06.029-.017.053-.234-.047l-.094.187-.047.094.14.094c-.022-.167-.067-.107.094-.141l.047-.094-.141.328-.187-.14-.187.187c.086.191.094.034.094.187.011.065.009.011-.047.046l.047.093c-.1-.129-.028-.009-.047-.187h-.14l-.328.655.281.14c-.184-.065-.159.018-.328-.14-.1.182-.049.113-.187.14,0,.178.013.08-.047.234l.234.187-.234-.094-.047.047.14.234-.234-.14-.14.327.14.187-.187-.094-.14.281.187.047c-.128.136-.1.082-.328.094a.47.47,0,0,0,.141.327l-.187-.094-.421.748-.421.047a13.776,13.776,0,0,0-1.824-3.7c-.328-.523-.73-.631-.935-1.169l-.14-.14Zm-2.479,2.432c.379.066.29-.064.28-.281.169.047.136-.059.374.047h.047c-.061-.14,0-.056-.094-.14l.187-.374a6.515,6.515,0,0,1,1.45,2.151c.157.036.089-.01.28-.047l-.187.328a9.98,9.98,0,0,1,1.5,2.619l.094.047c-.989.542-3.154.117-4.257,0-.684-.073-1.529.178-2.292.187.225-.232.336-.242.328-.7h.28c-.189-.406.664-1.3.8-1.777.152-.119.05-.02-.047-.187.169.092.669-.487.608-.608.151-.154.057-.09.28,0l.047-.093-.234-.281.187.047-.094-.234.094.047c.074-.127.133-.066,0-.187a1.056,1.056,0,0,1,.468-.374C-142.907-770.137-142.892-770.085-142.975-770.217Zm-3.368,50.466-.234.094c.231-.593-1.523-2.734-1.964-2.993l-.14-.187a11.451,11.451,0,0,1,3.04-1.216l1.59-.374.655.047a32.436,32.436,0,0,1-.14,4.4c-.055.37.117.525,0,.842a18.837,18.837,0,0,1,.14,4.257c-.368-.232-.33-.581-.8-.748l.14-.281A12.262,12.262,0,0,1-146.343-719.75Zm-3.976,3.648c-.306-.081-.2-.127-.467,0-.092-.584-2.686-1.548-3.368-1.637.815-2.076,2.816-3.2,4.443-4.49h.094c-.005,1.789,1.378,3.875,2.526,5.753.345.564.645,1.975,1.216,2.058l-.047.094a2.6,2.6,0,0,0,.608,1.029l-.047.234h-.047a1.157,1.157,0,0,0-1.263-.7c-.069-.16-.044-.089-.047-.327A14.75,14.75,0,0,1-150.318-716.1Zm3.04,4.537c-2.519-.015-4.434.03-6.361.047-.729.006-1.769-.4-2.432,0l-.14-.187a11.611,11.611,0,0,1,1.45-5.052c.62.459.95,1.517,1.777,1.965A42.807,42.807,0,0,1-147.278-711.565Zm3.882-15.107c-4.645.871-8.255,2.305-10.664,5.379l-.842.514v.281l-.748.655c-.236.328-.112.883-.281,1.123-.148.21-.554.264-.7.514a11,11,0,0,0-.561,1.824l-.562.8a11.267,11.267,0,0,0-.8,3.882,26.005,26.005,0,0,1-5.192.047c-.016.109-.078.14-.094.047a15.282,15.282,0,0,0-4.49.094l-.561-.14a5.414,5.414,0,0,0-1.965.187,1.082,1.082,0,0,0-.8-.094c-.2.077-.138,0-.187.234-.547-.337-6.305-.151-8.045-.14a17.037,17.037,0,0,0-15.388-15.107,30.38,30.38,0,0,1,.094-3.508l-.047-1.216-.094-.047a9.927,9.927,0,0,0,0-2.9,5.321,5.321,0,0,1,.187-1.4,3.339,3.339,0,0,0-.187-1.029,7.63,7.63,0,0,0,.047-2.573l-.234-.047a7.7,7.7,0,0,0,.047-3.461,8.391,8.391,0,0,1,.094-2.339l-.094-1.262.047-2.2c.425.414,1.493.082,2.152-.047,1.645-.323,2.648-1.086,4.116-1.4.145-.191.269-.176.094-.327a16.05,16.05,0,0,0,8.793-11.178h-.047l-.187.047.094-.468c.111.082.08.046.14.187.45-.35.12-1,.187-1.4.118-.088.161-.082.234-.234.62.329,3.429.122,4.771.094l.047-.28.047.234a7.519,7.519,0,0,0,1.5-.047c1.624.461,4.445.061,6.548.047v-.234c.828.6,1.891-.071,3.134.093a9.936,9.936,0,0,0,2.479-.093l2.76.187c.3,1.129.185,2.3.7,3.18.064.125.005.029.14,0l.094.281v.14l-.094-.14h-.047a10.533,10.533,0,0,0,1.918,4.116l.094-.187c.13.32.076.662.327.842a.441.441,0,0,0,.2.088c0-.013-.008-.029-.009-.041l.094.047.025.025a.371.371,0,0,1,.116.116l-.116-.116a.305.305,0,0,0-.109-.031,9.391,9.391,0,0,0,2.142,2.485c.46.369.716.97,1.263,1.356a17.587,17.587,0,0,0,8.278,2.946l-.047.842.047.187.234-.047c-.129.112-.148.092-.187.187-.42.7.148,2.457-.047,3.227a11.283,11.283,0,0,0,.047,3.227,4.779,4.779,0,0,1-.187,1.4l.187.982-.14.608c-.056.813.09,1.147.093,2.011l.234.094c-.172.193-.143.3-.234.561,0,.22-.01.32.094.421a18.557,18.557,0,0,1,0,4.958C-143.609-728.607-143.318-727.643-143.4-726.672Zm-52.01,11.272c.455-.684,0-7.543.14-8.887,2.313.011,3.435.929,5.052,1.5.048.429-1.459,1.408-1.731,1.777l-.141.7a11.811,11.811,0,0,1-.795,1.216l-.047.468c-.471.894-2.16,3.007-2.292,3.882l-.141.047c-.071-.212.023-.2.047-.562Zm13.05-47.006c-.16.093-.055.053-.234,0-.065.788-.608,1.858-.421,2.432-.164.017-.139.059-.14.374l-.234-.14a10.383,10.383,0,0,1-.7,1.5c-.766-.332-1.154-1.3-1.778-1.778l-.7-.094c-.375-.218-.787-.567-1.169-.8-.177-.105-.446-.033-.468-.047-1.032-.66-2.48-1.924-3.695-2.151v-.234c2.6,0,5.808-.331,7.717.094.555.124,1.19-.156,1.637,0,.258-.026.147.342.234.608a.443.443,0,0,0-.234.094v.094C-182.422-762.361-182.5-762.407-182.357-762.406Zm-8.606,2.151c1.982,1.358,3.44,2.65,6.268,3.087l-.094.234c.168.048.131-.019.234.094h-.187l.047.234-.234-.187c-.65,1.648-2.919,2.722-4.023,3.976h-.234a18.522,18.522,0,0,0-.655-2.479c-.316-.543-1.256-1.42-1.5-1.917a11.3,11.3,0,0,0-.421-1.169c-.668-1.1-1.841-2.18-2.058-3.461C-192.982-761.153-191.883-760.885-190.963-760.255Zm-1.216,5.987,1.965,2.151c-1.591.564-3.03,1.528-5.192,1.543a38.882,38.882,0,0,1,.14-4.349c.093-.665-.159-.859-.047-1.357l-.14.047c.306-.944-.265-2.731.047-3.648l.047-.094C-194.365-757.893-193.017-755.945-192.179-754.268Zm-1.543,41.159c.585-.829.955-2.023,1.543-2.807a14.949,14.949,0,0,0,3.087-6.314c1.429.548,3.587,2.986,4.49,4.444-.712.531-1.783.289-2.619.748l-.328.467c-.4.307-.965.376-1.356.7a1.453,1.453,0,0,0-.187.328c-.4.265-.784.231-1.216.467a10.486,10.486,0,0,0-2.152,1.543c-.13-.271-.885.312-1.075.468h-.187Zm7.25-1.4-.094-.14c.908-.089,2.049-1.446,2.526-2.058.955,1.417.966,3.528,1.59,5.286h-6.923c-.981.149-1.643-.159-2.339,0h-.046l-.047-.14C-190.645-712.114-187.05-714.55-186.472-714.512Zm41.206-47.052.14.141a1.489,1.489,0,0,0-.608,1.309h-.327a4.6,4.6,0,0,1-.982,2.011l.094.234-.234-.047a7.558,7.558,0,0,1-1.59,2.479c-.172.884-.763,1.537-.842,2.62-.768-.217-2.638-2.065-3.274-2.713-.407-.415-.538-1.341-1.122-1.637.389-.184,1.966-.2,2.432-.561a34.923,34.923,0,0,1,4.069-2.526C-147.107-760.487-145.389-761.108-145.267-761.564Zm-2.245-1.169c-.235.075-.128.014-.421-.047-.186.445-3.568,2.344-3.788,2.432-.346.138-.481.378-.889.234-.015.094-.031.187-.047.281h-.234a8.039,8.039,0,0,1-1.59,1.356l-.187.187c-.566-1.638-1.462-3.064-1.5-5.238,2.559.035,4.732.393,7.016.046.892-.135,1.487.238,2.058,0l.187.187C-147.172-763.129-147.45-763.136-147.512-762.733Zm4.069,3.274c.016,1.6-.323,4.458.047,6.361.126.648-.433,1.867,0,2.2l-.14.14a1.129,1.129,0,0,1-.883.113l.042.168h-.046l-.044-.176c-1.254-.234-3.141-1.365-3.839-1.227v-.234l-.234.047c.119-.265.818-.634.748-1.029.661.1.952-.843,1.216-1.356,1-1.947,2.486-3.687,3.087-5.191.258.1.156.033.281.233Zm-5.238-13.33a13.158,13.158,0,0,0,2.572.187,2.329,2.329,0,0,1,1.029-.187,5.7,5.7,0,0,1,1.029.094c.375.175.475.347.8.375-.195.127-.208.041-.374-.094-.141.131-.08,0-.047.187l-.14-.047c.062.229.209.182.374.327l-.514-.234.047.281-.187-.093a1.307,1.307,0,0,0-.281.7.47.47,0,0,0-.327.234l.234.141c-.129.029-.134-.029-.281-.094l-.14.187c.127.143.03.07.187.094-.093.128.045.05-.094.14l.047.093c-.117-.09-.065.007-.047-.14-.146.026-.031-.053-.14.046-.249.111-.282.386-.327.562l.187.047-.187.094.093.14c-.173-.133-.091-.035-.093-.28h-.094v.234l-.14-.093c-.032.2.076.065-.094.187l.187.14-.047.047h-.187l.187.234-.281-.094c-.116.463-.313.475-.234.842l-.187-.047.094.327-.14-.094-.047-.094-.374.842-.094-.047v.094c-.388-.143-.41-1.121-.655-1.5a13.527,13.527,0,0,0-1.309-2.245,3.067,3.067,0,0,1-1.029-1.263l-.094-.094C-149.518-772.752-148.891-772.6-148.681-772.789Zm-2.993,2.2.327.14h.047c.022-.169,0-.088-.094-.233l.187-.234v-.094l.655.8-.14-.094-.046.047a5.176,5.176,0,0,1,.935,1.4c.2.075.1.033.374,0-.093.171.022.079-.187.14.086.642.988,1.194.842,1.918.23.129.444.583.748.982l.047.187c-1.888,0-4.433-.138-6.642.047.343-1,2.01-3.108,1.964-3.508l.187.093c.078-.133-.019-.2-.141-.374l.187.094c.027-.229-.032-.134.14-.187v-.374h.327c-.079-.167.027-.1,0-.327h.234Zm-.374-2.1.187.328-.514-.14-.094-.187Zm-4.349-.047a16.041,16.041,0,0,0,3.882.047l-.141.234c.213-.017.072.135.234,0l.187.187c-.306.031-.283-.059-.514-.187l.047.234c-.314-.038-.845.881-.889,1.075h-.094l.047.141c.2-.129.343-.13.094-.047-.086.2-.033.12-.234,0l.14.281-.187-.14-.093.14c.142.084.005.024.187.047-.158.132,0,.092-.28.047-.1.4-.164.264-.328.608.17.079.177.23.047.094-.161.114-.054.115-.234.14-.005.273,0,.182.14.374l-.234-.14-.046.094.14.187-.234-.094c.048.156-.035.163.14.281v.047l-.187-.094-.094.094.094.14c-.142,0-.1,0-.234.094.035.165-.074.123.094.14-.108.141.046.156-.187.141-.285.292-.372.813-.7,1.029v.094h-.047c-.3-2.227-2.064-3.591-2.853-5.051A5.894,5.894,0,0,0-156.4-772.743Zm-4.3,2.152.375.14c-.058-.28-.085-.3.094-.514.731.343.78,1.5,1.5,2.1.075.13.034.021.234,0l-.187.328a3,3,0,0,1,.888,1.777l.14-.047c.179.233.4.8.7,1.169-.3.161-.826-.007-1.263-.094-.7-.137-2.364.26-2.853.14a2.4,2.4,0,0,0-1.357-.187,1.364,1.364,0,0,0-.561.328,1,1,0,0,0-.654-.281,10.2,10.2,0,0,0,1.4-2.572c.261-.283.37-.206.608-.562l-.047-.234.281.14c-.054-.339-.055-.312-.094-.561l.187.047C-161.3-770.224-160.568-770.028-160.7-770.591Zm-5.379-2.152c-.016-.062.187-.078.141-.047.8.389,1.877-.123,2.526.281.15-.191.246-.242.608-.234l-.047-.187.234.187c.287.006.483-.109.421-.094l.047.094,1.029-.047c.034.127.038.146.234.234v.047c-.134.079-.287.1-.608-.094l-.14.047c.042.145.228.252.374.421l-.514-.327q.023.117.046.234c-.148-.008-.064-.03-.187.046-.112.118-.077.116-.047.281l-.187-.093a3.569,3.569,0,0,0-.514.842l-.047.094.187.141c-.173.027-.142-.027-.28-.141.031.078-.031.141-.094.094l-.561,1.123c.169.033.141.018.234.093l-.327-.093.094.14h-.187c.078.078.109.171.047.14h-.047c.031.078-.031.172-.094.141.07.077,0,.039-.094.047-.016.431-.084.529-.281.514.038.264-.017.227.14.281v.047l-.187-.047h-.047c.03.187,0,.139.093.234v.14l-.234-.187-.328.8-.14-.14-.094.234c-.348-2.346-2.151-3.643-2.947-5.145Zm-3.695,2.573v-.328l.047-.093a.506.506,0,0,1,.234.14h.14c-.04-.163.056-.062-.094-.14l.187-.421a6.467,6.467,0,0,1,1.4,2.151c.174.069.053.077.187,0l.187.047-.234.328c.78.371.862,2,1.59,2.572l.047.187c-2.539.02-3.761.153-6.642.14v-.047c.142-.172.2-.142.187-.374l.468-.375c-.183-.521,1.354-2.489,1.4-2.666l.234.093c-.041-.257-.073-.222-.187-.374l.187.047-.14-.281.14.094c.087-.163.05-.107,0-.327l.374-.046c0-.146-.035-.071.094-.187l-.141-.234Zm-6.034-2.526v-.187c.734.522,3.658.24,5.145.234.018.242-.073.1.094.234.09.054.048.047.094-.047.108.129.107.176.234.327l-.561-.327.047.094c-.125.064-.029.005,0,.14-.187,0-.056,0-.234.046v.281l-.187-.093-.234.468.187.234-.234-.187c-.055.112-.116.061,0,.14a.562.562,0,0,1-.328.187v.047c.122.112.108.079.234.094-.166.169-.05.077-.281,0l-.14.187c.127.143.029.07.187.094v.14l-.094.093c-.033-.087-.05-.014,0-.093l-.187-.093-.562,1.029c.062.062.031.094-.047.047l-.047.187c.047.031.016.031-.047,0l-.046.187c-.148.16-.115.086-.047.28-.248.027-.056.077-.234.14.036.138,0,.059.14.187-.248.019-.006.075-.281.047l.094.327-.141-.094-.047-.094-.374.842-.094-.047v.094c-.453-.18-.358-1.005-.655-1.5-.788-1.3-1.925-2.577-2.385-3.555C-176.376-772.452-176.284-772.693-175.809-772.7Zm-2.947,2.1.375.14c-.062-.322-.044-.285.093-.561a2.434,2.434,0,0,1,.544.727l.065.021v.1a4.089,4.089,0,0,0,.889,1.3c.085.075.027.009.28,0l-.234.328a3.486,3.486,0,0,1,.935,1.777l.14-.094a1.954,1.954,0,0,0,.655,1.169l-.047.14c-.317-.351-.377-.039-.935-.047l.046.187-.234-.187a.664.664,0,0,0-.468.234c-.074-.074-.049-.052.047-.094-.334-.326-.975.065-1.5-.047-.782-.168-1.3-.136-1.871-.281-.524-.131-1,.25-1.45,0h-.093c.114-.206.118-.2.093-.561l.234-.047c.332-.855,1.452-2.514,1.4-2.666l.234.046c.1-.186,0-.193-.14-.374a.492.492,0,0,0,.374-.187l-.094-.234a.4.4,0,0,1,.327-.046c.033-.284.053-.151,0-.374l.281.047C-178.761-770.5-178.709-770.38-178.755-770.591Zm-.374-2.1.093.141c-.105.085-.162.091-.374.094l-.141-.234Zm-2.479-.094a3.487,3.487,0,0,0,2.011.094l-.14.234c.26.04.306.024.468.234a.811.811,0,0,1-.515-.187l-.094.047a.118.118,0,0,1-.013.2c.1.052.061.058-.008,0-.36.139-.663.71-.868,1.055l.14.234-.234-.187c.047.094.078.219.047.187l-.14-.094-.047.187c.142.084.079.282.047.094-.228.069-.171.121-.281.327.031.031,0,.031-.047,0l-.187.328v.047c.125-.045.184.1,0,.047-.129.108.028.076-.14.094-.006.273,0,.182.14.374l-.234-.14c-.044.213-.289.763-.421.8.047.124-.023.038.094.094-.106.1-.012.121-.14.047-.145.3-.463,1.014-.748,1.076v.094c-.2-.275-.044-.548-.187-.842a7.409,7.409,0,0,0-.608-.842l-.327-.935a10.22,10.22,0,0,1-1.824-2.526C-184.74-772.786-182.5-772.355-181.608-772.789Zm-6.174,2.2.327.14h.047l-.094-.28v-.047l.281-.187a3.477,3.477,0,0,0,.413.67l.007-.015c.035.09.058.093.055.106a11.484,11.484,0,0,1,.881,1.391l.281-.047-.187.328a12,12,0,0,1,1.637,2.853c-2.52,0-4.711.2-6.548.047l-.047-.047c.225-.232.336-.242.328-.7h.234c0-1.065,1.371-2.255,1.4-2.712.094.047.219-.041.094-.234l.187.047c-.047-.1-.189-.1-.047-.14-.047-.047.009-.04.047-.047.093-.16.053-.055,0-.234.168-.16.127-.14.374-.14l-.047-.187c.173-.085.109,0,.047-.187l.281.047Q-187.805-770.381-187.782-770.591Zm-2.525-2.152c.622.009,2.036-.1,2.385.281a2,2,0,0,1-.748-.187l-.047.094c.109.125.016.187-.14.094l-.047.14.094.047h-.141c.11.207.1.17-.14.093l.047.281-.187-.093c-.285.365-.184.682-.608.842.078.078.11.217-.047.141l-.14.14-.047.14c.078,0,.279.05.14.14.016.031-.109-.031-.187-.093l-.421.8v.047c.111-.082.016.031-.094,0-.045.125.049.049-.094.14l.187.234-.234-.14a.492.492,0,0,0,.14.281l-.187-.047c-.3.325-.123.383-.374.608.116.123.062.072.187.094l-.047.141c-.148-.081-.055.021-.094-.141-.155.115-.145.176-.094.375l-.187-.094-.327.8c-.19-.033-.056-.094-.187.047-.5-.668-.674-1.856-1.123-2.526-.628-.938-1.328-1.633-1.777-2.432C-193.91-772.82-190.745-772.337-190.308-772.743Zm-5.195,66.2a6.463,6.463,0,0,1,.611,1.152l.327-.047v.047l-.187.094c.06.846,1.252,2.331,1.684,3.087-.244-.08-.474.185-.608.14-.1-.033-1.45-.328-1.45-.328-.078.021-.214.063-.375.107l0,1.962h3.6c2.6,0,5.808-.331,7.717.094.555.124,1.19-.156,1.637,0l2.479.094c.118-.088.161-.083.234-.234.62.329,3.429.122,4.771.094l.047-.28.047.234a7.523,7.523,0,0,0,1.5-.047c1.624.461,4.445.061,6.548.047v-.234c.828.6,1.891-.071,3.134.093a9.939,9.939,0,0,0,2.479-.093l2.76.187,2.385-.14c2.559.035,4.732.393,7.016.046.892-.135,1.487.238,2.058,0l6.127.094c1.178-.423,2.929.323,3.415.14.128-.072.051.008.047-.14a.6.6,0,0,1,.467.14c.172-.094.1,0,.14-.234a3.6,3.6,0,0,0,1.711.1c-.007-.017.023,0,0,0,.006.013.037.024.118.038h2.572c2.182-.016,5.015-.031,7.2-.047.52-.08,1.357.215,1.684-.047.192.217.792.05,1.17.094l3.461.047c.069-.147.038-.045.047-.234.388.4,1.249.028,2.339.234a30.88,30.88,0,0,0,4.958,0c.016-.094.078-.094.094,0a23.844,23.844,0,0,0,3.695.047l3.882-.094h.421v-.234l.327.234c.171-.093.079.022.14-.187.561.563,4.293-.207,5.332-.047,2.528.391,5.965-.214,8.513.187.658.1,1.592-.081,2.011.047l1.45-.14a5.347,5.347,0,0,1,1.684.14c.73.15,2.156-.2,2.853,0l-.093-.187a3.313,3.313,0,0,0,1.4.093l2.339.047c1.3-.243,2.889.328,3.461.14.129-.072.051.008.047-.14l.421.047h.187l-.047-.14a4.606,4.606,0,0,0,1.824.094l-.047-.234c.141-.01.469.225.748.28l2.165.113.325-.155v-1.888l-.184-.05-.487.053-.509.093a9.423,9.423,0,0,0-3.228-.14c.607-.525.875-2.207,1.5-2.432l-.14-.187c.254,0,.582-.512.608-.748l.187.094c.05-.174-.041-.232-.14-.374l.187.093c-.064-.176-.034-.027,0-.187l.14-.094-.094-.234c.171-.052.159-.071.328-.047.023-.178.107-.269,0-.327h.28v-.327c.171.036.18-.035.374.047.078-.243-.021-.308.187-.561.072.084.072.084.587.772l.406.154-.011-1.72.011-57.358s.028.073-.372.091a5.887,5.887,0,0,1-.954-.111l-.836-.1c-.728.074-1.22-.054-1.45.187-.313-.018-.265-.047-.421-.187l-.327.187h-.047a23.348,23.348,0,0,0,1.918-3.414l.281.14-.14-.374c.193.009.047-.012.047-.187.295.02.195-.017.14-.281.212-.023.068-.115.328-.046.034-.273.071-.17,0-.374.374.061.383-.177.327-.375.146.051.149-.18.234-.077.047,0,.272-.344.318-.344l.668.8.277.015.011-5.27-1.28.027-1.21.076c-.28-.055-.607-.29-.748-.28l.047.234a4.608,4.608,0,0,1-1.824-.094l.047.14h-.187l-.421-.047c0,.148.082.068-.047.14-.571.187-2.163-.383-3.461-.14l-2.339-.047a3.313,3.313,0,0,1-1.4-.093l.093.187c-.7-.2-2.123.15-2.853,0a5.349,5.349,0,0,0-1.684-.14l-1.45.14c-.419-.127-1.352.057-2.011-.047-2.548-.4-5.985.2-8.513-.187-1.039-.16-4.771.609-5.332.047-.061.209.031.094-.14.187l-.327-.234v.234h-.421l-3.882.094a23.868,23.868,0,0,1-3.695-.047c-.015-.094-.078-.094-.094,0a30.873,30.873,0,0,1-4.958,0c-1.089-.205-1.951.167-2.339-.234-.009.189.022.086-.047.234l-3.461-.047c-.377-.044-.978.124-1.17-.094-.326.262-1.163-.033-1.684.047-2.182.016-5.015.031-7.2.047h-2.572c-.082-.015-.113-.026-.118-.038a3.6,3.6,0,0,1-1.711-.1c-.038.232.031.14-.14.234a.6.6,0,0,0-.467-.14c0,.148.082.068-.047.14-.485.183-2.237-.563-3.415-.14l-6.127-.094c-.571.238-1.165-.135-2.058,0-2.284.347-4.457-.011-7.016-.047l-2.385.14-2.76-.187a9.938,9.938,0,0,1-2.479.093c-1.243-.164-2.306.5-3.134-.093v.234c-2.1.015-4.924.414-6.548-.047a7.523,7.523,0,0,1-1.5.047c-.016-.078-.078-.047-.094.047-1.342.029-4.151.236-4.771-.094-.072.151-.116.146-.234.234l-2.479-.093c-.447-.156-1.082.124-1.637,0-1.91-.425-5.114-.1-7.717-.094h-3.6v5.525a2.652,2.652,0,0,1,.564.973c.2.075.1.033.374,0v.047l-.234.281a16.084,16.084,0,0,1,1.731,2.946c-.3-.131-.355.147-.655.094a13.479,13.479,0,0,0-1.781-.112Zm4.306,1.105.047.281h-.14l.047.28-.187-.094c-.087.387-.25.322-.327.8l-.094-.14h-.047l-.094.187c-.441-2.123-2.172-3.592-2.853-5a28.678,28.678,0,0,0,4.116-.187,11.779,11.779,0,0,1,2.76.094c-.116.089-.068.065-.047.233-.2-.056-.427-.053-.562-.28l-.093.187-.094.047.327.234c-.162-.023-.116-.061-.234.047-.1-.133,0-.051-.047-.234l-.14-.046c-.114.228-.237.3-.187.561l-.187-.094-.514.842-.094.047.234.234c-.213-.056-.134-.115-.234-.046-.19-.051-.46.524-.608.8l.234.187c-.078,0-.312.094-.421.047-.045.17,0,.1-.094.187l.187.187-.187-.094h-.047l.14.281a.64.64,0,0,0-.281-.047C-190.965-705.618-191.034-705.46-191.2-705.438Zm2.9,3.414a9.455,9.455,0,0,0-2.479-.234,38.817,38.817,0,0,0,2.012-3.415l.28.094-.187-.327.187.046c-.05-.211.114-.278.047-.468l.281-.14c-.006-.119.005-.054-.047-.187.13.026.149.022.094-.093h.281q.023-.21.046-.421l.327.141v-.421l.234-.093a5.014,5.014,0,0,0,.366.561h.008l-.005,0a11.381,11.381,0,0,1,.987,1.587l.281-.047-.187.327a11.855,11.855,0,0,1,1.59,2.806C-185.1-702.315-187.945-702.34-188.3-702.023Zm5.379-2.152-.047.094a11.114,11.114,0,0,0-2.9-5v-.187c1.13-.013,3.255.282,4.21-.094a12.226,12.226,0,0,0,2.526.094.358.358,0,0,1,.046.234l.094.046a1.386,1.386,0,0,1-.608-.233l-.094.047-.047.14c.217.034.047.124-.14.046.044.255-.747,1.089-.888,1.31l.187.234c-.253.013-.19.014-.374-.093l-.047.187c.129.1.009.028.187.047l-.094.093c-.345-.087-.7.837-.748.983l.187.187-.234-.14C-181.857-705.871-182.452-704.315-182.918-704.175Zm7.9,2.058-.327-.234a.968.968,0,0,1-.655.187l.046.187c-.33-.224-.42-.127-.8,0l.14-.14-2.806-.047c-.011-.066-.009-.011.047-.047v-.047s-1.864-.031-2.012-.094l-.14-.094c.257-.289,1.777-3.185,1.777-3.227l.234.094c.019-.179-.023-.182-.14-.327.3-.146.277-.166.234-.468l.327-.047c0-.334.1-.14,0-.374.377.052.352-.294.327-.375l.328.141h.047a1.739,1.739,0,0,1,.046-.608c.11.1.162.047.047.14a4.384,4.384,0,0,1,1.357,1.964c.173.13.134.1.421.094v.047l-.234.187a11.579,11.579,0,0,0,1.731,2.947Zm1.871-3.04a1.8,1.8,0,0,0-.561.982c-.119.006-.055,0-.187.047-.419-.566-.39-1.375-.983-1.964v-.421a18.594,18.594,0,0,1-1.964-2.666,1.011,1.011,0,0,0,1.029-.281c.939.63,1.14.019,2.012.094.929.08,2.232.13,3.134.14v.233c.192.007.179.146.187-.046l.187.14v.14l-.515-.28-.094.234.374.281-.515-.234a2.144,2.144,0,0,1-.748,1.029l.187.28-.187-.14c-.2.178-.174.158-.047.374l-.234-.047-.328.608c.135-.006.184.033.281.187-.185-.088-.178-.106-.234-.094-.123.022-.072-.031-.187.094a.51.51,0,0,1,.234.14c-.214-.052-.127-.125-.234.047h-.14l.187.187-.187-.094a3.827,3.827,0,0,1-.467.842l.14.14C-173.148-705.178-173.033-705.257-173.143-705.157Zm.421,2.993c.1-.251.2-.167.187-.421l.234.047c-.093-.547.821-1.753.935-2.058.029-.011.689-.792.608-1.029a.48.48,0,0,1,.281.047h.046c-.061-.224-.119-.227-.234-.374l.234.093c-.064-.176-.034-.027,0-.187,0-.006.08-.115.14-.234l-.14-.094.374-.047c.042-.176.124-.206,0-.327h.281l.094-.374.327.094.047-.094-.187-.094.187-.28a4.793,4.793,0,0,1,1.45,2.058c.19.069.077.034.328,0l.047.047-.187.281c.38.517,1.076,2.361,1.543,2.572l.047.234C-168.516-702.3-169.987-702.16-172.722-702.164Zm8.606-3.274c.018.284.087.081.047.281h-.14c.046.13-.023.123.093.233v.047l-.234-.094-.328.8-.094-.14h-.047l-.094.187a10.663,10.663,0,0,0-1.824-3.741c-.386-.468-.777-.661-.983-1.216l-.14-.14a5.177,5.177,0,0,1,1.777-.094l-.047-.187.328.047c-.115.093-.019.027-.14.047.44.388,1.589-.112,2.151.047l.374.234a.711.711,0,0,1,.608-.187l-.094-.234.281.234c.3-.016.313-.036.421-.234l.187.094-.187.047c.243.159.79.067.983.094.1.031.128.044.234.187l-.047.14c-.222-.076-.356-.089-.468-.28l-.14.187.374.327-.514-.28c-.165.673-.8.8-.935,1.45l.187.14-.28-.14-.141.187c.117.122.062.072.187.094l-.421.14a1.229,1.229,0,0,0,.187.421c-.085-.06-.11.056-.094-.047l-.14-.14-.28.467c.189.013.152-.022.28.14-.155-.068-.13-.074-.234-.094l-.094-.047c-.032.2.076.065-.094.187l.234.234-.234-.14.094.281c-.095-.084-.035,0-.094-.14C-163.844-705.885-163.923-705.422-164.116-705.438Zm5.846,3.087a11.584,11.584,0,0,0-2.619.234,2.711,2.711,0,0,0-1.5-.281,2.992,2.992,0,0,0-.655.328.8.8,0,0,0-.608-.234v-.047c.341-.07.093-.145.327-.187v-.467h.234v-.047l-.467-.608c.147.011.068.039.14-.047.164.123.071.019.093.187l.234.327a27.717,27.717,0,0,0,1.45-2.479l.14.094a.651.651,0,0,0-.047-.561l.094.14c.138-.134.122-.127.094-.328.134-.125.146-.115.328-.094.038-.237.118-.192,0-.327h.28c.077-.271.093-.28.047-.421l.328.141v-.421l.234-.14a5.822,5.822,0,0,0,.35.608h.024l-.017.011a13.2,13.2,0,0,0,1.046,1.532c.075.13.034.021.234,0l-.187.327a2.953,2.953,0,0,1,.888,1.777l.14-.047c.171.226.4.8.7,1.17C-157.32-702.035-157.926-702.262-158.269-702.351Zm2.432-1.824v.094h-.047c-.286-2.092-1.923-3.554-2.853-5,.588-.032,1.866.034,2.151-.234a34.973,34.973,0,0,0,4.023.047c-.056.35.087.261.327.514-.2-.053-.189-.114-.327,0-.05-.079-.087-.059,0-.094l-.047-.14-.094-.046c-.09.171-.1.2-.281.28l.234.375c-.158-.113-.107-.054-.14-.187h-.234a3.592,3.592,0,0,0-.562.982c-.1.139-.053.011,0,.187-.179-.039-.045-.045-.234-.047l-.047.14c.172.033.157,0,.28.093h-.14c-.353-.034-.349.451-.655.7a2.292,2.292,0,0,1,.234.187l-.281-.14-.047.234.187.187-.234-.14-.046.047.14.234-.094-.14C-155.023-705.662-155.141-704.533-155.837-704.175Zm7.858,1.918c-1.589.42-4.426-.447-6.548.093l-.094-.093c.235-.27.331-.244.327-.748h.234c0-1.123,1.448-2.059,1.4-2.666l.234.094c.029-.21-.043-.191-.187-.374l.187.093.187-.421-.093-.047c.141-.136.161-.121.374-.094v-.374l.234.047.047-.421.327.141c.106-.2-.1-.2.094-.421l.094-.14c.074.12.5.468.608.8l-.187-.094c.249.5.776.845.982,1.5l.328-.047v.047l-.187.094a10.026,10.026,0,0,0,1.637,2.993Zm2.1-3.04c-.115.158.024.17-.28.14l.047.28a.33.33,0,0,0-.187-.047c-.055.237-.014.193-.14.328l.094.14-.14-.094-.14.374c-.5-.167-.412-.886-.7-1.4-.728-1.3-1.873-2.517-2.526-3.741l1.17-.047-.094-.047c1.726.366,3.808-.227,5.192.409l.047.012s0,.007,0,.011a2.291,2.291,0,0,1,.235.129l-.14-.234a.571.571,0,0,1,.234.327c-.171-.068-.189-.125-.327,0-.1-.15-.021-.009,0-.223l-.045-.023-.14-.035c-.209.486-.786.751-.935,1.45l.187.094c-.157.027-.126-.081-.234,0-.2.053-.45.5-.608.841.165.072.006.048.187,0l.047.14c-.241.039-.231.084-.421.047-.032.2.076.065-.094.187l.187.187-.187-.094a2.861,2.861,0,0,1-.467.842C-145.941-705.253-146.018-705.3-145.875-705.3Zm4.958,2.993a40.424,40.424,0,0,0-4.63.047c.394-.717,1.934-3.209,1.918-3.368l.234.047h.047c-.016-.151-.067-.176-.187-.327l.187.046c-.043-.189.11-.253.047-.468.166-.17.148-.14.328-.094.069-.174-.034-.1.094-.187-.045-.125.048-.049-.094-.14v-.047c.391.046.285-.051.28-.281a.453.453,0,0,1,.374.047c.082-.239-.055-.274.14-.514a6.534,6.534,0,0,1,1.45,2.151l.28-.047a5.871,5.871,0,0,0,1.4,2.9C-139.274-702.176-140.343-702.3-140.917-702.3Zm3.976-2.853v.233l.094.047-.187-.047-.093.278h0l.088-.044c-.089.072-.052.048-.088.044l-.006,0v0a.182.182,0,0,0-.048,0c.006.119,0,.054.047.187l-.14-.094c-.031.183-.071.136-.14.374a.787.787,0,0,0-.421.047c-.4-2.087-1.885-3.718-2.9-5v-.047l.187-.047.14.14a11.191,11.191,0,0,1,3.321,0l2.76-.14c-.006.119,0,.054-.047.187.109.062.078.093-.094,0-.228.5-.721.717-.935,1.4l.14.187-.234-.14-.561.842-.047.187.187-.094.094.14c-.237.006-.172.07-.281-.047-.09.149-.046.013,0,.187l-.187-.094c0,.178.013.081-.047.234l.187.14-.187-.094-.467.842c.115.092.019.027.14.047C-136.811-705.111-136.681-705.19-136.942-705.157Zm5.753,2.993-.515-.234a4.133,4.133,0,0,1-1.4.234,10.861,10.861,0,0,0-3.227-.14,37.557,37.557,0,0,0,1.918-3.321l.28.047-.187-.374c.278.009.3-.164.234-.421.239-.09.142-.107.374-.047.026-.277.059-.185,0-.374.349.043.243-.073.234-.281.19.01.2-.039.421.047h.047a1.526,1.526,0,0,1,.047-.608,5.376,5.376,0,0,1,1.45,2.2c.172.107.073.019.328,0l-.187.327c.724.759,1.063,2,1.731,2.9C-130.093-702.283-130.623-701.991-131.188-702.164Zm3.461-2.993-.14-.047c-.044.5-.363.465-.468.982-.235-.012-.02-.058-.234.047a12.124,12.124,0,0,0-1.637-3.367,6.973,6.973,0,0,1-1.216-1.59c.857-.062,3.677.056,4.116-.187a14.949,14.949,0,0,1,2.526.094c.135.083.117.09.187.233-.193-.052-.433-.029-.561-.28l-.14.047-.047.187.281.14-.047-.14.187.28a5.552,5.552,0,0,1-.515-.28c-.211.44-.458.452-.608.935l.14.187-.281-.14-.14.328-.094.047.187.094c-.1.21-.037.064-.234,0-.059.118-.041.062-.187.14l.187.234-.094-.093-.14.047.094.141-.14-.094-.281.515c.115.092,0,.272,0,.046-.17.158-.126.269-.28.375.062.078.062.14,0,.094-.126.259-.339.756-.468.748Zm1.777-2.619c-.1.031-.066.032-.187.14-.1-.147,0-.016.094-.281Zm1.123,5.753a3.728,3.728,0,0,0-1.871-.187v.094l.094.047-.748-.187c.181-.2.178-.26.374-.281v-.467h.234c-.162-.624,1.46-2.3,1.4-2.666l.187.094c.095-.177.035-.149-.094-.327.162,0,.132-.065.281-.234l-.094-.187c.157-.117.177-.1.374-.094.042-.176.124-.206,0-.327h.28v-.327a.363.363,0,0,1,.328.047l.094-.187h-.14l.094-.234c.184-.1.08-.107.234-.046a6.8,6.8,0,0,1,1.31,2.058c.19.069.077.034.327,0l-.187.327a17.688,17.688,0,0,1,1.59,2.806A20.856,20.856,0,0,0-124.827-702.023Zm6.548-4.022c-.115-.093-.062.083-.047.14-.146-.036-.345.461-.421.514.081.147-.022.055.141.094-.048.1-.19.1-.047.14l-.234.047c.059.089.067.128-.094.14-.044.264-.047.141,0,.375l-.047-.094a1.464,1.464,0,0,0-.421.608h-.047c-.19-.244-.025-.5-.187-.842-.208-.435-.693-1.417-.935-1.777-.576-.857-1.219-1.543-1.871-2.479.784-.565,3.174.22,4.256-.187a5.71,5.71,0,0,0,2.012.094l-.094.234.374.28-.561-.094-.047.094c-.132.122-.061.144-.047.281l-.28-.094a.7.7,0,0,1-.468.748c.037.27.065.224.187.374a.426.426,0,0,1-.234-.14c-.026.109,0,.064.047.187l-.094-.093-.094-.047-.093.187v.047c.147.038.165.008.28.093h-.223l0,.012.128.129c-.126-.09-.119-.072-.128-.129l-.012-.012h.01c0-.012-.005-.027-.01-.047a.967.967,0,0,0-.468.7l-.094.094.094.047.187-.234.094.187c-.2.01-.1-.025-.14.14l-.328-.14c.009.16.057.068-.047.187l.234.234C-118.266-706.124-118.2-706.127-118.28-706.046Zm6.689,3.929-.328-.234a.968.968,0,0,1-.655.187l.047.187-.234-.187a.578.578,0,0,0-.468.234h-.047c-.016-.147-.049-.027.047-.14a9.592,9.592,0,0,0-2.572-.047h-.234c.036-.115-.021-.022.093-.14a15.482,15.482,0,0,1-2.011-.094l-.14-.094c.058-.2.157-.074.094-.374.1-.171.028-.147.281-.187l-.094-.234c.044,0,1.353-2.1,1.45-2.2.12-.124.042-.087.047-.234l.187.094.094-.094-.187-.233c.022,0,.111-.031.047-.047.13-.16,0-.072.234-.094.029-.424.331-.444.281-.748.354.048.346-.258.328-.375l.327.141a.8.8,0,0,1,.094-.514,6.663,6.663,0,0,1,1.5,2.151l.281-.047a.449.449,0,0,1-.187.234c.217.646.887.979.889,1.87.327.007.469.842.842,1.076Zm1.871-3.134v.094c-.142-.044-.518.866-.748.982l-.047.094c-.447-2.028-1.916-3.283-2.853-5,.293-.1.773-.089.982-.375a2.176,2.176,0,0,0,1.591.281c.117-.058.17-.225.421-.187a23.447,23.447,0,0,0,3.134.14v.233h.234c.136.118.081.1.14.234l-.514-.28c-.233.447-.8.764-.935,1.45l.14-.047v.187c-.344-.2-.56.326-.748.608l-.047.187h.14l.094.14c-.245.031-.326-.015-.421.234h-.094l.187.187-.187-.094-.467.842c.114.092.018.027.14.047C-109.686-705.195-109.592-705.177-109.72-705.251Zm.421,3.087a.45.45,0,0,1,.374-.374v-.467a20.121,20.121,0,0,0,1.5-2.339c.12-.126.127-.073.14-.328l.187.094h.047c-.041-.257-.073-.221-.187-.374l.14.093a3.941,3.941,0,0,0,.234-.421l-.14-.047c.185-.157.169-.147.374-.094.045-.224.06-.181,0-.374l.28.047c.016-.256.1-.289,0-.374v-.047l.421.141c-.064-.207.034-.1-.14-.187l.187-.421a3.341,3.341,0,0,1,.632.867l.022.022-.013-.006c.372.639.745,1.339,1.182,1.316v.047l-.187.094a10.507,10.507,0,0,0,1.543,2.759l.047.234C-105.1-702.3-106.569-702.155-109.3-702.164Zm8.934-3.788-.374.748.187-.094c-.108.143-.2.236-.187.421l-.187-.094-.327.8-.094-.14h-.047l-.094.187c-.64-2.265-2.062-3.619-2.993-5.145l1.824-.047-.047-.187.327.047c-.114.093-.019.027-.14.047.447.394,1.581-.125,2.152.047l.374.234a.712.712,0,0,1,.608-.187l-.093-.234.28.234c.3-.016.313-.036.421-.234l.187.094-.187.047c.353.252.859.031,1.169.234v-.187c.157.164.032.119.094.374-.192-.052-.433-.029-.561-.28l-.094.14-.094.094.421.28c-.191-.058-.18-.129-.328,0-.087-.109-.065-.016,0-.14l-.047-.094-.14-.046c-.09.2-.092.225-.28.327l.234.141c-.161.11-.03.077-.234-.047v.094l-.094-.047a4.6,4.6,0,0,0-.515.842l-.094.047.234.234a.426.426,0,0,1-.234-.14l.047.234-.187-.187-.094.093c.087.255.061.134.234.14-.126.091-.078.057-.234.047l-.374.562.234.187-.094.047-.187-.187v.281l-.14-.094c-.045.17,0,.1-.093.187l.187.094c-.1.156-.013.07-.187,0h-.047c.041.163-.022.087.093.14C-100.257-705.852-100.2-705.974-100.366-705.952Zm.7-1.123h.047l.094.14C-99.712-707-99.572-706.932-99.664-707.075Zm-.094.327v-.187C-99.685-706.808-99.624-706.868-99.758-706.747Zm5,4.443a8.989,8.989,0,0,0-2.666.187c-.439-.28-.836-.167-1.4-.234l-.14-.047a2.864,2.864,0,0,0-.655.328.9.9,0,0,0-.608-.234c.249-.217.336-.208.327-.7h.234c-.158-.644,1.425-2.3,1.4-2.666l.187.094.094-.094-.187-.233.187.046c-.078-.193.089-.3.047-.468.145-.146.107-.1.327-.094l-.094-.234.187.047c-.06-.14,0-.056-.094-.14v-.047c.354.048.346-.258.328-.375l.327.141h.047L-97-707.4l.234-.14a6.916,6.916,0,0,1,1.4,2.2l.281-.094-.187.327c.8.858,1.041,2.054,1.731,2.9A2.037,2.037,0,0,1-94.753-702.3Zm3.227-2.993c-.107.1-.013.12-.14.047l-.234.421c-.082.142-.037.091.047.281l-.094-.14c-.151.16-.088.047-.047.234-.147.039-.294.227-.467.374-.672-2.093-1.812-3.346-2.853-5a7.469,7.469,0,0,0,2.526-.281,9.559,9.559,0,0,0,3.648.094l-.093.234c.078,0,.018.242.093.187l-.046-.14h-.187c.056.328-.806,1.068-.889,1.4-.1.139-.053.011,0,.187l-.094-.093-.094-.047-.047.14c.1.135.015.071.14.094-.23.218-.57.326-.561.842l-.047-.094c-.074.182,0,.053.14.234l-.328-.14.047.14c-.021.171.035.133.141.281l-.234-.14c-.254.347-.267.663-.467.842C-91.552-705.252-91.648-705.318-91.526-705.3Zm1.59-2.385-.093.047-.047-.187c.158-.107.12-.1.14-.234h.047C-89.851-707.841-89.944-707.93-89.936-707.683Zm-1.216,5.519-.094-.14a23.146,23.146,0,0,0,1.824-3.04c.016.1.146-.213.14-.281a.393.393,0,0,1,.28.047c.013-.192-.063-.21-.187-.374.173.024.155-.053.327-.14-.015-.122-.015-.095-.094-.234.182-.164.158-.152.374-.094.036-.27.061-.2,0-.374.36.046.34-.3.327-.375l.328.141h.047a1.508,1.508,0,0,1,.047-.608,6.86,6.86,0,0,1,1.5,2.245l.327-.047v.047l-.234.187a31.612,31.612,0,0,0,1.59,2.759l.047.234C-86.1-702.231-89.441-702.61-91.152-702.164Zm8.653-3.04c-.251.04-.112.017-.327.187l.14.14-.187-.094-.094.328.094-.047c-.145.172-.273.15-.328.514l-.094-.14v.187c-.471-.335-.315-.96-.654-1.5-.452-.715-.845-1.542-1.31-2.2a10.756,10.756,0,0,1-1.17-1.5h1.123l-.047-.094a8.931,8.931,0,0,0,3.554.047c.663-.087,1.293.336,1.684.187l-.094.14.281.14-.047-.14c.18.148-.028.118.187.14v.14c-.137-.064-.326-.168-.515-.28-.114.228-.236.3-.187.561l-.187-.094c-.184.232-.282.628-.608.842l.187.28-.187-.14-.187.187.14.187-.094-.093a1.355,1.355,0,0,0-.468.608l.187.14h.094l-.281.047.094.187c-.136-.15-.09-.1-.094-.328h-.047v.094c-.09.149-.046.013,0,.187l-.14-.094v.187h-.094l.187.187-.187-.094a3.424,3.424,0,0,1-.468.842Zm5,2.9a40.421,40.421,0,0,0-4.63.047c.023-.12.094-.123.093-.328l.14.047c.091-.121-.069-.222.047-.421a10.7,10.7,0,0,0,.982-1.637,3.267,3.267,0,0,0,.7-1.076l.234.094c-.062-.224-.119-.227-.234-.374l.234.093c-.058-.2.045-.159.047-.374.1-.021,0-.025-.047-.094a.383.383,0,0,1,.374-.094c.042-.176.124-.206,0-.327h.281v-.327c.137.032.13-.093.281.047h.14c-.064-.207.034-.1-.14-.187l.234-.374a7.079,7.079,0,0,1,1.4,2.151c.19.069.077.034.327,0l-.187.327c.738.581.771,1.992,1.59,2.572C-75.853-702.173-76.916-702.3-77.494-702.3Zm4.022-2.9-.515,1.029c-.171-.06-.176.043-.28-.187l-.094.28h-.047a10.86,10.86,0,0,0-1.824-3.788c-.3-.349-.742-.606-.889-1.076l-.187-.233.187-.047.14.14c1.029-.366,2.548.4,4.35,0l1.73-.14c.006.248.04.307.327.374-.165.1-.257-.069-.514-.14-.064.172-.046.149-.187.234.065.178,0,.1.14.187v.047c-.185-.028-.065-.092-.187,0-.226.005-.513.582-.7.8l.187.234c-.093-.025-.057.053-.14-.094-.267.036-.224.147-.281.28h.187c-.122.092-.044.046-.187.047a.88.88,0,0,0-.327.468c-.04.085-.058.02,0,.094l-.187.187.234.187-.327-.14c0,.178.012.081-.047.234l.187.14-.234-.047-.234.467.094.14c-.285-.05-.123.077-.28.141.081.147-.022.055.14.094C-73.37-705.142-73.233-705.126-73.472-705.2Z" transform="translate(195.503 775.64)" fill="#3dc2c2"/>
    <path id="Path_60497" data-name="Path 60497" d="M-137.425-702.9c0-1.341-.506-1.722-.748-2.759-.192-.156-.22-.319-.374-.14-.5-1.78-3.369-4.839-4.724-5.1.029-.426-1.581-.669-1.871-1.122-.264-.413-.267-.971-.514-1.356-2.289-3.572-5.725-6.707-11.413-6.688-.291.165-.578-.033-.982.047a22.926,22.926,0,0,0-2.713.514,11.917,11.917,0,0,0-5.332,3.555c-.433.552-1.256.569-1.263,1.59-.233.179-.2.151-.094.374-.795.173-.979,1.124-1.075,1.871-.415.365-.859.27-1.4.561l-3.274,2.339c-2.786,2.349-5.03,8.546-3.274,13.283a14.186,14.186,0,0,0,1.076,1.918c.236.418.173.783.421,1.216.346.6,1.246.931,1.356,1.777,1,.284,1,1.023,1.684,1.45h.561c.325.163.441.6.8.8.448.25,1.009.195,1.4.374a2.958,2.958,0,0,1,1.169,2.339c.284.051.382.123.468.374.2.032.1.1.187-.093a4.456,4.456,0,0,0,.468,1.075c.377.5,1.848,1.634,1.917,2.012a13.163,13.163,0,0,0,6.174,2.759c.476.1,2.808.1,2.9-.187.7.57,4.258-.868,4.817-1.122.056-.22.062-.108,0-.281.735.039,2.28-1.3,2.853-1.731.231-.175.5-.943.8-.748.337-.409.457-1.056,1.029-1.216l-.141-.094c1.174-.826,1.081-3.7,3.415-3.555.276-.507,1.016-1.088,1.169-1.029,3.66-2.628,5.774-6.838,4.677-13.1Zm-9.354-5.846a5.138,5.138,0,0,1,.234,2.993c-.226.593-.658,1.349-.421,1.917l-.187-.093.094.14-.187-.047.14.094c-.095.168,0,.062-.187.047a11,11,0,0,0-.935,1.871,21.4,21.4,0,0,0-3.508-2.245l-.889-.234a2.572,2.572,0,0,1-.468-1.356c-.2-.156-.2-.237-.421-.14.064-.742-1.232-2.211-1.684-2.713-.015-.047-.031-.094-.047-.14a13.147,13.147,0,0,1,3.228-1.263,8.633,8.633,0,0,0,1.871-.514c1.218,0,2.482-.078,3.04.421C-146.836-709.731-146.9-709.18-146.779-708.744Zm-5.145,7.249a2.975,2.975,0,0,1,.8.468c.065.011.011.009.047-.047a5.173,5.173,0,0,0,1.263.982v.047a4.493,4.493,0,0,1-2.1,1.59C-151.84-699.492-151.924-700.776-151.924-701.5ZM-157.21-697l-2.432-.421a3.212,3.212,0,0,0-.234-.889l-.047-2.339a5.225,5.225,0,0,0,.281-1.871c.953-.248,2.579-.606,3.508-.187l1.59.094c.937.571.11,4.585.047,5.332Zm1.731,2.1c-.314.926-1.246,1.255-1.59,2.058a8.83,8.83,0,0,1-1.59-2.011h2.76v-.187A.5.5,0,0,0-155.479-694.9Zm-2.993-10.1a6.653,6.653,0,0,1,1.356-2.058,4.22,4.22,0,0,1,1.59,2.011l.094.094A23.782,23.782,0,0,0-158.472-705Zm-2.432-12.161a23.743,23.743,0,0,1,2.339-.608c.382-.1.632.089.935-.047a10.427,10.427,0,0,1,5.285,1.263c.424.217.942.166,1.123.561.146.021.053.072.14-.047,1.009.951,2.706,2,3.134,3.461-3.353-.959-6.827.864-8.98,2.432a13.627,13.627,0,0,0-3.18-1.871c-.481-.191-1.476-.259-1.684-.561l-.094.093c.033.3.013.165-.28.14.01-.173-.026-.047.094-.187-.253-.268-.453.007-.608-.28l-.234.234a4.2,4.2,0,0,0-2.994-.14A10.685,10.685,0,0,1-160.9-717.164Zm-6.314,7.531c.555-.7,1.955-.315,2.9-.655.922-.019,3.006.217,3.18.561.047-.062.239-.074.515-.094l-.094.234a4.224,4.224,0,0,1,1.824.982c-.757.9-2.214,2.913-2.385,4.256-.986.562-1.8.837-2.807,1.356-.505.262-.853.88-1.4,1.17-1.045-1.211-1.365-2.856-1.777-4.63l.14-.421c.1-.515-.171-.909-.187-1.216C-167.326-708.372-166.819-709.4-167.219-709.633Zm5.192,11.178c-.833-.311-1.341-1.288-2.011-1.544l-.047-.094,2.012-1.543C-161.91-701.448-162.227-699.086-162.027-698.455Zm-5.472-.608a2.25,2.25,0,0,0-1.029,1.31v.608l-.468.608a16.862,16.862,0,0,0-.748,4.069c.046.452.258,1.022.281,1.637-2.3-.752-6.528-6.245-5.238-9.962l.094-1.684a12.433,12.433,0,0,1,1.637-3.227c-.037-.115.021-.022-.093-.14a6.292,6.292,0,0,0,.8-1.029,10.368,10.368,0,0,1,2.759-2.151,8.056,8.056,0,0,1-.234,1.45c-.1.626.636,3.647.935,3.7.043.334-.123.249-.047.608.113.531,1.21,2.879,1.5,2.572a1.6,1.6,0,0,0,.234.608A1.569,1.569,0,0,0-167.5-699.063Zm.8,9.448-.187-.327a5.957,5.957,0,0,1-.234-2.1c.029-.388-.094-2.666-.094-2.666v-.047s1.377-3.039,1.543-3.461c.837.231.617.748,1.17,1.17l1.122.514.374.421,1.216.234a9.983,9.983,0,0,1,1.684,2.573l.047.514c.3.5.982.76,1.17,1.4-1.075,1.26-3.078,1.137-4.631,1.777A10.872,10.872,0,0,0-166.7-689.615Zm18.428,2.76c.06.152-.062.281-.14.234a11.047,11.047,0,0,1-6.127,4.3c-.4.116-.848.062-1.122.141a7.627,7.627,0,0,1-4.163-.514c-.454-.154-1.409-.411-1.5-.281-.368-.625-1.692-.994-2.292-1.544l-.094-.374-.748-.468a17.2,17.2,0,0,1-1.4-2.011c1.743.406,4.28-.366,5.519-.655.866-.2,1.27-.911,2.292-.842.2-.551.487-.5.748-.8.293-.123.851.362,1.216.234.193.847,1,.789,1.731.983.407.108.834.609,1.309.748a13.318,13.318,0,0,0,5.1.281C-148.009-687.128-148.15-687.083-148.276-686.855Zm1.824-3.976c-.2.072-.115-.01-.187.187.031,0-.031.016-.094,0a4.621,4.621,0,0,1-.28.8c-.586-.292-2.645.333-3.368.14-.314-.084-1.176-.193-1.356.046-.666-.513-1.379-.468-2.292-.842l-1.216-.7-.047-.093a13.764,13.764,0,0,0,2.058-2.479c.163-.259.032-.519.14-.889.008-.028.517-.926.562-.983l1.356-.467a28.7,28.7,0,0,0,2.9-2.105c1.079,1.383,1.558,4.091,1.965,6.034C-146.156-691.443-146.738-691.386-146.452-690.831Zm7.063-7.2a6.167,6.167,0,0,1-.8,2.292c.068.221.041.121.187.234l-.234-.047c-.034.27.03.021-.14.234l.094.14c-.225,0-.691,1.011-.889,1.263a12.824,12.824,0,0,1-2.993,2.712h-.047l.375-1.637a20.916,20.916,0,0,0-.982-3.134,13.34,13.34,0,0,0-.562-2.011l-1.263-1.824c-.179-.293.483-.684.514-1.029.111-.257.069-.257.327-.281.118-.814.939-1.827,1.263-2.76.127-.364.053-.669.187-.935-.119.006-.062-.249,0-.187.176-.181.131-.519.234-.7l-.187-.094a5.648,5.648,0,0,0,.187-2.947l.281.187.327-.187-.14.234,2.012,1.871a13.9,13.9,0,0,1,2.1,3.835c.171.434.36,3.04.468,3.087-.242.207-.248,1.007-.28,1.5C-139.265-698.221-139.307-698.1-139.389-698.034Z" transform="translate(183.078 738.115)" fill="#3dc2c2"/>
  </g>
</svg>
