<svg id="module" xmlns="http://www.w3.org/2000/svg" width="48" height="48" viewBox="0 0 48 48">
  <rect id="Rectangle_866" data-name="Rectangle 866" width="48" height="48" fill="none" opacity="0.46"/>
  <g id="Group_9582" data-name="Group 9582" transform="translate(-1358 77)">
    <path id="Path_60536" data-name="Path 60536" d="M1402-36h-6a1,1,0,0,1-1-1v-2h-26v2a1,1,0,0,1-1,1h-6a1,1,0,0,1-1-1v-6a1,1,0,0,1,1-1h2V-62h-2a1,1,0,0,1-1-1v-6a1,1,0,0,1,1-1h6a1,1,0,0,1,1,1v2h26v-2a1,1,0,0,1,1-1h6a1,1,0,0,1,1,1v6a1,1,0,0,1-1,1h-2v18h2a1,1,0,0,1,1,1v6A1,1,0,0,1,1402-36Zm-5-2h4v-4h-2a1,1,0,0,1-1-1V-63a1,1,0,0,1,1-1h2v-4h-4v2a1,1,0,0,1-1,1h-28a1,1,0,0,1-1-1v-2h-4v4h2a1,1,0,0,1,1,1v20a1,1,0,0,1-1,1h-2v4h4v-2a1,1,0,0,1,1-1h28a1,1,0,0,1,1,1Z" fill="#646EC8"/>
  </g>
  <g id="Group_9583" data-name="Group 9583" transform="translate(-1358 77)">
    <path id="Path_60537" data-name="Path 60537" d="M1393-58h-22a1,1,0,0,1-1-1,1,1,0,0,1,1-1h22a1,1,0,0,1,1,1A1,1,0,0,1,1393-58Z" fill="#646EC8"/>
  </g>
  <g id="Group_9584" data-name="Group 9584" transform="translate(-1358 77)">
    <path id="Path_60538" data-name="Path 60538" d="M1389-52h-14a1,1,0,0,1-1-1,1,1,0,0,1,1-1h14a1,1,0,0,1,1,1A1,1,0,0,1,1389-52Z" fill="#646EC8"/>
  </g>
  <g id="Group_9585" data-name="Group 9585" transform="translate(-1358 77)">
    <path id="Path_60539" data-name="Path 60539" d="M1389-46h-14a1,1,0,0,1-1-1,1,1,0,0,1,1-1h14a1,1,0,0,1,1,1A1,1,0,0,1,1389-46Z" fill="#646EC8"/>
  </g>
</svg>
