<svg id="notifications" xmlns="http://www.w3.org/2000/svg" width="48" height="48" viewBox="0 0 48 48">
  <g id="Group_9632" data-name="Group 9632" transform="translate(-1486 139)">
    <rect id="Rectangle_866" data-name="Rectangle 866" width="48" height="48" transform="translate(1486 -139)" fill="none" opacity="0.46"/>
    <g id="Group_9632-2" data-name="Group 9632">
      <path id="Path_60568" data-name="Path 60568" d="M1509-103h-19a1,1,0,0,1-1-1v-30a1,1,0,0,1,1-1h40a1,1,0,0,1,1,1v16a1,1,0,0,1-1,1,1,1,0,0,1-1-1v-15h-38v28h18a1,1,0,0,1,1,1A1,1,0,0,1,1509-103Z" fill="#b91036"/>
    </g>
    <g id="Group_9633" data-name="Group 9633">
      <path id="Path_60569" data-name="Path 60569" d="M1524-126h-28a1,1,0,0,1-1-1,1,1,0,0,1,1-1h28a1,1,0,0,1,1,1A1,1,0,0,1,1524-126Z" fill="#be0000"/>
    </g>
    <g id="Group_9634" data-name="Group 9634">
      <path id="Path_60570" data-name="Path 60570" d="M1516-121h-20a1,1,0,0,1-1-1,1,1,0,0,1,1-1h20a1,1,0,0,1,1,1A1,1,0,0,1,1516-121Z" fill="#be0000"/>
    </g>
    <g id="Group_9635" data-name="Group 9635">
      <path id="Path_60571" data-name="Path 60571" d="M1512-116h-16a1,1,0,0,1-1-1,1,1,0,0,1,1-1h16a1,1,0,0,1,1,1A1,1,0,0,1,1512-116Z" fill="#be0000"/>
    </g>
    <g id="Group_9636" data-name="Group 9636">
      <path id="Path_60572" data-name="Path 60572" d="M1530-100h-15a2.9,2.9,0,0,1-1.811-.912,2.21,2.21,0,0,1-.625-1.545,2.278,2.278,0,0,1,.607-1.544l.139-.179a6.24,6.24,0,0,0,1.142-1.568,8.9,8.9,0,0,0,.6-3.578,6.935,6.935,0,0,1,1.633-4.572l.241-.29a3.986,3.986,0,0,1,2.07-1.592V-116c0-1.327,1.01-2,3-2s3,.673,3,2v.2a5.227,5.227,0,0,1,2.875,1.9,6.94,6.94,0,0,1,1.634,4.573,8.9,8.9,0,0,0,.613,3.6,6.221,6.221,0,0,0,1.133,1.548l.139.179a2.282,2.282,0,0,1,.606,1.544,2.209,2.209,0,0,1-.624,1.544.979.979,0,0,0-.063.1A1.524,1.524,0,0,1,1530-100Zm-15.2-2.84-.082.109c-.142.163-.149.222-.149.274a.211.211,0,0,0,.076.168,1.33,1.33,0,0,0,.427.295L1529.7-102a2.232,2.232,0,0,1,.228-.29.212.212,0,0,0,.074-.167.27.27,0,0,0-.084-.2,1.787,1.787,0,0,1-.163-.205,8.07,8.07,0,0,1-1.445-2.028,10.828,10.828,0,0,1-.8-4.44,4.924,4.924,0,0,0-1.167-3.289,3.529,3.529,0,0,0-2.535-1.4l-.807-.158V-115.9a3.648,3.648,0,0,0-1-.1,3.6,3.6,0,0,0-1,.1v1.721l-.807.158c-.966.19-1.038.277-1.721,1.1l-.249.3a4.923,4.923,0,0,0-1.167,3.289,10.851,10.851,0,0,1-.789,4.42A8.184,8.184,0,0,1,1514.8-102.84Z" fill="#ff424c"/>
    </g>
    <g id="Group_9637" data-name="Group 9637">
      <path id="Path_60573" data-name="Path 60573" d="M1522.4-93.4a4.491,4.491,0,0,1-3.232-1.325A4.418,4.418,0,0,1,1517.791-98v-1H1527v1a4.418,4.418,0,0,1-1.373,3.279A4.491,4.491,0,0,1,1522.4-93.4Zm-2.419-3.6a2.5,2.5,0,0,0,.582.846,2.525,2.525,0,0,0,1.837.758,2.521,2.521,0,0,0,1.835-.758,2.472,2.472,0,0,0,.583-.846Z" fill="#ff424c"/>
    </g>
    <g id="Group_9638" data-name="Group 9638">
      <path id="Path_60574" data-name="Path 60574" d="M1512-111h-16a1,1,0,0,1-1-1,1,1,0,0,1,1-1h16a1,1,0,0,1,1,1A1,1,0,0,1,1512-111Z" fill="#be0000"/>
    </g>
  </g>
</svg>
