<svg id="Icon_-_UI_-_Quiz_-_16px" data-name="Icon - UI - Quiz - 16px" xmlns="http://www.w3.org/2000/svg" width="16" height="16" viewBox="0 0 16 16">
  <rect id="Rectangle_3108" data-name="Rectangle 3108" width="16" height="16" fill="none"/>
  <g id="Group_9474" data-name="Group 9474" transform="translate(-76 -148)">
    <path id="Path_60474" data-name="Path 60474" d="M79,164a1,1,0,0,1-1-1v-2H77a1,1,0,0,1-1-1V149a1,1,0,0,1,1-1H91a1,1,0,0,1,1,1v11a1,1,0,0,1-1,1H83.333L79.6,163.8A1,1,0,0,1,79,164Zm-1-5h1a1,1,0,0,1,1,1v1l2.4-1.8a1,1,0,0,1,.6-.2h7v-9H78Z"/>
  </g>
  <g id="Group_9475" data-name="Group 9475" transform="translate(-76 -148)">
    <path id="Path_60475" data-name="Path 60475" d="M88,154H80a1,1,0,0,1,0-2h8a1,1,0,0,1,0,2Z"/>
  </g>
  <g id="Group_9476" data-name="Group 9476" transform="translate(-76 -148)">
    <path id="Path_60476" data-name="Path 60476" d="M85,157H80a1,1,0,0,1,0-2h5a1,1,0,0,1,0,2Z"/>
  </g>
</svg>
