<svg id="referral" xmlns="http://www.w3.org/2000/svg" width="48" height="48" viewBox="0 0 48 48">
  <rect id="Rectangle_866" data-name="Rectangle 866" width="48" height="48" fill="none" opacity="0.46"/>
  <g id="Group_9640" data-name="Group 9640" transform="translate(-1658 140)">
    <path id="Path_60578" data-name="Path 60578" d="M1682.941-107.1a10.469,10.469,0,0,0,3.059-7.4,10.512,10.512,0,0,0-10.5-10.5,10.512,10.512,0,0,0-10.5,10.5,10.469,10.469,0,0,0,3.059,7.4c-9.156,2.437-8.858,11.548-8.853,11.645a1,1,0,0,0,1,.954h.044a1,1,0,0,0,.956-1.041c-.014-.35-.232-8.555,8.934-9.946A10.422,10.422,0,0,0,1675.5-104a10.422,10.422,0,0,0,5.362-1.489c9.166,1.391,8.948,9.6,8.934,9.946a1,1,0,0,0,.953,1.042h.047a1,1,0,0,0,1-.955C1691.8-95.552,1692.1-104.663,1682.941-107.1ZM1667-114.5a8.51,8.51,0,0,1,8.5-8.5,8.51,8.51,0,0,1,8.5,8.5,8.51,8.51,0,0,1-8.5,8.5A8.51,8.51,0,0,1,1667-114.5Z" fill="#308138"/>
    <path id="Path_60579" data-name="Path 60579" d="M1697.9-121.647a8.289,8.289,0,0,0,2.183-5.6,8.342,8.342,0,0,0-8.333-8.333,8.342,8.342,0,0,0-8.333,8.333,8.342,8.342,0,0,0,8.333,8.333,8.269,8.269,0,0,0,4.181-1.136,7.314,7.314,0,0,1,6.627,7.427,1,1,0,0,0,.953,1.042h.047a1,1,0,0,0,1-.955C1704.559-112.614,1704.773-119.582,1697.9-121.647Zm-12.483-5.6a6.34,6.34,0,0,1,6.333-6.333,6.34,6.34,0,0,1,6.333,6.333,6.34,6.34,0,0,1-6.333,6.333A6.34,6.34,0,0,1,1685.417-127.25Z" fill="#51c041"/>
  </g>
</svg>
