<svg xmlns="http://www.w3.org/2000/svg" width="313.606" height="267.393" viewBox="0 0 313.606 267.393">
  <g transform="translate(-1335.597 -47.811)">
    <path d="M108.124,24.294c-4.784-3.525-8.761-7.7-14.29-10.14A125.76,125.76,0,0,1,79.14,5.99c-1.315-.824-2.668-1.631-4-2.464-1.353-.842-2.88-.882-4.438-1.137C66.3,1.641,61.912.907,57.512.162L57.23,0l-.173.308c-.263.294-.564.565-.859.845-1.565,1.556-3.874,1.761-6.017,2.389-3.79,1.1-7.562,2.19-11.378,3.33C35.557,7.839,32.274,8.758,29,9.811c2.5,3,5.631,5.658,8.345,8.522q3.184,3.4,6.407,6.81a37.528,37.528,0,0,1-3.425,2.116c-1.071.649-1.225,1.641-1.629,2.78s-.558,2.694-1.822,3.023c-1.148.307-2.367.491-3.541.734l-3.476.736a10.491,10.491,0,0,0-1.77.382c-.718.3-.917.938-1.277,1.65-.6,1.152-1.148,2.389-1.815,3.492a7.574,7.574,0,0,1-1.61,1.725c-1.02.907-2.072,1.811-3.092,2.718-.6.515-.8.956-1.539.823-4.47-.773-8.915-1.557-13.366-2.343-.468-.08-1.366-.441-1.45.187l-.166.941c-.013.075.166.333.141.392a4.746,4.746,0,0,1-.4.736c-.334.512-.16,1.273-.25,1.836a27.732,27.732,0,0,0-.4,2.93A13.76,13.76,0,0,1,2.8,51.819a6.887,6.887,0,0,0-.27,1.811,5.751,5.751,0,0,1,.026,2.539c-.25.867-.5,1.749-.834,2.581-.276.759-.526.873-.538,1.641a3.374,3.374,0,0,1-.4.883c-.359.342-1.071.9-.654,1.09.949.4.353,1.839.962.492,0,0,.655-.882.911-.874a1.818,1.818,0,0,1,.725.221,7.668,7.668,0,0,0,2.347.05c.455-.075.859-.4,1.161-.034a14.826,14.826,0,0,1,1.526.354,5.69,5.69,0,0,1,.86.283c.731.6.045.145-.077.491-.083.254-.334.05-.224.4,0,0,.661.342.75.392a8,8,0,0,1,1.424,1.606c.648.991,1.206,1.861,1.873,2.914a9.961,9.961,0,0,1,.8.991c.135.333.051.733.154,1.09a6.958,6.958,0,0,0,2.206,3,7.143,7.143,0,0,1,1.668,1.64c.635.907.635,1.935,1.36,2.879a13.654,13.654,0,0,0,1.4,1.528,8.651,8.651,0,0,1,1.873,2.684,21.441,21.441,0,0,0,2.02,2.461,14.781,14.781,0,0,1,1.809,2.96c.59,1.389,1.572,2.573,2.174,3.946.353.808.558,1.361,1.475,1.687.7.246,1.418.1,1.693,1.007a2.408,2.408,0,0,1-.455,1.752c-.257.45.635,1.724.981,2.032a2.2,2.2,0,0,0,.956.466c.051,0-.148-1.043.507-.1a32.437,32.437,0,0,1,2.379,2.949,6.722,6.722,0,0,1,1.007,1.922c.282,1.985,2.681,2.889,2.835,4.859.058.907.968,3.2-.154,3.861-.2.105-.962-.075-.949.121.039.27.346.734.648.7.353-.035.757,1.189,1.161,1.615.719.783,1.123,1.74,1.77,2.563.256.317.994,1.249.962,1.641a1.144,1.144,0,0,0,.263,1.258c.3.391.6.872,1.154.919.263.025.41.329.712.271.257-.041.154-.317.193-.317.911-.311,1.148-.2,1.956.562.532.546.911.01,1.789.908l.365.267a9.078,9.078,0,0,0,2.264,1.358c.533.245.789.747,1.193,1.1.436.392,1.058.586,1.494,1,.494.49.949.944,1.417,1.435.295.245.705.475.95.708.3.354.2.516.384.941.269.627,1.347,3.442,1.918,3.355l.359-.034a13.135,13.135,0,0,1,.93,1.479c.282.749.1,1.69.5,2.327a9.224,9.224,0,0,0,.891,1.532c.687.441.526,1.333.539,1.739s-.115.858.27,1.2c.205.174.642.013.834.134a28.149,28.149,0,0,1,1.879,4.129,4.556,4.556,0,0,0,.494.908,5.225,5.225,0,0,1,.718,1.795c.154.761-.032,1.765.443,2.417.1-.677.507-.776.41-.09-.045.392-.462.858-.6,1.2a5.865,5.865,0,0,0-.616,2.793l-.07,1.852c-.032.882.256,1.714.282,2.532l-.128.341a9.258,9.258,0,0,1,1.058,1.78,11.239,11.239,0,0,1,.135,1.479,4.018,4.018,0,0,0,.34,1.19c.257.5.257-.391.52-.074a3.368,3.368,0,0,1,.353,1.885c-.109.587-1.02.941-1.09,1.383-.071.487.93,1.265,1.129,1.715.135.357-.045.659.064,1.029a2.4,2.4,0,0,0,.648.894,6.378,6.378,0,0,1,.84,1.7c.321.7,1.334.466,1.36,1.128-.1-.024-.128-.1-.2-.108-.083.516.578.8.892,1.138.167-.737,1.058.687.353.366-.1.432.051.981.609,1-.051-.106-.064-.2-.1-.292.648.038.776,1.566,1.212,2.193.141.159.494.32.558.442.147.279-.237.146-.1.391a7.749,7.749,0,0,0,.93,1.444c.943,1.054,2.8,2.949,4.317,3.194a2.9,2.9,0,0,1-.558-.646,15.432,15.432,0,0,0,1.526.416c.859.059.9-.1,1.559.516.257.22.385.5.712.684.282.159.6.085.866.32.456.367.558.938,1.212,1.309a7.929,7.929,0,0,1,1.52,1c.353.283,1.1.553,1.353.882.3.382.032.612.212.945.141.27.558.55.757.857a3.919,3.919,0,0,0,1.366,1.308,3.265,3.265,0,0,1,1.187.221c.981.441.526,1.41.526,2.348a3.161,3.161,0,0,0-.5-.2,5.842,5.842,0,0,0,1.815,1.339c1.161.547.808.793.86,1.861a3.536,3.536,0,0,0,1.244,2.082c.6.7.07,1.69.93,2.4.757.624,1.219.109,1.142,1.261-.051.774-.385,1.174.025,1.923.449.712,1.168.771,1.168,1.544-.013.892-.417,1.233-.051,2.115.706,1.616,2.315,1.42,3,3.077.282.646.231,1.444.475,2.156.282.767-.039,1.2.66,1.674a23.381,23.381,0,0,1,2.232,2.964,9.817,9.817,0,0,0,1.925,2.709c.391.3,1.353.546,1.616.987a9.256,9.256,0,0,0,2.123,1.837c.372.286.648.27.93.662.18.283.372.6.526.8.61.621,1.52,1.137,2.084,1.836.847,1.062.456,2.556.8,3.954.205.734.218,1.517.417,2.228.327,1.091.95-.745.911-.99,0-.112-.263-.858-.16-.929.25-.2.654.5.686.547.18.27.173.736.372,1.029a12.286,12.286,0,0,1,.924,1.96c.192.857,0,1.215.706,1.715a4.367,4.367,0,0,1,2.091,2.914c.122.872-.251,1.3.327,2.121a3.251,3.251,0,0,1,.615,1.029c.051.245-.058.661,0,.953a1.95,1.95,0,0,0,1.212-.454c.648-.428.346-.711.7-1.136.18-.222,1.065-.393,1.366-.687a1.941,1.941,0,0,0,.635-1.224c.135-.6.051-.957.59-1.118.25-.071.809.406,1.078.09.231-.31-.372-.677-.321-.908.052-.466.757-.637.526-1.174-.173-.345-.808-.391-1.084-.736a9.827,9.827,0,0,0-.417-.928c-.039-.457.366-.849.333-1.274a5.277,5.277,0,0,1,.077-2.66c.161-.491.045-.587.462-.942.243-.186.75-.112.859-.341.494-.958-1.321-.907-1.11-1.324.693-1.274,2.393-2.954,3.99-2.78a4.453,4.453,0,0,1,2.226,1.041c.455.425.75,1.028,1.314,1.348a3.678,3.678,0,0,0,2.014.295c.718-.245.231,1.028,1.424.155.295-.195.141-.5.6-.549.353-.046.616.466.924.429.526-.075.34-.429.693-.671.468-.336.237-.1.763-.141,2.373-.23,4.81-.4,7.242-.45a38.88,38.88,0,0,1,6.369.295c1.758.221,3.374.941,5.093,1.162,2.123.283,4.259.528,6.382.845a51.056,51.056,0,0,0,5.432.857c.988.034,2.611-.211,3.54.149a10.2,10.2,0,0,1,2.072,1.666c.936.768,1.866,1.516,2.828,2.278.423.351,2,.047,2.56.047.705,0,2.071-1.262,2.681-1.631a3.971,3.971,0,0,0,1.462-1.762c.853-1.469,1.257-3.293,2.149-4.688,1.193-1.886,2.406-3.772,3.585-5.648.943-1.454,1.822-3.657,3.1-4.846,1.219-1.129,3.342-1.874,4.8-2.7,2.277-1.271,4.56-2.557,6.837-3.828a9.188,9.188,0,0,1,3.713-.786c2.707-.317,5.439-.661,8.166-.978,3.841-.466,7.69-.907,11.551-1.37,4.118-.506,8.242-1.609,12.3-2.376a41.123,41.123,0,0,0,6.837-1.786q6.754-2.559,13.45-5.12,12.285-4.7,24.565-9.37c.2-.074.359-1.479.4-1.674.3-1.273.6-2.572.885-3.871.385-1.678.763-3.342,1.135-5.021.892-3.842,1.751-7.679,2.63-11.547a34.189,34.189,0,0,0,.667-6.22,7.4,7.4,0,0,0-.66-4.163c-1.264-2.314-2.579-4.617-3.887-6.931-.385-.736-.815-1.457-1.218-2.206-.11-.2-1.777.833-2.123.8-7.736-.758-15.4-1.957-23.116-3-3.489-.466-8.139-.391-11.275-2.107-1.482-.8-2.566-2.631-3.586-3.9-1.219-1.457-2.379-2.914-3.579-4.384-2.206-2.684-4.887-5.328-6.779-8.226a11.692,11.692,0,0,1-.866-2.473c-.295-.678-.66-.442-1.154-.948-1.014-1-1.546-.13-2.527-.23-1.854-.171.391-2.535.847-3.159.333-.441.923-1.053.756-1.4-.494-.931-1.1-.12-1.462.33-.7.807-.558.978-.911-.025-.122-.28.129-.721-.526-.686-.686.015-.686.171-1.283.553-1.468.917-2.841-.1-3.752-1.175-.244-.27-.442-.553-.66-.808-.071-.1-.1-.335-.218-.391-.283-.174-.257.022-.526-.051-.359-.112-.314.352-.738-.236-.206-.292-.122-.512-.186-.832a4.4,4.4,0,0,0-1.052-1.74c-.18-.268-1.3-2.753-1.578-1.92-.8-1.345-.641-3.1-1.251-4.554a3.773,3.773,0,0,0-1.526-2.032s-1.257-1.616-1.873-2.278l-.578-.677c-.635-1.159-1.892-2.065-2.052-3.389-.174-1.14-.2-1.665-1.366-2.244.064.491-.2.687-.424.357-.128-.208.033-.759-.019-.945a7.453,7.453,0,0,1-.3-1.1c0-.035.442-.783.442-.783.609-.18.558.515.756.783,0,0,.667,2.082,1.674.752.283-.407-.4-1.078-.308-1.227,0,0,.4.083.519-.488a3.5,3.5,0,0,0-.064-.628,5.835,5.835,0,0,0-.244-2.019c-.353-.724-.911-.749-1.565-1.053a3.036,3.036,0,0,1-1.545-2.473c-.071-.341-.173-.625-.225-.895-.058-.3-.3-.565-.154-.916.3-.6.206.2.449.317a2.466,2.466,0,0,0,.532.208c1.667.488.083-1.4.083-1.4-.352-.317-.667-.417-.821-.588-.751-.783-1.11-.341-2.11-.646a7.825,7.825,0,0,1-2.912-2.007c-.59-.736-.661-2.351-1.539-3-.366-.271-1.8,1.569-1.019.857-.912.833-1.264.137-1.264.137-.4-.293-.2-1.445-.2-1.445-.391-.072-.552,1.063-.93.05-.334-.873-.128-.724-1.495-1.812-.507-.416.917-1.755.655-2.547a2.589,2.589,0,0,0-.725-.736c-.456-.257-.891.025-1.334.013l-1.122-.27a1.888,1.888,0,0,1-.506-.28c-.142-.121-.61-.627-.783-.652-.654-.13-.654.6-.725.628-.417.156-.891.083-.769-.391,0,0-.174-.8-.3-1.373l-.231-1.174a4.109,4.109,0,0,0-.911-2.2c-.122-.115-.706-.565-.635-.686.436-.653-.141-.944-.141-.944-.788-.321-.942-.134-1.449-.821a2.506,2.506,0,0,1-.686-1.174c-.039-.283.282-.712.212-.882-.1-.5-.969-.969-1.27-1.386a2.288,2.288,0,0,1-.243-1.715l-.3-.292c-.135-.255-.064-.637-.186-.857-.737-1.153-2.3-.957-3.611-.941-2.437.009-6.985.966-8.652-1.215a5.152,5.152,0,0,1-.68-2.106,10.1,10.1,0,0,0-1.264-2.619c-.93-1.494-2.193-1.261-3.893-1.494-1.739-.221-3.438-.426-5.157-.647-.808-.115-1.636-.211-2.456-.311-.353-.046-.705-.1-1.065-.131-.847-.1-1.5.45-2.322.538-1.77.183-4-.407-5.8-.578-1.879-.2-3.772-.376-5.664-.563-3.6-.329-7.228-.662-10.826-.978-1.462-.134-2.483-1.3-3.592-2.157-2.264-1.715-4.541-3.429-6.773-5.142Z" transform="matrix(0.998, 0.07, -0.07, 0.998, 1354.65, 50.681)" fill="#fff" stroke="#fff" stroke-miterlimit="10" stroke-width="4" opacity="0.5"/>
  </g>
</svg>
