<svg id="Icon_-_UI_-_Arrow_Left_-_16px" data-name="Icon - UI - Arrow Left - 16px" xmlns="http://www.w3.org/2000/svg" width="16" height="16" viewBox="0 0 16 16">
  <g id="Layer_1" data-name="Layer 1">
    <rect id="Rectangle_389" data-name="Rectangle 389" width="16" height="16" fill="none"/>
  </g>
  <g id="Layer_2" data-name="Layer 2" transform="translate(1.027 2.056)">
    <path id="Path_53613" data-name="Path 53613" d="M1.027,8a.982.982,0,0,1,.465-.823L6.32,2.349A1,1,0,0,1,7.734,3.763L4.5,7H14a1,1,0,1,1,0,2H4.385l3.293,3.293a1,1,0,1,1-1.414,1.414L1.32,8.763a.994.994,0,0,1-.288-.736C1.032,8.018,1.027,8.01,1.027,8Z" transform="translate(-1.027 -2.056)" fill="#fff"/>
  </g>
</svg>
