<svg id="Icon_-_UI_-_Phone_-_16px" data-name="Icon - UI - Phone - 16px" xmlns="http://www.w3.org/2000/svg" width="16" height="16" viewBox="0 0 16 16">
  <rect id="Rectangle_3164" data-name="Rectangle 3164" width="16" height="16" fill="none"/>
  <g id="Path_3365" data-name="Path 3365" transform="translate(7 -251)">
    <path id="Path_60517" data-name="Path 60517" d="M-4.048,267h-.087a2.208,2.208,0,0,1-1.382-.5,2.14,2.14,0,0,1-.774-1.316l-.586-2.5a2.166,2.166,0,0,1,.18-1.531,2.108,2.108,0,0,1,1.191-1.054l2.685-1.172a2.177,2.177,0,0,1,1.458-.1,2.342,2.342,0,0,1,1.151.7l.366.456a7.075,7.075,0,0,0,1.854-1.838l-.4-.322a2.26,2.26,0,0,1-.645-2.648l1.167-2.74a2.264,2.264,0,0,1,1.042-1.134,2.128,2.128,0,0,1,1.55-.174l2.5.583a2.144,2.144,0,0,1,1.291.782A2.247,2.247,0,0,1,9,253.94a12.72,12.72,0,0,1-1.8,6.587,12.787,12.787,0,0,1-4.686,4.68A12.888,12.888,0,0,1-4.048,267Zm-.07-2h.055A10.9,10.9,0,0,0,1.5,263.48a10.814,10.814,0,0,0,3.97-3.964A10.773,10.773,0,0,0,7,253.927a.271.271,0,0,0-.054-.185.155.155,0,0,0-.1-.06l-.059-.012-2.558-.6a.19.19,0,0,0-.135.005.276.276,0,0,0-.128.138L2.8,255.973a.26.26,0,0,0,.065.3l1.081.867a1,1,0,0,1,.258,1.251,9.091,9.091,0,0,1-3.82,3.788,1,1,0,0,1-1.244-.261l-.87-1.088a.51.51,0,0,0-.145-.063.2.2,0,0,0-.144,0l-2.749,1.2c-.1.037-.124.061-.14.094a.212.212,0,0,0-.025.154l.605,2.578c.018.1.038.131.067.154A.2.2,0,0,0-4.118,265Z" fill="#fff"/>
  </g>
</svg>
