<svg id="Icon_-_UI_-_Social_-_Instagram_-_16px" data-name="Icon - UI - Social - Instagram - 16px" xmlns="http://www.w3.org/2000/svg" width="16" height="16" viewBox="0 0 16 16">
  <path id="Path_3397" data-name="Path 3397" d="M9.111,2.177a.746.746,0,1,0,.747.746.746.746,0,0,0-.747-.746ZM6,4.106A1.895,1.895,0,1,1,4.105,6,1.895,1.895,0,0,1,6,4.106ZM6,2.9A3.1,3.1,0,1,0,9.1,6,3.1,3.1,0,0,0,6,2.9ZM3.574,0H8.426A3.584,3.584,0,0,1,12,3.394V8.426A3.584,3.584,0,0,1,8.606,12H3.574A3.584,3.584,0,0,1,0,8.606V3.574A3.584,3.584,0,0,1,3.394,0h.18Zm7.217,8.426a2.366,2.366,0,0,1-2.366,2.366H3.574A2.366,2.366,0,0,1,1.209,8.426V3.574A2.366,2.366,0,0,1,3.574,1.209H8.426a2.366,2.366,0,0,1,2.366,2.366Z" transform="translate(2 2)" fill="#fff" fill-rule="evenodd"/>
  <rect id="Rectangle_2973" data-name="Rectangle 2973" width="16" height="16" fill="none"/>
</svg>
