<svg id="Icon_-_UI_-_Mail_-_16px" data-name="Icon - UI - Mail - 16px" xmlns="http://www.w3.org/2000/svg" width="16" height="16" viewBox="0 0 16 16">
  <rect id="Rectangle_3163" data-name="Rectangle 3163" width="16" height="16" fill="none"/>
  <path id="Path_60516" data-name="Path 60516" d="M8.978,232.891a1.043,1.043,0,0,0-.04-.2.988.988,0,0,0-.086-.183,1.039,1.039,0,0,0-.047-.1c-.015-.02-.038-.03-.054-.049a1,1,0,0,0-.153-.138.961.961,0,0,0-.152-.1.922.922,0,0,0-.174-.062.982.982,0,0,0-.2-.041c-.024,0-.046-.014-.071-.014H-6c-.025,0-.047.013-.071.014a.982.982,0,0,0-.2.041.922.922,0,0,0-.174.062.962.962,0,0,0-.152.1,1,1,0,0,0-.153.138c-.016.019-.039.029-.054.049s-.028.069-.047.1a1,1,0,0,0-.086.185,1.043,1.043,0,0,0-.04.2A1.037,1.037,0,0,0-7,233v10a1,1,0,0,0,1,1H8a1,1,0,0,0,1-1V233A.955.955,0,0,0,8.978,232.891ZM4.961,234,1,236.924-2.961,234ZM-5,242v-7.019l5.406,3.991a1,1,0,0,0,1.188,0L7,234.981V242Z" transform="translate(7 -230)" fill="#fff"/>
</svg>
