<svg id="Icon_-_UI_-_Social_-_YouTube_-_16px" data-name="Icon - UI - Social - YouTube - 16px" xmlns="http://www.w3.org/2000/svg" width="16" height="16" viewBox="0 0 16 16">
  <path id="Path_3400" data-name="Path 3400" d="M13.121,3.326a1.572,1.572,0,0,0-1.047-1.047A35.024,35.024,0,0,0,7.4,2a35.024,35.024,0,0,0-4.674.279A1.446,1.446,0,0,0,1.679,3.326,12.839,12.839,0,0,0,1.4,6.186a12.839,12.839,0,0,0,.279,2.86,1.572,1.572,0,0,0,1.047,1.047,35.024,35.024,0,0,0,4.674.279,35.024,35.024,0,0,0,4.674-.279,1.572,1.572,0,0,0,1.047-1.047,19.852,19.852,0,0,0,.279-2.86A12.839,12.839,0,0,0,13.121,3.326ZM6.214,8V4.372l3.07,1.814L6.214,8Z" transform="translate(0.6 2)" fill="#fff"/>
  <rect id="Rectangle_2975" data-name="Rectangle 2975" width="16" height="16" fill="none"/>
</svg>
