<svg width="22" height="17" viewBox="0 0 22 17" fill="none" xmlns="http://www.w3.org/2000/svg">
<path d="M14.0832 8.00551L9.58324 5.00551C9.47027 4.93013 9.33894 4.88685 9.20329 4.88028C9.06763 4.87371 8.93274 4.90409 8.813 4.96819C8.69327 5.0323 8.59319 5.12771 8.52344 5.24425C8.4537 5.36078 8.4169 5.49407 8.41699 5.62989V11.6299C8.4169 11.7657 8.4537 11.899 8.52344 12.0155C8.59319 12.1321 8.69327 12.2275 8.813 12.2916C8.93274 12.3557 9.06763 12.3861 9.20329 12.3795C9.33894 12.3729 9.47027 12.3296 9.58324 12.2543L14.0832 9.25426C14.1861 9.1858 14.2705 9.09298 14.3288 8.98405C14.3872 8.87512 14.4177 8.75346 14.4177 8.62989C14.4177 8.50631 14.3872 8.38465 14.3288 8.27573C14.2705 8.1668 14.1861 8.07397 14.0832 8.00551ZM9.91699 10.2283V7.03614L12.3151 8.62989L9.91699 10.2283ZM20.6354 3.14739C20.5471 2.80177 20.3778 2.48212 20.1417 2.21479C19.9055 1.94746 19.6091 1.74013 19.277 1.60989C16.0632 0.368636 10.9482 0.379886 10.667 0.379886C10.3857 0.379886 5.27074 0.368636 2.05699 1.60989C1.7249 1.74013 1.42852 1.94746 1.19233 2.21479C0.956138 2.48212 0.786891 2.80177 0.698555 3.14739C0.455742 4.08301 0.166992 5.79301 0.166992 8.62989C0.166992 11.4668 0.455742 13.1768 0.698555 14.1124C0.786759 14.4582 0.955946 14.778 1.19215 15.0455C1.42835 15.313 1.72479 15.5205 2.05699 15.6508C5.13574 16.8386 9.95449 16.8799 10.6051 16.8799H10.7289C11.3795 16.8799 16.2011 16.8386 19.277 15.6508C19.6092 15.5205 19.9056 15.313 20.1418 15.0455C20.378 14.778 20.5472 14.4582 20.6354 14.1124C20.8782 13.1749 21.167 11.4668 21.167 8.62989C21.167 5.79301 20.8782 4.08301 20.6354 3.14739ZM19.1832 13.7411C19.1547 13.8562 19.0992 13.9628 19.0215 14.0522C18.9438 14.1417 18.846 14.2115 18.7361 14.2558C15.7689 15.4014 10.7223 15.3808 10.6736 15.3808H10.667C10.6164 15.3808 5.57355 15.3996 2.60449 14.2558C2.49459 14.2115 2.39676 14.1417 2.31903 14.0522C2.2413 13.9628 2.18588 13.8562 2.1573 13.7411C1.92949 12.8852 1.66699 11.3083 1.66699 8.62989C1.66699 5.95145 1.92949 4.37457 2.15074 3.52332C2.17878 3.40762 2.23396 3.30025 2.31173 3.2101C2.38949 3.11995 2.48759 3.04961 2.59793 3.00489C5.45918 1.89957 10.2536 1.87989 10.6464 1.87989H10.6717C10.7223 1.87989 15.7698 1.86301 18.7342 3.00489C18.8441 3.04924 18.9419 3.11901 19.0196 3.20848C19.0974 3.29794 19.1528 3.40455 19.1814 3.51957C19.4045 4.37457 19.667 5.95145 19.667 8.62989C19.667 11.3083 19.4045 12.8852 19.1832 13.7364V13.7411Z" fill="black"/>
</svg>
