<svg xmlns="http://www.w3.org/2000/svg" width="16" height="16" viewBox="0 0 16 16">
  <g id="Group_9652" data-name="Group 9652" transform="translate(7 -361)">
    <path id="Path_60599" data-name="Path 60599" d="M8,364H6.535l-2-3h-7.07l-2,3H-6a1,1,0,0,0-1,1,1,1,0,0,0,1,1v11H8V366a1,1,0,0,0,0-2Zm-9.465-1h4.93l.667,1H-2.132ZM6,375H-4v-9H6Z"/>
    <path id="Path_60600" data-name="Path 60600" d="M-1,374a1,1,0,0,0,1-1v-5a1,1,0,0,0-1-1,1,1,0,0,0-1,1v5A1,1,0,0,0-1,374Z"/>
    <path id="Path_60601" data-name="Path 60601" d="M3,374a1,1,0,0,0,1-1v-5a1,1,0,0,0-2,0v5A1,1,0,0,0,3,374Z"/>
  </g>
</svg>
